<svg width="23" height="23" viewBox="0 0 23 23" fill="none" xmlns="http://www.w3.org/2000/svg">
<path d="M23 11.5C23 17.8513 17.8513 23 11.5 23C5.14871 23 0 17.8513 0 11.5C0 5.14871 5.14871 0 11.5 0C17.8513 0 23 5.14871 23 11.5ZM10.1698 17.5892L18.7021 9.0569C18.9918 8.76717 18.9918 8.29739 18.7021 8.00766L17.6528 6.95843C17.3631 6.66866 16.8933 6.66866 16.6035 6.95843L9.64516 13.9168L6.39646 10.6681C6.10673 10.3783 5.63695 10.3783 5.34718 10.6681L4.29794 11.7173C4.00821 12.007 4.00821 12.4768 4.29794 12.7665L9.12052 17.5891C9.41029 17.8789 9.88003 17.8789 10.1698 17.5892V17.5892Z" fill="#27AE60"/>
</svg>
