<svg width="22" height="24" viewBox="0 0 22 24" fill="none" xmlns="http://www.w3.org/2000/svg">
<path d="M21.3125 11.625C21.3125 18.0453 16.5416 23.25 10.6562 23.25C4.77095 23.25 0 18.0453 0 11.625C0 5.20467 4.77095 0 10.6562 0C16.5416 0 21.3125 5.20467 21.3125 11.625ZM9.42365 17.7803L17.3299 9.15534C17.5984 8.86247 17.5984 8.38758 17.3299 8.0947L16.3576 7.03406C16.0892 6.74114 15.6539 6.74114 15.3853 7.03406L8.9375 14.068L5.92715 10.784C5.65868 10.4911 5.22337 10.4911 4.95486 10.784L3.9826 11.8447C3.71413 12.1375 3.71413 12.6124 3.9826 12.9053L8.45135 17.7803C8.71986 18.0732 9.15514 18.0732 9.42365 17.7803V17.7803Z" fill="#27AE60"/>
</svg>
