<svg width="348" height="174" viewBox="0 0 348 174" fill="none" xmlns="http://www.w3.org/2000/svg">
<path d="M29.8756 150.51H340.024" stroke="black" stroke-width="3.33333"/>
<path d="M29.8756 150.51V147.61" stroke="black" stroke-width="3.33333"/>
<path d="M60.8906 150.51V147.61" stroke="black" stroke-width="3.33333"/>
<path d="M91.9055 150.51V147.61" stroke="black" stroke-width="3.33333"/>
<path d="M122.921 150.51V147.61" stroke="black" stroke-width="3.33333"/>
<path d="M153.935 150.51V147.61" stroke="black" stroke-width="3.33333"/>
<path d="M184.95 150.51V147.61" stroke="black" stroke-width="3.33333"/>
<path d="M215.965 150.51V147.61" stroke="black" stroke-width="3.33333"/>
<path d="M246.98 150.51V147.61" stroke="black" stroke-width="3.33333"/>
<path d="M277.995 150.51V147.61" stroke="black" stroke-width="3.33333"/>
<path d="M309.011 150.51V147.61" stroke="black" stroke-width="3.33333"/>
<path d="M340.024 150.51V147.61" stroke="black" stroke-width="3.33333"/>
<path d="M29.8756 23.8121H340.024" stroke="black" stroke-opacity="0.0980392" stroke-width="3.33333"/>
<path d="M29.8756 39.6494H340.024" stroke="black" stroke-opacity="0.0980392" stroke-width="3.33333"/>
<path d="M29.8756 55.4866H340.024" stroke="black" stroke-opacity="0.0980392" stroke-width="3.33333"/>
<path d="M29.8756 71.3239H340.024" stroke="black" stroke-opacity="0.0980392" stroke-width="3.33333"/>
<path d="M29.8756 87.1612H340.024" stroke="black" stroke-opacity="0.0980392" stroke-width="3.33333"/>
<path d="M29.8756 102.998H340.024" stroke="black" stroke-opacity="0.0980392" stroke-width="3.33333"/>
<path d="M29.8756 118.835H340.024" stroke="black" stroke-opacity="0.0980392" stroke-width="3.33333"/>
<path d="M29.8756 134.673H340.024" stroke="black" stroke-opacity="0.0980392" stroke-width="3.33333"/>
<path d="M45.3831 139.424L60.8906 129.922L91.9055 123.587L122.921 107.75L153.935 90.3286L184.95 88.7448L215.965 68.1565L246.98 57.0705L277.995 74.4914L309.011 55.4867L340.024 47.5681V150.51H309.011H277.995H246.98H215.965H184.95H153.935H122.921H91.9055H60.8906H45.3831V139.424Z" fill="#80699B"/>
<path d="M45.3831 139.424L60.8906 129.922L91.9055 123.587L122.921 107.75L153.935 90.3286L184.95 88.7448L215.965 68.1565L246.98 57.0705L277.995 74.4914L309.011 55.4867L340.024 47.5681" stroke="black" stroke-opacity="0.498039" stroke-width="2"/>
<path d="M340.024 150.51H309.011H277.995H246.98H215.965H184.95H153.935H122.921H91.9055H60.8906H45.3831" stroke="black" stroke-opacity="0.498039" stroke-width="2"/>
<path d="M45.3831 144.175L60.8906 131.505L91.9055 126.754L122.921 115.668L153.935 95.0797L184.95 90.3286L215.965 76.075H246.98L277.995 83.9937L309.011 66.5726L340.024 55.4866V150.51H309.011H277.995H246.98H215.965H184.95H153.935H122.921H91.9055H60.8906H45.3831V144.175Z" fill="#89A54E"/>
<path d="M45.3831 144.175L60.8906 131.505L91.9055 126.754L122.921 115.668L153.935 95.0797L184.95 90.3286L215.965 76.075H246.98L277.995 83.9937L309.011 66.5726L340.024 55.4866" stroke="black" stroke-opacity="0.4" stroke-width="2"/>
<path d="M340.024 150.51H309.011H277.995H246.98H215.965H184.95H153.935H122.921H91.9055H60.8906H45.3831" stroke="black" stroke-opacity="0.4" stroke-width="2"/>
<path d="M45.3831 145.759L60.8906 134.673H91.9055L122.921 122.003L153.935 99.831L184.95 96.6635L215.965 83.9937L246.98 87.1612L277.995 93.4961L309.011 77.6588L340.024 64.989V150.51H309.011H277.995H246.98H215.965H184.95H153.935H122.921H91.9055H60.8906H45.3831V145.759Z" fill="#DB843D"/>
<path d="M45.3831 145.759L60.8906 134.673H91.9055L122.921 122.003L153.935 99.831L184.95 96.6635L215.965 83.9937L246.98 87.1612L277.995 93.4961L309.011 77.6588L340.024 64.989" stroke="black" stroke-opacity="0.498039" stroke-width="2"/>
<path d="M340.024 150.51H309.011H277.995H246.98H215.965H184.95H153.935H122.921H91.9055H60.8906H45.3831" stroke="black" stroke-opacity="0.498039" stroke-width="2"/>
<path d="M45.3831 147.343L60.8906 141.008H91.9055L122.921 137.84L153.935 122.003L184.95 118.835L215.965 102.998H246.98H277.995L309.011 93.4961L340.024 95.0797V150.51H309.011H277.995H246.98H215.965H184.95H153.935H122.921H91.9055H60.8906H45.3831V147.343Z" fill="#AA4643"/>
<path d="M45.3831 147.343L60.8906 141.008H91.9055L122.921 137.84L153.935 122.003L184.95 118.835L215.965 102.998H246.98H277.995L309.011 93.4961L340.024 95.0797" stroke="black" stroke-opacity="0.498039" stroke-width="2"/>
<path d="M340.024 150.51H309.011H277.995H246.98H215.965H184.95H153.935H122.921H91.9055H60.8906H45.3831" stroke="black" stroke-opacity="0.498039" stroke-width="2"/>
<path d="M45.3831 148.926L60.8906 147.343L91.9055 144.175L122.921 139.424L153.935 129.922L184.95 126.754L215.965 118.835L246.98 125.17L277.995 122.003L309.011 114.084L340.024 122.003V150.51H309.011H277.995H246.98H215.965H184.95H153.935H122.921H91.9055H60.8906H45.3831V148.926Z" fill="#4572A7"/>
<path d="M45.3831 148.926L60.8906 147.343L91.9055 144.175L122.921 139.424L153.935 129.922L184.95 126.754L215.965 118.835L246.98 125.17L277.995 122.003L309.011 114.084L340.024 122.003" stroke="black" stroke-opacity="0.498039" stroke-width="2"/>
<path d="M340.024 150.51H309.011H277.995H246.98H215.965H184.95H153.935H122.921H91.9055H60.8906H45.3831" stroke="black" stroke-opacity="0.498039" stroke-width="2"/>
</svg>
