<svg width="22" height="24" viewBox="0 0 22 24" fill="none" xmlns="http://www.w3.org/2000/svg">
<path d="M10.6562 0C4.76953 0 0 5.20312 0 11.625C0 18.0469 4.76953 23.25 10.6562 23.25C16.543 23.25 21.3125 18.0469 21.3125 11.625C21.3125 5.20312 16.543 0 10.6562 0ZM15.8813 14.6766C16.0832 14.8969 16.0832 15.2531 15.8813 15.4734L14.1797 17.325C13.9777 17.5453 13.6512 17.5453 13.4492 17.325L10.6562 14.25L7.85898 17.325C7.65703 17.5453 7.33047 17.5453 7.12852 17.325L5.43125 15.4688C5.2293 15.2484 5.2293 14.8922 5.43125 14.6719L8.25 11.625L5.43125 8.57344C5.2293 8.35312 5.2293 7.99687 5.43125 7.77656L7.13281 5.92031C7.33477 5.7 7.66133 5.7 7.86328 5.92031L10.6562 9L13.4535 5.925C13.6555 5.70469 13.982 5.70469 14.184 5.925L15.8855 7.78125C16.0875 8.00156 16.0875 8.35781 15.8855 8.57812L13.0625 11.625L15.8813 14.6766Z" fill="#EB5757"/>
</svg>
