<svg width="23" height="23" viewBox="0 0 23 23" fill="none" xmlns="http://www.w3.org/2000/svg">
<path d="M11.5 0C5.14718 0 0 5.14718 0 11.5C0 17.8528 5.14718 23 11.5 23C17.8528 23 23 17.8528 23 11.5C23 5.14718 17.8528 0 11.5 0ZM17.1387 14.5188C17.3567 14.7367 17.3567 15.0891 17.1387 15.3071L15.3024 17.1387C15.0845 17.3567 14.7321 17.3567 14.5141 17.1387L11.5 14.0968L8.48125 17.1387C8.26331 17.3567 7.91089 17.3567 7.69294 17.1387L5.86129 15.3024C5.64335 15.0845 5.64335 14.7321 5.86129 14.5141L8.90323 11.5L5.86129 8.48125C5.64335 8.26331 5.64335 7.91089 5.86129 7.69294L7.69758 5.85665C7.91552 5.63871 8.26794 5.63871 8.48589 5.85665L11.5 8.90323L14.5188 5.86129C14.7367 5.64335 15.0891 5.64335 15.3071 5.86129L17.1433 7.69758C17.3613 7.91552 17.3613 8.26794 17.1433 8.48589L14.0968 11.5L17.1387 14.5188Z" fill="#EB5757"/>
</svg>
