<svg width="43" height="47" viewBox="0 0 43 47" fill="none" xmlns="http://www.w3.org/2000/svg">
<g clip-path="url(#clip0)">
<path d="M38.3929 2.93747H4.60714C3.38525 2.93747 2.21341 3.4017 1.3494 4.22803C0.485394 5.05436 0 6.17511 0 7.34372L0 39.6562C0 40.8249 0.485394 41.9456 1.3494 42.7719C2.21341 43.5983 3.38525 44.0625 4.60714 44.0625H17.7807V30.0809H11.7338V23.5H17.7807V18.4842C17.7807 12.779 21.332 9.62763 26.7713 9.62763C29.3763 9.62763 32.1003 10.0719 32.1003 10.0719V15.6715H29.0989C26.1417 15.6715 25.2193 17.4267 25.2193 19.2268V23.5H31.821L30.7652 30.0809H25.2193V44.0625H38.3929C39.6147 44.0625 40.7866 43.5983 41.6506 42.7719C42.5146 41.9456 43 40.8249 43 39.6562V7.34372C43 6.17511 42.5146 5.05436 41.6506 4.22803C40.7866 3.4017 39.6147 2.93747 38.3929 2.93747Z" fill="#E5E5E5"/>
</g>
<defs>
<clipPath id="clip0">
<rect width="43" height="47" fill="white"/>
</clipPath>
</defs>
</svg>
