<svg width="69" height="69" viewBox="0 0 69 69" fill="none" xmlns="http://www.w3.org/2000/svg">
<rect x="11" y="12" width="47" height="46" fill="#4C4C4C"/>
<path d="M34.5 0C15.4415 0 0 15.4415 0 34.5C0 53.5585 15.4415 69 34.5 69C53.5585 69 69 53.5585 69 34.5C69 15.4415 53.5585 0 34.5 0ZM54.5323 38.3952C54.5323 39.3133 53.781 40.0645 52.8629 40.0645H40.0645V52.8629C40.0645 53.781 39.3133 54.5323 38.3952 54.5323H30.6048C29.6867 54.5323 28.9355 53.781 28.9355 52.8629V40.0645H16.1371C15.219 40.0645 14.4677 39.3133 14.4677 38.3952V30.6048C14.4677 29.6867 15.219 28.9355 16.1371 28.9355H28.9355V16.1371C28.9355 15.219 29.6867 14.4677 30.6048 14.4677H38.3952C39.3133 14.4677 40.0645 15.219 40.0645 16.1371V28.9355H52.8629C53.781 28.9355 54.5323 29.6867 54.5323 30.6048V38.3952Z" fill="#E5E5E5"/>
</svg>
