<svg width="31" height="26" viewBox="0 0 31 26" fill="none" xmlns="http://www.w3.org/2000/svg">
<path d="M1.10714 4.77551H29.8929C30.5043 4.77551 31 4.30041 31 3.71429V1.06122C31 0.475097 30.5043 0 29.8929 0H1.10714C0.495654 0 0 0.475097 0 1.06122V3.71429C0 4.30041 0.495654 4.77551 1.10714 4.77551ZM1.10714 15.3878H29.8929C30.5043 15.3878 31 14.9127 31 14.3265V11.6735C31 11.0873 30.5043 10.6122 29.8929 10.6122H1.10714C0.495654 10.6122 0 11.0873 0 11.6735V14.3265C0 14.9127 0.495654 15.3878 1.10714 15.3878ZM1.10714 26H29.8929C30.5043 26 31 25.5249 31 24.9388V22.2857C31 21.6996 30.5043 21.2245 29.8929 21.2245H1.10714C0.495654 21.2245 0 21.6996 0 22.2857V24.9388C0 25.5249 0.495654 26 1.10714 26Z" fill="#E5E5E5"/>
</svg>
