<?xml version="1.0" encoding="UTF-8" standalone="no"?>
<svg
   xmlns:dc="http://purl.org/dc/elements/1.1/"
   xmlns:cc="http://creativecommons.org/ns#"
   xmlns:rdf="http://www.w3.org/1999/02/22-rdf-syntax-ns#"
   xmlns:svg="http://www.w3.org/2000/svg"
   xmlns="http://www.w3.org/2000/svg"
   xmlns:sodipodi="http://sodipodi.sourceforge.net/DTD/sodipodi-0.dtd"
   xmlns:inkscape="http://www.inkscape.org/namespaces/inkscape"
   width="35"
   height="35"
   viewBox="0 0 35 35"
   version="1.1"
   id="svg991"
   sodipodi:docname="heart-red-shelter.svg"
   style="fill:none"
   inkscape:version="0.92.4 (ce16d395f7, 2020-02-20, custom)">
  <metadata
     id="metadata997">
    <rdf:RDF>
      <cc:Work
         rdf:about="">
        <dc:format>image/svg+xml</dc:format>
        <dc:type
           rdf:resource="http://purl.org/dc/dcmitype/StillImage" />
        <dc:title></dc:title>
      </cc:Work>
    </rdf:RDF>
  </metadata>
  <defs
     id="defs995" />
  <sodipodi:namedview
     pagecolor="#ffffff"
     bordercolor="#666666"
     borderopacity="1"
     objecttolerance="10"
     gridtolerance="10"
     guidetolerance="10"
     inkscape:pageopacity="0"
     inkscape:pageshadow="2"
     inkscape:window-width="2560"
     inkscape:window-height="1358"
     id="namedview993"
     showgrid="false"
     inkscape:zoom="5.3636364"
     inkscape:cx="18.174421"
     inkscape:cy="26.750067"
     inkscape:window-x="0"
     inkscape:window-y="0"
     inkscape:window-maximized="1"
     inkscape:current-layer="svg991" />
  <path
     d="m 34.917108,12.76964 c 0,-5.1656286 -3.908428,-9.353163 -8.729876,-9.353163 -4.8204,0 -8.728678,4.1875344 -8.728678,9.353163 0,-5.1656286 -3.908593,-9.353163 -8.7298158,-9.353163 C 3.9075303,3.416477 0,7.6040114 0,12.76964 0,25.24041 17.458554,34.8854 17.458554,34.8854 c 0,0 17.458554,-9.710387 17.458554,-22.11576 z"
     id="path989"
     inkscape:connector-curvature="0"
     style="fill:#eb5757;stroke-width:1.49650729" />
  <g
     id="g1730"
     transform="matrix(0.06905137,0,0,0.06905137,-207.29001,237.84091)">
    <g
       id="g1655">
	<g
   id="g1653">
		<path
   id="path1651"
   d="M 498.682,435.326 297.917,234.56 63.357,0 H 45.026 l -3.743,9.511 c -9.879,25.104 -14.1,50.78 -12.205,74.249 2.16,26.752 12.323,49.913 29.392,66.982 l 183.11,183.11 24.152,-24.152 169.285,189.293 c 16.84,16.84 45.825,17.84 63.665,0 17.554,-17.554 17.554,-46.114 0,-63.667 z"
   inkscape:connector-curvature="0" />

	</g>

</g>
    <g
       id="g1661">
	<g
   id="g1659">
		<path
   id="path1657"
   d="M 156.728,291.442 13.317,434.853 c -17.552,17.552 -17.552,46.113 0,63.665 16.674,16.674 45.519,18.146 63.665,0 L 220.394,355.106 Z"
   inkscape:connector-curvature="0" />

	</g>

</g>
    <g
       id="g1667">
	<g
   id="g1665">
		<path
   id="path1663"
   d="m 490.253,85.249 -81.351,81.35 -21.223,-21.222 81.351,-81.351 -21.222,-21.222 -81.35,81.35 -21.222,-21.222 81.351,-81.35 -21.221,-21.221 -106.11,106.11 c -12.981,12.981 -20.732,30.217 -21.828,48.535 -0.277,4.641 -1.329,9.206 -3.074,13.548 l 68.929,68.929 c 4.342,-1.747 8.908,-2.798 13.548,-3.075 18.318,-1.093 35.554,-8.846 48.535,-21.827 l 106.11,-106.109 z"
   inkscape:connector-curvature="0" />

	</g>

</g>
    <g
       id="g1669">
</g>
    <g
       id="g1671">
</g>
    <g
       id="g1673">
</g>
    <g
       id="g1675">
</g>
    <g
       id="g1677">
</g>
    <g
       id="g1679">
</g>
    <g
       id="g1681">
</g>
    <g
       id="g1683">
</g>
    <g
       id="g1685">
</g>
    <g
       id="g1687">
</g>
    <g
       id="g1689">
</g>
    <g
       id="g1691">
</g>
    <g
       id="g1693">
</g>
    <g
       id="g1695">
</g>
    <g
       id="g1697">
</g>
  </g>
  <g
     id="g1901"
     transform="matrix(0.03288117,0,0,0.03288117,24.468963,39.567663)"
     style="fill:#ffffff">
    <g
       id="g1826"
       style="fill:#ffffff">
	<g
   id="g1824"
   style="fill:#ffffff">
		<path
   id="path1822"
   d="M 498.682,435.326 297.917,234.56 63.357,0 H 45.026 l -3.743,9.511 c -9.879,25.104 -14.1,50.78 -12.205,74.249 2.16,26.752 12.323,49.913 29.392,66.982 l 183.11,183.11 24.152,-24.152 169.285,189.293 c 16.84,16.84 45.825,17.84 63.665,0 17.554,-17.554 17.554,-46.114 0,-63.667 z"
   inkscape:connector-curvature="0"
   style="fill:#ffffff" />

	</g>

</g>
    <g
       id="g1832"
       style="fill:#ffffff">
	<g
   id="g1830"
   style="fill:#ffffff">
		<path
   id="path1828"
   d="M 156.728,291.442 13.317,434.853 c -17.552,17.552 -17.552,46.113 0,63.665 16.674,16.674 45.519,18.146 63.665,0 L 220.394,355.106 Z"
   inkscape:connector-curvature="0"
   style="fill:#ffffff" />

	</g>

</g>
    <g
       id="g1838"
       style="fill:#ffffff">
	<g
   id="g1836"
   style="fill:#ffffff">
		<path
   id="path1834"
   d="m 490.253,85.249 -81.351,81.35 -21.223,-21.222 81.351,-81.351 -21.222,-21.222 -81.35,81.35 -21.222,-21.222 81.351,-81.35 -21.221,-21.221 -106.11,106.11 c -12.981,12.981 -20.732,30.217 -21.828,48.535 -0.277,4.641 -1.329,9.206 -3.074,13.548 l 68.929,68.929 c 4.342,-1.747 8.908,-2.798 13.548,-3.075 18.318,-1.093 35.554,-8.846 48.535,-21.827 l 106.11,-106.109 z"
   inkscape:connector-curvature="0"
   style="fill:#ffffff" />

	</g>

</g>
    <g
       id="g1840"
       style="fill:#ffffff">
</g>
    <g
       id="g1842"
       style="fill:#ffffff">
</g>
    <g
       id="g1844"
       style="fill:#ffffff">
</g>
    <g
       id="g1846"
       style="fill:#ffffff">
</g>
    <g
       id="g1848"
       style="fill:#ffffff">
</g>
    <g
       id="g1850"
       style="fill:#ffffff">
</g>
    <g
       id="g1852"
       style="fill:#ffffff">
</g>
    <g
       id="g1854"
       style="fill:#ffffff">
</g>
    <g
       id="g1856"
       style="fill:#ffffff">
</g>
    <g
       id="g1858"
       style="fill:#ffffff">
</g>
    <g
       id="g1860"
       style="fill:#ffffff">
</g>
    <g
       id="g1862"
       style="fill:#ffffff">
</g>
    <g
       id="g1864"
       style="fill:#ffffff">
</g>
    <g
       id="g1866"
       style="fill:#ffffff">
</g>
    <g
       id="g1868"
       style="fill:#ffffff">
</g>
  </g>
  <g
     id="g2076"
     transform="matrix(0.03249917,0,0,0.03249917,9.1420618,13.02363)"
     style="fill:#f9f9f9">
    <g
       id="g2010"
       style="fill:#f9f9f9">
	<g
   id="g2008"
   style="fill:#f9f9f9">
		<path
   id="path2006"
   d="M 503.402,228.885 273.684,19.567 C 263.601,10.378 248.396,10.379 238.317,19.566 L 8.598,228.886 c -8.077,7.36 -10.745,18.7 -6.799,28.889 3.947,10.189 13.557,16.772 24.484,16.772 h 36.69 v 209.721 c 0,8.315 6.742,15.057 15.057,15.057 h 125.914 c 8.315,0 15.057,-6.741 15.057,-15.057 V 356.932 h 74.002 v 127.337 c 0,8.315 6.742,15.057 15.057,15.057 h 125.908 c 8.315,0 15.057,-6.741 15.057,-15.057 V 274.547 h 36.697 c 10.926,0 20.537,-6.584 24.484,-16.772 3.941,-10.19 1.273,-21.529 -6.804,-28.89 z"
   inkscape:connector-curvature="0"
   style="fill:#f9f9f9" />

	</g>

</g>
    <g
       id="g2016"
       style="fill:#f9f9f9">
	<g
   id="g2014"
   style="fill:#f9f9f9">
		<path
   id="path2012"
   d="M 445.092,42.73 H 343.973 l 116.176,105.636 v -90.58 c 0,-8.315 -6.741,-15.056 -15.057,-15.056 z"
   inkscape:connector-curvature="0"
   style="fill:#f9f9f9" />

	</g>

</g>
    <g
       id="g2018"
       style="fill:#f9f9f9">
</g>
    <g
       id="g2020"
       style="fill:#f9f9f9">
</g>
    <g
       id="g2022"
       style="fill:#f9f9f9">
</g>
    <g
       id="g2024"
       style="fill:#f9f9f9">
</g>
    <g
       id="g2026"
       style="fill:#f9f9f9">
</g>
    <g
       id="g2028"
       style="fill:#f9f9f9">
</g>
    <g
       id="g2030"
       style="fill:#f9f9f9">
</g>
    <g
       id="g2032"
       style="fill:#f9f9f9">
</g>
    <g
       id="g2034"
       style="fill:#f9f9f9">
</g>
    <g
       id="g2036"
       style="fill:#f9f9f9">
</g>
    <g
       id="g2038"
       style="fill:#f9f9f9">
</g>
    <g
       id="g2040"
       style="fill:#f9f9f9">
</g>
    <g
       id="g2042"
       style="fill:#f9f9f9">
</g>
    <g
       id="g2044"
       style="fill:#f9f9f9">
</g>
    <g
       id="g2046"
       style="fill:#f9f9f9">
</g>
  </g>
</svg>
