<?xml version="1.0" encoding="UTF-8" standalone="no"?>
<svg
   xmlns:dc="http://purl.org/dc/elements/1.1/"
   xmlns:cc="http://creativecommons.org/ns#"
   xmlns:rdf="http://www.w3.org/1999/02/22-rdf-syntax-ns#"
   xmlns:svg="http://www.w3.org/2000/svg"
   xmlns="http://www.w3.org/2000/svg"
   xmlns:sodipodi="http://sodipodi.sourceforge.net/DTD/sodipodi-0.dtd"
   xmlns:inkscape="http://www.inkscape.org/namespaces/inkscape"
   width="35"
   height="35"
   viewBox="0 0 35 35"
   version="1.1"
   id="svg991"
   sodipodi:docname="heart-red-doc.svg"
   style="fill:none"
   inkscape:version="0.92.4 (ce16d395f7, 2020-02-20, custom)">
  <metadata
     id="metadata997">
    <rdf:RDF>
      <cc:Work
         rdf:about="">
        <dc:format>image/svg+xml</dc:format>
        <dc:type
           rdf:resource="http://purl.org/dc/dcmitype/StillImage" />
        <dc:title></dc:title>
      </cc:Work>
    </rdf:RDF>
  </metadata>
  <defs
     id="defs995" />
  <sodipodi:namedview
     pagecolor="#ffffff"
     bordercolor="#666666"
     borderopacity="1"
     objecttolerance="10"
     gridtolerance="10"
     guidetolerance="10"
     inkscape:pageopacity="0"
     inkscape:pageshadow="2"
     inkscape:window-width="2560"
     inkscape:window-height="1358"
     id="namedview993"
     showgrid="false"
     inkscape:zoom="3.7926636"
     inkscape:cx="24.716624"
     inkscape:cy="-12.472369"
     inkscape:window-x="0"
     inkscape:window-y="0"
     inkscape:window-maximized="1"
     inkscape:current-layer="svg991" />
  <path
     d="m 34.917108,12.76964 c 0,-5.1656286 -3.908428,-9.353163 -8.729876,-9.353163 -4.8204,0 -8.728678,4.1875344 -8.728678,9.353163 0,-5.1656286 -3.908593,-9.353163 -8.7298158,-9.353163 C 3.9075303,3.416477 0,7.6040114 0,12.76964 0,25.24041 17.458554,34.8854 17.458554,34.8854 c 0,0 17.458554,-9.710387 17.458554,-22.11576 z"
     id="path989"
     inkscape:connector-curvature="0"
     style="fill:#eb5757;stroke-width:1.49650729" />
  <g
     id="g1730"
     transform="matrix(0.06905137,0,0,0.06905137,-207.29001,237.84091)">
    <g
       id="g1655">
	<g
   id="g1653">
		<path
   id="path1651"
   d="M 498.682,435.326 297.917,234.56 63.357,0 H 45.026 l -3.743,9.511 c -9.879,25.104 -14.1,50.78 -12.205,74.249 2.16,26.752 12.323,49.913 29.392,66.982 l 183.11,183.11 24.152,-24.152 169.285,189.293 c 16.84,16.84 45.825,17.84 63.665,0 17.554,-17.554 17.554,-46.114 0,-63.667 z"
   inkscape:connector-curvature="0" />

	</g>

</g>
    <g
       id="g1661">
	<g
   id="g1659">
		<path
   id="path1657"
   d="M 156.728,291.442 13.317,434.853 c -17.552,17.552 -17.552,46.113 0,63.665 16.674,16.674 45.519,18.146 63.665,0 L 220.394,355.106 Z"
   inkscape:connector-curvature="0" />

	</g>

</g>
    <g
       id="g1667">
	<g
   id="g1665">
		<path
   id="path1663"
   d="m 490.253,85.249 -81.351,81.35 -21.223,-21.222 81.351,-81.351 -21.222,-21.222 -81.35,81.35 -21.222,-21.222 81.351,-81.35 -21.221,-21.221 -106.11,106.11 c -12.981,12.981 -20.732,30.217 -21.828,48.535 -0.277,4.641 -1.329,9.206 -3.074,13.548 l 68.929,68.929 c 4.342,-1.747 8.908,-2.798 13.548,-3.075 18.318,-1.093 35.554,-8.846 48.535,-21.827 l 106.11,-106.109 z"
   inkscape:connector-curvature="0" />

	</g>

</g>
    <g
       id="g1669">
</g>
    <g
       id="g1671">
</g>
    <g
       id="g1673">
</g>
    <g
       id="g1675">
</g>
    <g
       id="g1677">
</g>
    <g
       id="g1679">
</g>
    <g
       id="g1681">
</g>
    <g
       id="g1683">
</g>
    <g
       id="g1685">
</g>
    <g
       id="g1687">
</g>
    <g
       id="g1689">
</g>
    <g
       id="g1691">
</g>
    <g
       id="g1693">
</g>
    <g
       id="g1695">
</g>
    <g
       id="g1697">
</g>
  </g>
  <g
     id="g1901"
     transform="matrix(0.03288117,0,0,0.03288117,24.468963,39.567663)"
     style="fill:#ffffff">
    <g
       id="g1826"
       style="fill:#ffffff">
	<g
   id="g1824"
   style="fill:#ffffff">
		<path
   id="path1822"
   d="M 498.682,435.326 297.917,234.56 63.357,0 H 45.026 l -3.743,9.511 c -9.879,25.104 -14.1,50.78 -12.205,74.249 2.16,26.752 12.323,49.913 29.392,66.982 l 183.11,183.11 24.152,-24.152 169.285,189.293 c 16.84,16.84 45.825,17.84 63.665,0 17.554,-17.554 17.554,-46.114 0,-63.667 z"
   inkscape:connector-curvature="0"
   style="fill:#ffffff" />

	</g>

</g>
    <g
       id="g1832"
       style="fill:#ffffff">
	<g
   id="g1830"
   style="fill:#ffffff">
		<path
   id="path1828"
   d="M 156.728,291.442 13.317,434.853 c -17.552,17.552 -17.552,46.113 0,63.665 16.674,16.674 45.519,18.146 63.665,0 L 220.394,355.106 Z"
   inkscape:connector-curvature="0"
   style="fill:#ffffff" />

	</g>

</g>
    <g
       id="g1838"
       style="fill:#ffffff">
	<g
   id="g1836"
   style="fill:#ffffff">
		<path
   id="path1834"
   d="m 490.253,85.249 -81.351,81.35 -21.223,-21.222 81.351,-81.351 -21.222,-21.222 -81.35,81.35 -21.222,-21.222 81.351,-81.35 -21.221,-21.221 -106.11,106.11 c -12.981,12.981 -20.732,30.217 -21.828,48.535 -0.277,4.641 -1.329,9.206 -3.074,13.548 l 68.929,68.929 c 4.342,-1.747 8.908,-2.798 13.548,-3.075 18.318,-1.093 35.554,-8.846 48.535,-21.827 l 106.11,-106.109 z"
   inkscape:connector-curvature="0"
   style="fill:#ffffff" />

	</g>

</g>
    <g
       id="g1840"
       style="fill:#ffffff">
</g>
    <g
       id="g1842"
       style="fill:#ffffff">
</g>
    <g
       id="g1844"
       style="fill:#ffffff">
</g>
    <g
       id="g1846"
       style="fill:#ffffff">
</g>
    <g
       id="g1848"
       style="fill:#ffffff">
</g>
    <g
       id="g1850"
       style="fill:#ffffff">
</g>
    <g
       id="g1852"
       style="fill:#ffffff">
</g>
    <g
       id="g1854"
       style="fill:#ffffff">
</g>
    <g
       id="g1856"
       style="fill:#ffffff">
</g>
    <g
       id="g1858"
       style="fill:#ffffff">
</g>
    <g
       id="g1860"
       style="fill:#ffffff">
</g>
    <g
       id="g1862"
       style="fill:#ffffff">
</g>
    <g
       id="g1864"
       style="fill:#ffffff">
</g>
    <g
       id="g1866"
       style="fill:#ffffff">
</g>
    <g
       id="g1868"
       style="fill:#ffffff">
</g>
  </g>
  <g
     id="g2076"
     transform="matrix(0.03249917,0,0,0.03249917,-5.9596331,43.786342)"
     style="fill:#f9f9f9">
    <g
       id="g2010"
       style="fill:#f9f9f9">
	<g
   id="g2008"
   style="fill:#f9f9f9">
		<path
   id="path2006"
   d="M 503.402,228.885 273.684,19.567 C 263.601,10.378 248.396,10.379 238.317,19.566 L 8.598,228.886 c -8.077,7.36 -10.745,18.7 -6.799,28.889 3.947,10.189 13.557,16.772 24.484,16.772 h 36.69 v 209.721 c 0,8.315 6.742,15.057 15.057,15.057 h 125.914 c 8.315,0 15.057,-6.741 15.057,-15.057 V 356.932 h 74.002 v 127.337 c 0,8.315 6.742,15.057 15.057,15.057 h 125.908 c 8.315,0 15.057,-6.741 15.057,-15.057 V 274.547 h 36.697 c 10.926,0 20.537,-6.584 24.484,-16.772 3.941,-10.19 1.273,-21.529 -6.804,-28.89 z"
   inkscape:connector-curvature="0"
   style="fill:#f9f9f9" />

	</g>

</g>
    <g
       id="g2016"
       style="fill:#f9f9f9">
	<g
   id="g2014"
   style="fill:#f9f9f9">
		<path
   id="path2012"
   d="M 445.092,42.73 H 343.973 l 116.176,105.636 v -90.58 c 0,-8.315 -6.741,-15.056 -15.057,-15.056 z"
   inkscape:connector-curvature="0"
   style="fill:#f9f9f9" />

	</g>

</g>
    <g
       id="g2018"
       style="fill:#f9f9f9">
</g>
    <g
       id="g2020"
       style="fill:#f9f9f9">
</g>
    <g
       id="g2022"
       style="fill:#f9f9f9">
</g>
    <g
       id="g2024"
       style="fill:#f9f9f9">
</g>
    <g
       id="g2026"
       style="fill:#f9f9f9">
</g>
    <g
       id="g2028"
       style="fill:#f9f9f9">
</g>
    <g
       id="g2030"
       style="fill:#f9f9f9">
</g>
    <g
       id="g2032"
       style="fill:#f9f9f9">
</g>
    <g
       id="g2034"
       style="fill:#f9f9f9">
</g>
    <g
       id="g2036"
       style="fill:#f9f9f9">
</g>
    <g
       id="g2038"
       style="fill:#f9f9f9">
</g>
    <g
       id="g2040"
       style="fill:#f9f9f9">
</g>
    <g
       id="g2042"
       style="fill:#f9f9f9">
</g>
    <g
       id="g2044"
       style="fill:#f9f9f9">
</g>
    <g
       id="g2046"
       style="fill:#f9f9f9">
</g>
  </g>
  <g
     id="Page-1"
     transform="matrix(0.28258148,0,0,0.28258148,-2.7085622,51.712777)"
     style="fill:#ffffff;fill-rule:evenodd;stroke:none;stroke-width:1">
    <g
       transform="translate(0,-1)"
       id="050---Human-Brain"
       style="fill:#ffffff;fill-rule:nonzero">
      <path
         id="Shape"
         d="M 55,24.067 C 55.05892,21.201157 54.706328,18.341687 53.953,15.576 52.942425,12.138465 50.844966,9.1210423 47.975,6.976 42.33,2.553 37.054,0.72 30.886,1.033 27.632343,1.2583265 24.399441,1.7205515 21.213,2.416 16.702,3.323 13.425,4.909 11.194,7.265 9.4259914,9.1476944 8.0608029,11.3714 7.182,13.8 6.8095004,14.870073 6.5062077,15.962995 6.274,17.072 l -0.08,0.346 c -0.2106194,0.778897 -0.4949015,1.535979 -0.849,2.261 -0.206,0.462 -0.413,0.924 -0.592,1.4 -0.2318344,0.528142 -0.3244473,1.106886 -0.269,1.681 0.2034579,0.89331 0.7212799,1.683707 1.459,2.227 0.491,0.45 0.813,0.765 0.816,1.053 -0.039099,0.149161 -0.097953,0.292428 -0.175,0.426 -1.1975521,2.524988 -2.6654716,4.91262 -4.378,7.121 -0.718,0.877 -1.47,1.9 -1.317,2.939 0.2185492,0.788483 0.7392081,1.45898 1.449,1.866 0.3308853,0.227851 0.6796939,0.428507 1.043,0.6 0.431,0.22 1.154,0.588 1.2,0.853 0.064811,0.33672 0.026833,0.68515 -0.109,1 -0.149,0.312 -0.3,0.582 -0.435,0.817 -0.367,0.649 -0.982,1.737 -0.057,2.515 0.216,0.19 0.586,0.481 0.924,0.74 -0.2497486,0.439231 -0.3619209,0.943309 -0.322,1.447 0.054274,0.391496 0.2672932,0.743393 0.589,0.973 0.224,0.159 0.463,0.3 0.7,0.432 0.588,0.335 0.817,0.492 0.9,0.8 0.053958,0.407349 0.017076,0.821591 -0.108,1.213 -0.058,0.263 -0.114,0.525 -0.149,0.787 -0.1013319,0.909549 0.013446,1.830174 0.335,2.687 0.5170939,1.90053 2.4324264,3.06283 4.357,2.644 2.855369,-0.688522 5.671469,-1.530748 8.436,-2.523 2.248,1.328 3.669,5.345 4.039,6.852 0.109602,0.447279 0.510489,0.761878 0.971,0.762 l 25.1,-0.069 c 0.316597,-9.85e-4 0.614027,-0.151835 0.801867,-0.40669 0.187839,-0.254855 0.243898,-0.583606 0.151133,-0.88631 -0.247918,-0.682457 -0.590971,-1.326483 -1.019,-1.913 -0.236354,-0.33926 -0.450148,-0.693691 -0.64,-1.061 -0.450814,-0.922344 -0.828638,-1.878606 -1.13,-2.86 -0.570781,-1.931634 -0.965065,-3.911087 -1.178,-5.914 -0.354377,-2.990285 0.09722,-6.020938 1.308,-8.778 0.740147,-1.526663 1.650961,-2.964509 2.715,-4.286 0.6,-0.813 1.227,-1.653 1.789,-2.54 1.578081,-2.449244 2.427741,-5.296473 2.45,-8.21 z m -5.844,9.567 c -1.155326,1.442413 -2.142371,3.011888 -2.942,4.678 -1.353168,3.084005 -1.857238,6.473699 -1.46,9.818 0.223919,2.121556 0.640982,4.21825 1.246,6.264 0.331449,1.077828 0.746026,2.128313 1.24,3.142 0.227474,0.447293 0.485067,0.878619 0.771,1.291 L 48.083,58.936 25.408,59 c -0.666104,-2.372904 -1.872615,-4.559342 -3.525,-6.388 0.255,-0.089 0.5,-0.172 0.721,-0.252 0.758,-0.265 1.331,-0.466 1.617,-0.556 4.287,-1.346 6.431,-3.294 6.373,-5.791 -0.03246,-0.543739 -0.479336,-0.970104 -1.024,-0.977 -0.265242,0.0063 -0.517112,0.117727 -0.700164,0.309781 -0.183051,0.192055 -0.282278,0.448981 -0.275836,0.714219 0.024,1.03 -0.819,2.532 -4.974,3.836 -0.3,0.094 -0.891,0.3 -1.678,0.577 -0.713,0.25 -1.588,0.556 -2.545,0.883 C 16.580124,52.374812 13.710278,53.24074 10.8,53.95 9.8630489,54.13055 8.9511242,53.537622 8.736,52.608 8.520059,52.046619 8.4375549,51.442731 8.495,50.844 8.522,50.637 8.569,50.43 8.615,50.222 8.8201812,49.527999 8.8524527,48.794337 8.709,48.085 8.4219375,47.166823 7.7485058,46.41962 6.865,46.039 L 6.651,45.916 C 6.7580903,45.697623 6.8863729,45.490295 7.034,45.297 7.2003592,45.08455 7.2738016,44.813886 7.2376459,44.546484 7.2014903,44.279083 7.0588056,44.037642 6.842,43.877 6.602,43.699 6.03,43.271 5.62,42.942 5.671,42.849 5.728,42.742 5.781,42.653 5.935,42.382 6.11,42.069 6.281,41.712 6.6008346,41.012726 6.6948581,40.231178 6.55,39.476 6.317,38.249 5.15,37.651 4.289,37.215 3.9987137,37.077424 3.7204146,36.915864 3.457,36.732 3.2497263,36.587789 3.0532085,36.428703 2.869,36.256 c 0,-0.15 0.16,-0.516 0.929,-1.455 1.7867491,-2.303755 3.318685,-4.794282 4.569,-7.428 0.2407714,-0.412273 0.3754639,-0.877856 0.392,-1.355 -0.1019369,-1.006596 -0.6366526,-1.91908 -1.465,-2.5 -0.4,-0.37 -0.786,-0.72 -0.829,-1.028 0.00397,-0.241934 0.058466,-0.480367 0.16,-0.7 0.164,-0.434 0.355,-0.86 0.546,-1.286 0.4076558,-0.841253 0.7328418,-1.720025 0.971,-2.624 l 0.081,-0.349 c 0.2135467,-1.02652 0.4927879,-2.038268 0.836,-3.029 0.7838393,-2.177957 2.004476,-4.172764 3.587,-5.862 1.937,-2.04 4.869,-3.44 8.961,-4.263 3.090095,-0.6762626 6.225422,-1.1261239 9.381,-1.346 5.658,-0.3 10.515,1.414 15.751,5.522 2.54425,1.8758 4.401813,4.535486 5.287,7.57 0.701575,2.578165 1.029584,5.24366 0.974,7.915 -0.01752,2.547462 -0.759397,5.037373 -2.139,7.179 -0.524,0.822 -1.126,1.633 -1.708,2.417 z"
         inkscape:connector-curvature="0"
         style="fill:#ffffff" />
      <path
         id="path2168"
         d="m 21,18 h 1 c 0.552285,0 1,-0.447715 1,-1 0,-0.552285 -0.447715,-1 -1,-1 h -1 c -1.656854,0 -3,1.343146 -3,3 v 1 c 0,1.656854 1.343146,3 3,3 h 1 c 0.552285,0 1,-0.447715 1,-1 0,-0.552285 -0.447715,-1 -1,-1 h -1 c -0.552285,0 -1,-0.447715 -1,-1 v -1 c 0,-0.552285 0.447715,-1 1,-1 z"
         inkscape:connector-curvature="0"
         style="fill:#ffffff" />
      <path
         id="path2170"
         d="m 28,15 c -0.552285,0 -1,0.447715 -1,1 v 2 c 0,0.552285 -0.447715,1 -1,1 h -1 c -0.552285,0 -1,0.447715 -1,1 0,0.552285 0.447715,1 1,1 h 1 c 1.656854,0 3,-1.343146 3,-3 v -2 c 0,-0.552285 -0.447715,-1 -1,-1 z"
         inkscape:connector-curvature="0"
         style="fill:#ffffff" />
      <path
         id="path2172"
         d="m 32,15 v -1 c 0,-1.656854 -1.343146,-3 -3,-3 h -2 c -1.656854,0 -3,1.343146 -3,3 v 1 c 0,0.552285 0.447715,1 1,1 0.552285,0 1,-0.447715 1,-1 v -1 c 0,-0.552285 0.447715,-1 1,-1 h 2 c 0.552285,0 1,0.447715 1,1 v 1 c 0,0.552285 0.447715,1 1,1 0.552285,0 1,-0.447715 1,-1 z"
         inkscape:connector-curvature="0"
         style="fill:#ffffff" />
      <path
         id="path2174"
         d="m 35,22 h -1 c -0.552285,0 -1,-0.447715 -1,-1 v -1 c 0,-0.552285 -0.447715,-1 -1,-1 -0.552285,0 -1,0.447715 -1,1 v 1 c 0,1.656854 1.343146,3 3,3 h 1 c 0.552285,0 1,-0.447715 1,-1 0,-0.552285 -0.447715,-1 -1,-1 z"
         inkscape:connector-curvature="0"
         style="fill:#ffffff" />
      <path
         id="path2176"
         d="m 40,19 c 0,-0.552285 -0.447715,-1 -1,-1 h -1 c -0.552285,0 -1,-0.447715 -1,-1 0,-0.552285 0.447715,-1 1,-1 h 1 c 0.552285,0 1,-0.447715 1,-1 0,-0.552285 -0.447715,-1 -1,-1 h -1 c -1.656854,0 -3,1.343146 -3,3 0,1.656854 1.343146,3 3,3 h 1 c 0.552285,0 1,-0.447715 1,-1 z"
         inkscape:connector-curvature="0"
         style="fill:#ffffff" />
      <path
         id="path2178"
         d="m 43,19 c -0.552285,0 -1,0.447715 -1,1 v 2 c 0,0.552285 -0.447715,1 -1,1 h -1 c -0.552285,0 -1,0.447715 -1,1 0,0.552285 0.447715,1 1,1 h 1 c 1.656854,0 3,-1.343146 3,-3 v -2 c 0,-0.552285 -0.447715,-1 -1,-1 z"
         inkscape:connector-curvature="0"
         style="fill:#ffffff" />
      <path
         id="path2180"
         d="m 50.96,22 c 0,-0.016 -0.008,-0.029 -0.009,-0.045 C 50.86133,20.16807 50.57698,18.396255 50.103,16.671 49.330047,14.046583 47.716313,11.748778 45.51,10.131 40.987,6.583 36.886,5 32.209,5 31.841,5 31.469,5.01 31.088,5.028 30.747,5.046 30.406,5.085 30.065,5.113 30.042,5.113 30.023,5.1 30,5.1 29.947528,5.1057928 29.895664,5.1161657 29.845,5.131 27.20935,5.3852251 24.590174,5.788201 22,6.338 20.864055,6.5617297 19.74631,6.8695776 18.656,7.259 18.633,7.268 18.61,7.273 18.588,7.283 16.902115,7.8375699 15.366481,8.7727054 14.1,10.016 c -1.225989,1.316675 -2.202519,2.84517 -2.882,4.511 -0.03068,0.05643 -0.0558,0.115707 -0.075,0.177 -0.067,0.164 -0.144,0.319 -0.206,0.486 -0.307,0.833 -0.79,2.907 -0.851,3.168 -0.225,1.119 -0.783,4.954 1.486,7.36 1.44,1.526 3.642,2.09 6.534,1.68 l 1.346,-0.192 c 6.416,-0.923 9.636,-1.386 12.407,1.324 0.533,0.521 1.079,1.053 1.647,1.57 -0.629,1.978 -1.445,6.2 1.9,8.7 C 39,41.5 39,42.231 39,44 c -0.0019,0.347507 0.176743,0.671085 0.471834,0.854624 C 39.766924,45.038163 40.136141,45.055343 40.447,44.9 40.709,44.764 43,43.488 43,39 c 0,-2.455 1.83,-4.577 3.637,-6.333 l 0.03,-0.027 c 0.979873,-0.672634 1.827366,-1.520127 2.5,-2.5 0.725472,-1.143614 1.244361,-2.405803 1.533,-3.729 0.0591,-0.128969 0.08979,-0.269134 0.09,-0.411 0.125602,-0.655946 0.195849,-1.321287 0.21,-1.989 0.01,-0.671 -0.005,-1.336 -0.041,-1.993 8e-4,-0.006 0.0011,-0.01198 10e-4,-0.018 z M 41,39 c 0.01696,0.831703 -0.101934,1.660599 -0.352,2.454 -0.467,-1.169 -1.549,-2.38 -4.048,-4.255 -1.987,-1.488 -1.847,-3.962 -1.418,-5.7 1.873539,1.503874 4.197684,2.335284 6.6,2.361 0.389568,-0.0029 0.778738,-0.02558 1.166,-0.068 C 41.746452,35.268172 41.062154,37.097649 41,39 Z m 6.48,-9.926 c -0.699862,1.048979 -1.689739,1.871734 -2.849,2.368 C 42.795661,32.032834 40.816899,32.003316 39,31.358 V 30 c 0,-0.552285 0.447715,-1 1,-1 h 3 c 0.552285,0 1,-0.447715 1,-1 0,-0.552285 -0.447715,-1 -1,-1 h -3 c -1.656854,0 -3,1.343146 -3,3 v 0.311 C 35.656872,29.356824 34.403369,28.282393 33.255,27.101 32.093985,25.924167 30.615509,25.110745 29,24.76 V 24 c 0,-0.552285 -0.447715,-1 -1,-1 -0.552285,0 -1,0.447715 -1,1 v 0.516 c -2.627533,0.0053 -5.249438,0.24321 -7.835,0.711 l -1.342,0.191 C 17.219672,25.5069 16.609272,25.538376 16,25.512 V 25 c 0,-0.552285 -0.447715,-1 -1,-1 -0.552285,0 -1,0.447715 -1,1 v 0.048 C 13.634831,24.875415 13.303848,24.638273 13.023,24.348 12.449859,23.684979 12.083139,22.86881 11.968,22 H 13 c 1.656854,0 3,-1.343146 3,-3 0,-0.552285 -0.447715,-1 -1,-1 -0.552285,0 -1,0.447715 -1,1 0,0.552285 -0.447715,1 -1,1 h -1.121 c 0.0272,-0.409284 0.08031,-0.816433 0.159,-1.219 0.131,-0.568 0.5,-2.1 0.733,-2.781 H 16 c 0.552285,0 1,-0.447715 1,-1 0,-0.552285 -0.447715,-1 -1,-1 h -2.318 c 0.507056,-0.946641 1.134612,-1.823606 1.867,-2.609 C 16.2571,10.682043 17.087428,10.106809 18,9.693 V 11 c 0,1.656854 1.343146,3 3,3 0.552285,0 1,-0.447715 1,-1 0,-0.552285 -0.447715,-1 -1,-1 -0.552285,0 -1,-0.447715 -1,-1 V 8.91 C 20.78853,8.6639447 21.589679,8.4603195 22.4,8.3 23.252,8.128 24.124,7.963 25,7.806 V 8 c 0,0.5522848 0.447715,1 1,1 0.552285,0 1,-0.4477152 1,-1 V 7.473 c 0.666,-0.1 1.333,-0.192 2,-0.265 V 8 c 0,0.5522848 0.447715,1 1,1 0.552285,0 1,-0.4477152 1,-1 V 7.042 c 0.063,0 0.127,-0.012 0.189,-0.016 C 31.807,7 32.408,7 33,7.025 V 11 c 0,0.552285 0.447715,1 1,1 h 2 c 0.552285,0 1,-0.447715 1,-1 0,-0.552285 -0.447715,-1 -1,-1 H 35 V 7.243 c 1.74967,0.2965163 3.441519,0.8675533 5.013,1.692 C 40.013,8.958 40,8.977 40,9 v 3 c 0,0.552285 0.447715,1 1,1 0.552285,0 1,-0.447715 1,-1 v -1.91 c 0.656,0.425 1.32,0.889 2,1.412 V 14 c 0,0.552285 -0.447715,1 -1,1 -0.552285,0 -1,0.447715 -1,1 0,0.552285 0.447715,1 1,1 1.656854,0 3,-1.343146 3,-3 v -0.685 c 1.016291,1.115345 1.761914,2.449869 2.179,3.9 0.339074,1.239049 0.567964,2.505645 0.684,3.785 H 47 c -0.552285,0 -1,0.447715 -1,1 0,0.552285 0.447715,1 1,1 h 1.979 c 0.007,0.327 0.023,0.652 0.018,0.982 C 48.992,24.33 48.954,24.665 48.916,25 H 47 c -0.552285,0 -1,0.447715 -1,1 0,0.552285 0.447715,1 1,1 h 1.464 c -0.245445,0.727564 -0.57572,1.423692 -0.984,2.074 z"
         inkscape:connector-curvature="0"
         style="fill:#ffffff" />
    </g>
  </g>
  <g
     id="g2412"
     transform="matrix(0.03645691,0,0,0.03645691,9.6788056,10.946539)"
     style="fill:#ffffff">
    <path
       id="path2408"
       d="M 498.862,45.865 C 486.467,29.432 467.553,20.008 446.969,20.008 h -8.714 v -5 c 0,-8.284 -6.716,-15 -15,-15 -8.284,0 -15,6.716 -15,15 v 40 c 0,8.284 6.716,15 15,15 8.284,0 15,-6.716 15,-15 v -5 h 8.714 c 11.083,0 21.268,5.075 27.942,13.923 6.674,8.848 8.756,20.035 5.711,30.692 L 440.81,233.965 c -11.11,38.885 -47.114,66.042 -87.555,66.042 -40.441,0 -76.445,-27.158 -87.555,-66.042 L 225.889,94.622 c -3.045,-10.657 -0.963,-21.844 5.711,-30.692 6.674,-8.849 16.859,-13.923 27.942,-13.923 h 8.713 v 5 c 0,8.284 6.716,15 15,15 8.284,0 15,-6.716 15,-15 v -40 c 0,-8.284 -6.716,-15 -15,-15 -8.284,0 -15,6.716 -15,15 v 5 h -8.713 c -20.583,0 -39.498,9.425 -51.893,25.857 -12.396,16.433 -16.261,37.208 -10.606,56.999 l 39.812,139.342 c 7.286,25.5 22.328,47.419 43.5,63.39 4.538,3.423 9.271,6.478 14.153,9.2 l 43.748,103.258 v 10.826 c 0,29.295 -23.833,53.128 -53.128,53.128 C 255.833,482.007 232,458.174 232,428.879 V 326.007 c 0,-47.42 -38.58,-86 -86,-86 -47.42,0 -86,38.58 -86,86 v 35.509 c -34.192,6.968 -60,37.271 -60,73.491 0,41.355 33.645,75 75,75 41.355,0 75,-33.645 75,-75 0,-36.219 -25.808,-66.522 -60,-73.491 v -35.509 c 0,-30.878 25.122,-56 56,-56 30.878,0 56,25.122 56,56 v 102.872 c 0,45.837 37.291,83.128 83.128,83.128 45.837,0 83.128,-37.291 83.128,-83.128 v -10.826 l 43.749,-103.258 c 4.882,-2.722 9.615,-5.777 14.152,-9.2 21.172,-15.97 36.214,-37.89 43.5,-63.39 l 39.812,-139.342 c 5.655,-19.79 1.788,-40.566 -10.607,-56.998 z M 120,435.007 c 0,24.813 -20.187,45 -45,45 -24.813,0 -45,-20.187 -45,-45 0,-24.813 20.187,-45 45,-45 24.813,0 45,20.187 45,45 z m 233.256,-58.451 -20.452,-48.273 c 6.697,1.135 13.529,1.724 20.453,1.724 6.924,0 13.755,-0.589 20.452,-1.724 z"
       inkscape:connector-curvature="0"
       style="fill:#ffffff" />
    <circle
       id="circle2410"
       r="15"
       cy="435.00699"
       cx="75"
       style="fill:#ffffff" />
  </g>
</svg>
