<?xml version="1.0" encoding="UTF-8" standalone="no"?>
<svg
   xmlns:dc="http://purl.org/dc/elements/1.1/"
   xmlns:cc="http://creativecommons.org/ns#"
   xmlns:rdf="http://www.w3.org/1999/02/22-rdf-syntax-ns#"
   xmlns:svg="http://www.w3.org/2000/svg"
   xmlns="http://www.w3.org/2000/svg"
   xmlns:sodipodi="http://sodipodi.sourceforge.net/DTD/sodipodi-0.dtd"
   xmlns:inkscape="http://www.inkscape.org/namespaces/inkscape"
   width="35"
   height="35"
   viewBox="0 0 35 35"
   version="1.1"
   id="svg991"
   sodipodi:docname="heart-red-companion.svg"
   style="fill:none"
   inkscape:version="0.92.4 (ce16d395f7, 2020-02-20, custom)">
  <metadata
     id="metadata997">
    <rdf:RDF>
      <cc:Work
         rdf:about="">
        <dc:format>image/svg+xml</dc:format>
        <dc:type
           rdf:resource="http://purl.org/dc/dcmitype/StillImage" />
        <dc:title></dc:title>
      </cc:Work>
    </rdf:RDF>
  </metadata>
  <defs
     id="defs995" />
  <sodipodi:namedview
     pagecolor="#ffffff"
     bordercolor="#666666"
     borderopacity="1"
     objecttolerance="10"
     gridtolerance="10"
     guidetolerance="10"
     inkscape:pageopacity="0"
     inkscape:pageshadow="2"
     inkscape:window-width="2560"
     inkscape:window-height="1358"
     id="namedview993"
     showgrid="false"
     inkscape:zoom="15.170655"
     inkscape:cx="15.164729"
     inkscape:cy="-7.1688659"
     inkscape:window-x="0"
     inkscape:window-y="0"
     inkscape:window-maximized="1"
     inkscape:current-layer="svg991" />
  <path
     d="m 34.917108,12.76964 c 0,-5.1656286 -3.908428,-9.353163 -8.729876,-9.353163 -4.8204,0 -8.728678,4.1875344 -8.728678,9.353163 0,-5.1656286 -3.908593,-9.353163 -8.7298158,-9.353163 C 3.9075303,3.416477 0,7.6040114 0,12.76964 0,25.24041 17.458554,34.8854 17.458554,34.8854 c 0,0 17.458554,-9.710387 17.458554,-22.11576 z"
     id="path989"
     inkscape:connector-curvature="0"
     style="fill:#eb5757;stroke-width:1.49650729" />
  <g
     id="g1730"
     transform="matrix(0.06905137,0,0,0.06905137,-207.29001,237.84091)">
    <g
       id="g1655">
	<g
   id="g1653">
		<path
   id="path1651"
   d="M 498.682,435.326 297.917,234.56 63.357,0 H 45.026 l -3.743,9.511 c -9.879,25.104 -14.1,50.78 -12.205,74.249 2.16,26.752 12.323,49.913 29.392,66.982 l 183.11,183.11 24.152,-24.152 169.285,189.293 c 16.84,16.84 45.825,17.84 63.665,0 17.554,-17.554 17.554,-46.114 0,-63.667 z"
   inkscape:connector-curvature="0" />

	</g>

</g>
    <g
       id="g1661">
	<g
   id="g1659">
		<path
   id="path1657"
   d="M 156.728,291.442 13.317,434.853 c -17.552,17.552 -17.552,46.113 0,63.665 16.674,16.674 45.519,18.146 63.665,0 L 220.394,355.106 Z"
   inkscape:connector-curvature="0" />

	</g>

</g>
    <g
       id="g1667">
	<g
   id="g1665">
		<path
   id="path1663"
   d="m 490.253,85.249 -81.351,81.35 -21.223,-21.222 81.351,-81.351 -21.222,-21.222 -81.35,81.35 -21.222,-21.222 81.351,-81.35 -21.221,-21.221 -106.11,106.11 c -12.981,12.981 -20.732,30.217 -21.828,48.535 -0.277,4.641 -1.329,9.206 -3.074,13.548 l 68.929,68.929 c 4.342,-1.747 8.908,-2.798 13.548,-3.075 18.318,-1.093 35.554,-8.846 48.535,-21.827 l 106.11,-106.109 z"
   inkscape:connector-curvature="0" />

	</g>

</g>
    <g
       id="g1669">
</g>
    <g
       id="g1671">
</g>
    <g
       id="g1673">
</g>
    <g
       id="g1675">
</g>
    <g
       id="g1677">
</g>
    <g
       id="g1679">
</g>
    <g
       id="g1681">
</g>
    <g
       id="g1683">
</g>
    <g
       id="g1685">
</g>
    <g
       id="g1687">
</g>
    <g
       id="g1689">
</g>
    <g
       id="g1691">
</g>
    <g
       id="g1693">
</g>
    <g
       id="g1695">
</g>
    <g
       id="g1697">
</g>
  </g>
  <g
     id="g1901"
     transform="matrix(0.03288117,0,0,0.03288117,24.468963,39.567663)"
     style="fill:#ffffff">
    <g
       id="g1826"
       style="fill:#ffffff">
	<g
   id="g1824"
   style="fill:#ffffff">
		<path
   id="path1822"
   d="M 498.682,435.326 297.917,234.56 63.357,0 H 45.026 l -3.743,9.511 c -9.879,25.104 -14.1,50.78 -12.205,74.249 2.16,26.752 12.323,49.913 29.392,66.982 l 183.11,183.11 24.152,-24.152 169.285,189.293 c 16.84,16.84 45.825,17.84 63.665,0 17.554,-17.554 17.554,-46.114 0,-63.667 z"
   inkscape:connector-curvature="0"
   style="fill:#ffffff" />

	</g>

</g>
    <g
       id="g1832"
       style="fill:#ffffff">
	<g
   id="g1830"
   style="fill:#ffffff">
		<path
   id="path1828"
   d="M 156.728,291.442 13.317,434.853 c -17.552,17.552 -17.552,46.113 0,63.665 16.674,16.674 45.519,18.146 63.665,0 L 220.394,355.106 Z"
   inkscape:connector-curvature="0"
   style="fill:#ffffff" />

	</g>

</g>
    <g
       id="g1838"
       style="fill:#ffffff">
	<g
   id="g1836"
   style="fill:#ffffff">
		<path
   id="path1834"
   d="m 490.253,85.249 -81.351,81.35 -21.223,-21.222 81.351,-81.351 -21.222,-21.222 -81.35,81.35 -21.222,-21.222 81.351,-81.35 -21.221,-21.221 -106.11,106.11 c -12.981,12.981 -20.732,30.217 -21.828,48.535 -0.277,4.641 -1.329,9.206 -3.074,13.548 l 68.929,68.929 c 4.342,-1.747 8.908,-2.798 13.548,-3.075 18.318,-1.093 35.554,-8.846 48.535,-21.827 l 106.11,-106.109 z"
   inkscape:connector-curvature="0"
   style="fill:#ffffff" />

	</g>

</g>
    <g
       id="g1840"
       style="fill:#ffffff">
</g>
    <g
       id="g1842"
       style="fill:#ffffff">
</g>
    <g
       id="g1844"
       style="fill:#ffffff">
</g>
    <g
       id="g1846"
       style="fill:#ffffff">
</g>
    <g
       id="g1848"
       style="fill:#ffffff">
</g>
    <g
       id="g1850"
       style="fill:#ffffff">
</g>
    <g
       id="g1852"
       style="fill:#ffffff">
</g>
    <g
       id="g1854"
       style="fill:#ffffff">
</g>
    <g
       id="g1856"
       style="fill:#ffffff">
</g>
    <g
       id="g1858"
       style="fill:#ffffff">
</g>
    <g
       id="g1860"
       style="fill:#ffffff">
</g>
    <g
       id="g1862"
       style="fill:#ffffff">
</g>
    <g
       id="g1864"
       style="fill:#ffffff">
</g>
    <g
       id="g1866"
       style="fill:#ffffff">
</g>
    <g
       id="g1868"
       style="fill:#ffffff">
</g>
  </g>
  <g
     id="g2076"
     transform="matrix(0.03249917,0,0,0.03249917,-5.9596331,43.786342)"
     style="fill:#f9f9f9">
    <g
       id="g2010"
       style="fill:#f9f9f9">
	<g
   id="g2008"
   style="fill:#f9f9f9">
		<path
   id="path2006"
   d="M 503.402,228.885 273.684,19.567 C 263.601,10.378 248.396,10.379 238.317,19.566 L 8.598,228.886 c -8.077,7.36 -10.745,18.7 -6.799,28.889 3.947,10.189 13.557,16.772 24.484,16.772 h 36.69 v 209.721 c 0,8.315 6.742,15.057 15.057,15.057 h 125.914 c 8.315,0 15.057,-6.741 15.057,-15.057 V 356.932 h 74.002 v 127.337 c 0,8.315 6.742,15.057 15.057,15.057 h 125.908 c 8.315,0 15.057,-6.741 15.057,-15.057 V 274.547 h 36.697 c 10.926,0 20.537,-6.584 24.484,-16.772 3.941,-10.19 1.273,-21.529 -6.804,-28.89 z"
   inkscape:connector-curvature="0"
   style="fill:#f9f9f9" />

	</g>

</g>
    <g
       id="g2016"
       style="fill:#f9f9f9">
	<g
   id="g2014"
   style="fill:#f9f9f9">
		<path
   id="path2012"
   d="M 445.092,42.73 H 343.973 l 116.176,105.636 v -90.58 c 0,-8.315 -6.741,-15.056 -15.057,-15.056 z"
   inkscape:connector-curvature="0"
   style="fill:#f9f9f9" />

	</g>

</g>
    <g
       id="g2018"
       style="fill:#f9f9f9">
</g>
    <g
       id="g2020"
       style="fill:#f9f9f9">
</g>
    <g
       id="g2022"
       style="fill:#f9f9f9">
</g>
    <g
       id="g2024"
       style="fill:#f9f9f9">
</g>
    <g
       id="g2026"
       style="fill:#f9f9f9">
</g>
    <g
       id="g2028"
       style="fill:#f9f9f9">
</g>
    <g
       id="g2030"
       style="fill:#f9f9f9">
</g>
    <g
       id="g2032"
       style="fill:#f9f9f9">
</g>
    <g
       id="g2034"
       style="fill:#f9f9f9">
</g>
    <g
       id="g2036"
       style="fill:#f9f9f9">
</g>
    <g
       id="g2038"
       style="fill:#f9f9f9">
</g>
    <g
       id="g2040"
       style="fill:#f9f9f9">
</g>
    <g
       id="g2042"
       style="fill:#f9f9f9">
</g>
    <g
       id="g2044"
       style="fill:#f9f9f9">
</g>
    <g
       id="g2046"
       style="fill:#f9f9f9">
</g>
  </g>
  <g
     id="Page-1"
     transform="matrix(0.28258148,0,0,0.28258148,-2.7085622,51.712777)"
     style="fill:#ffffff;fill-rule:evenodd;stroke:none;stroke-width:1">
    <g
       transform="translate(0,-1)"
       id="050---Human-Brain"
       style="fill:#ffffff;fill-rule:nonzero">
      <path
         id="Shape"
         d="M 55,24.067 C 55.05892,21.201157 54.706328,18.341687 53.953,15.576 52.942425,12.138465 50.844966,9.1210423 47.975,6.976 42.33,2.553 37.054,0.72 30.886,1.033 27.632343,1.2583265 24.399441,1.7205515 21.213,2.416 16.702,3.323 13.425,4.909 11.194,7.265 9.4259914,9.1476944 8.0608029,11.3714 7.182,13.8 6.8095004,14.870073 6.5062077,15.962995 6.274,17.072 l -0.08,0.346 c -0.2106194,0.778897 -0.4949015,1.535979 -0.849,2.261 -0.206,0.462 -0.413,0.924 -0.592,1.4 -0.2318344,0.528142 -0.3244473,1.106886 -0.269,1.681 0.2034579,0.89331 0.7212799,1.683707 1.459,2.227 0.491,0.45 0.813,0.765 0.816,1.053 -0.039099,0.149161 -0.097953,0.292428 -0.175,0.426 -1.1975521,2.524988 -2.6654716,4.91262 -4.378,7.121 -0.718,0.877 -1.47,1.9 -1.317,2.939 0.2185492,0.788483 0.7392081,1.45898 1.449,1.866 0.3308853,0.227851 0.6796939,0.428507 1.043,0.6 0.431,0.22 1.154,0.588 1.2,0.853 0.064811,0.33672 0.026833,0.68515 -0.109,1 -0.149,0.312 -0.3,0.582 -0.435,0.817 -0.367,0.649 -0.982,1.737 -0.057,2.515 0.216,0.19 0.586,0.481 0.924,0.74 -0.2497486,0.439231 -0.3619209,0.943309 -0.322,1.447 0.054274,0.391496 0.2672932,0.743393 0.589,0.973 0.224,0.159 0.463,0.3 0.7,0.432 0.588,0.335 0.817,0.492 0.9,0.8 0.053958,0.407349 0.017076,0.821591 -0.108,1.213 -0.058,0.263 -0.114,0.525 -0.149,0.787 -0.1013319,0.909549 0.013446,1.830174 0.335,2.687 0.5170939,1.90053 2.4324264,3.06283 4.357,2.644 2.855369,-0.688522 5.671469,-1.530748 8.436,-2.523 2.248,1.328 3.669,5.345 4.039,6.852 0.109602,0.447279 0.510489,0.761878 0.971,0.762 l 25.1,-0.069 c 0.316597,-9.85e-4 0.614027,-0.151835 0.801867,-0.40669 0.187839,-0.254855 0.243898,-0.583606 0.151133,-0.88631 -0.247918,-0.682457 -0.590971,-1.326483 -1.019,-1.913 -0.236354,-0.33926 -0.450148,-0.693691 -0.64,-1.061 -0.450814,-0.922344 -0.828638,-1.878606 -1.13,-2.86 -0.570781,-1.931634 -0.965065,-3.911087 -1.178,-5.914 -0.354377,-2.990285 0.09722,-6.020938 1.308,-8.778 0.740147,-1.526663 1.650961,-2.964509 2.715,-4.286 0.6,-0.813 1.227,-1.653 1.789,-2.54 1.578081,-2.449244 2.427741,-5.296473 2.45,-8.21 z m -5.844,9.567 c -1.155326,1.442413 -2.142371,3.011888 -2.942,4.678 -1.353168,3.084005 -1.857238,6.473699 -1.46,9.818 0.223919,2.121556 0.640982,4.21825 1.246,6.264 0.331449,1.077828 0.746026,2.128313 1.24,3.142 0.227474,0.447293 0.485067,0.878619 0.771,1.291 L 48.083,58.936 25.408,59 c -0.666104,-2.372904 -1.872615,-4.559342 -3.525,-6.388 0.255,-0.089 0.5,-0.172 0.721,-0.252 0.758,-0.265 1.331,-0.466 1.617,-0.556 4.287,-1.346 6.431,-3.294 6.373,-5.791 -0.03246,-0.543739 -0.479336,-0.970104 -1.024,-0.977 -0.265242,0.0063 -0.517112,0.117727 -0.700164,0.309781 -0.183051,0.192055 -0.282278,0.448981 -0.275836,0.714219 0.024,1.03 -0.819,2.532 -4.974,3.836 -0.3,0.094 -0.891,0.3 -1.678,0.577 -0.713,0.25 -1.588,0.556 -2.545,0.883 C 16.580124,52.374812 13.710278,53.24074 10.8,53.95 9.8630489,54.13055 8.9511242,53.537622 8.736,52.608 8.520059,52.046619 8.4375549,51.442731 8.495,50.844 8.522,50.637 8.569,50.43 8.615,50.222 8.8201812,49.527999 8.8524527,48.794337 8.709,48.085 8.4219375,47.166823 7.7485058,46.41962 6.865,46.039 L 6.651,45.916 C 6.7580903,45.697623 6.8863729,45.490295 7.034,45.297 7.2003592,45.08455 7.2738016,44.813886 7.2376459,44.546484 7.2014903,44.279083 7.0588056,44.037642 6.842,43.877 6.602,43.699 6.03,43.271 5.62,42.942 5.671,42.849 5.728,42.742 5.781,42.653 5.935,42.382 6.11,42.069 6.281,41.712 6.6008346,41.012726 6.6948581,40.231178 6.55,39.476 6.317,38.249 5.15,37.651 4.289,37.215 3.9987137,37.077424 3.7204146,36.915864 3.457,36.732 3.2497263,36.587789 3.0532085,36.428703 2.869,36.256 c 0,-0.15 0.16,-0.516 0.929,-1.455 1.7867491,-2.303755 3.318685,-4.794282 4.569,-7.428 0.2407714,-0.412273 0.3754639,-0.877856 0.392,-1.355 -0.1019369,-1.006596 -0.6366526,-1.91908 -1.465,-2.5 -0.4,-0.37 -0.786,-0.72 -0.829,-1.028 0.00397,-0.241934 0.058466,-0.480367 0.16,-0.7 0.164,-0.434 0.355,-0.86 0.546,-1.286 0.4076558,-0.841253 0.7328418,-1.720025 0.971,-2.624 l 0.081,-0.349 c 0.2135467,-1.02652 0.4927879,-2.038268 0.836,-3.029 0.7838393,-2.177957 2.004476,-4.172764 3.587,-5.862 1.937,-2.04 4.869,-3.44 8.961,-4.263 3.090095,-0.6762626 6.225422,-1.1261239 9.381,-1.346 5.658,-0.3 10.515,1.414 15.751,5.522 2.54425,1.8758 4.401813,4.535486 5.287,7.57 0.701575,2.578165 1.029584,5.24366 0.974,7.915 -0.01752,2.547462 -0.759397,5.037373 -2.139,7.179 -0.524,0.822 -1.126,1.633 -1.708,2.417 z"
         inkscape:connector-curvature="0"
         style="fill:#ffffff" />
      <path
         id="path2168"
         d="m 21,18 h 1 c 0.552285,0 1,-0.447715 1,-1 0,-0.552285 -0.447715,-1 -1,-1 h -1 c -1.656854,0 -3,1.343146 -3,3 v 1 c 0,1.656854 1.343146,3 3,3 h 1 c 0.552285,0 1,-0.447715 1,-1 0,-0.552285 -0.447715,-1 -1,-1 h -1 c -0.552285,0 -1,-0.447715 -1,-1 v -1 c 0,-0.552285 0.447715,-1 1,-1 z"
         inkscape:connector-curvature="0"
         style="fill:#ffffff" />
      <path
         id="path2170"
         d="m 28,15 c -0.552285,0 -1,0.447715 -1,1 v 2 c 0,0.552285 -0.447715,1 -1,1 h -1 c -0.552285,0 -1,0.447715 -1,1 0,0.552285 0.447715,1 1,1 h 1 c 1.656854,0 3,-1.343146 3,-3 v -2 c 0,-0.552285 -0.447715,-1 -1,-1 z"
         inkscape:connector-curvature="0"
         style="fill:#ffffff" />
      <path
         id="path2172"
         d="m 32,15 v -1 c 0,-1.656854 -1.343146,-3 -3,-3 h -2 c -1.656854,0 -3,1.343146 -3,3 v 1 c 0,0.552285 0.447715,1 1,1 0.552285,0 1,-0.447715 1,-1 v -1 c 0,-0.552285 0.447715,-1 1,-1 h 2 c 0.552285,0 1,0.447715 1,1 v 1 c 0,0.552285 0.447715,1 1,1 0.552285,0 1,-0.447715 1,-1 z"
         inkscape:connector-curvature="0"
         style="fill:#ffffff" />
      <path
         id="path2174"
         d="m 35,22 h -1 c -0.552285,0 -1,-0.447715 -1,-1 v -1 c 0,-0.552285 -0.447715,-1 -1,-1 -0.552285,0 -1,0.447715 -1,1 v 1 c 0,1.656854 1.343146,3 3,3 h 1 c 0.552285,0 1,-0.447715 1,-1 0,-0.552285 -0.447715,-1 -1,-1 z"
         inkscape:connector-curvature="0"
         style="fill:#ffffff" />
      <path
         id="path2176"
         d="m 40,19 c 0,-0.552285 -0.447715,-1 -1,-1 h -1 c -0.552285,0 -1,-0.447715 -1,-1 0,-0.552285 0.447715,-1 1,-1 h 1 c 0.552285,0 1,-0.447715 1,-1 0,-0.552285 -0.447715,-1 -1,-1 h -1 c -1.656854,0 -3,1.343146 -3,3 0,1.656854 1.343146,3 3,3 h 1 c 0.552285,0 1,-0.447715 1,-1 z"
         inkscape:connector-curvature="0"
         style="fill:#ffffff" />
      <path
         id="path2178"
         d="m 43,19 c -0.552285,0 -1,0.447715 -1,1 v 2 c 0,0.552285 -0.447715,1 -1,1 h -1 c -0.552285,0 -1,0.447715 -1,1 0,0.552285 0.447715,1 1,1 h 1 c 1.656854,0 3,-1.343146 3,-3 v -2 c 0,-0.552285 -0.447715,-1 -1,-1 z"
         inkscape:connector-curvature="0"
         style="fill:#ffffff" />
      <path
         id="path2180"
         d="m 50.96,22 c 0,-0.016 -0.008,-0.029 -0.009,-0.045 C 50.86133,20.16807 50.57698,18.396255 50.103,16.671 49.330047,14.046583 47.716313,11.748778 45.51,10.131 40.987,6.583 36.886,5 32.209,5 31.841,5 31.469,5.01 31.088,5.028 30.747,5.046 30.406,5.085 30.065,5.113 30.042,5.113 30.023,5.1 30,5.1 29.947528,5.1057928 29.895664,5.1161657 29.845,5.131 27.20935,5.3852251 24.590174,5.788201 22,6.338 20.864055,6.5617297 19.74631,6.8695776 18.656,7.259 18.633,7.268 18.61,7.273 18.588,7.283 16.902115,7.8375699 15.366481,8.7727054 14.1,10.016 c -1.225989,1.316675 -2.202519,2.84517 -2.882,4.511 -0.03068,0.05643 -0.0558,0.115707 -0.075,0.177 -0.067,0.164 -0.144,0.319 -0.206,0.486 -0.307,0.833 -0.79,2.907 -0.851,3.168 -0.225,1.119 -0.783,4.954 1.486,7.36 1.44,1.526 3.642,2.09 6.534,1.68 l 1.346,-0.192 c 6.416,-0.923 9.636,-1.386 12.407,1.324 0.533,0.521 1.079,1.053 1.647,1.57 -0.629,1.978 -1.445,6.2 1.9,8.7 C 39,41.5 39,42.231 39,44 c -0.0019,0.347507 0.176743,0.671085 0.471834,0.854624 C 39.766924,45.038163 40.136141,45.055343 40.447,44.9 40.709,44.764 43,43.488 43,39 c 0,-2.455 1.83,-4.577 3.637,-6.333 l 0.03,-0.027 c 0.979873,-0.672634 1.827366,-1.520127 2.5,-2.5 0.725472,-1.143614 1.244361,-2.405803 1.533,-3.729 0.0591,-0.128969 0.08979,-0.269134 0.09,-0.411 0.125602,-0.655946 0.195849,-1.321287 0.21,-1.989 0.01,-0.671 -0.005,-1.336 -0.041,-1.993 8e-4,-0.006 0.0011,-0.01198 10e-4,-0.018 z M 41,39 c 0.01696,0.831703 -0.101934,1.660599 -0.352,2.454 -0.467,-1.169 -1.549,-2.38 -4.048,-4.255 -1.987,-1.488 -1.847,-3.962 -1.418,-5.7 1.873539,1.503874 4.197684,2.335284 6.6,2.361 0.389568,-0.0029 0.778738,-0.02558 1.166,-0.068 C 41.746452,35.268172 41.062154,37.097649 41,39 Z m 6.48,-9.926 c -0.699862,1.048979 -1.689739,1.871734 -2.849,2.368 C 42.795661,32.032834 40.816899,32.003316 39,31.358 V 30 c 0,-0.552285 0.447715,-1 1,-1 h 3 c 0.552285,0 1,-0.447715 1,-1 0,-0.552285 -0.447715,-1 -1,-1 h -3 c -1.656854,0 -3,1.343146 -3,3 v 0.311 C 35.656872,29.356824 34.403369,28.282393 33.255,27.101 32.093985,25.924167 30.615509,25.110745 29,24.76 V 24 c 0,-0.552285 -0.447715,-1 -1,-1 -0.552285,0 -1,0.447715 -1,1 v 0.516 c -2.627533,0.0053 -5.249438,0.24321 -7.835,0.711 l -1.342,0.191 C 17.219672,25.5069 16.609272,25.538376 16,25.512 V 25 c 0,-0.552285 -0.447715,-1 -1,-1 -0.552285,0 -1,0.447715 -1,1 v 0.048 C 13.634831,24.875415 13.303848,24.638273 13.023,24.348 12.449859,23.684979 12.083139,22.86881 11.968,22 H 13 c 1.656854,0 3,-1.343146 3,-3 0,-0.552285 -0.447715,-1 -1,-1 -0.552285,0 -1,0.447715 -1,1 0,0.552285 -0.447715,1 -1,1 h -1.121 c 0.0272,-0.409284 0.08031,-0.816433 0.159,-1.219 0.131,-0.568 0.5,-2.1 0.733,-2.781 H 16 c 0.552285,0 1,-0.447715 1,-1 0,-0.552285 -0.447715,-1 -1,-1 h -2.318 c 0.507056,-0.946641 1.134612,-1.823606 1.867,-2.609 C 16.2571,10.682043 17.087428,10.106809 18,9.693 V 11 c 0,1.656854 1.343146,3 3,3 0.552285,0 1,-0.447715 1,-1 0,-0.552285 -0.447715,-1 -1,-1 -0.552285,0 -1,-0.447715 -1,-1 V 8.91 C 20.78853,8.6639447 21.589679,8.4603195 22.4,8.3 23.252,8.128 24.124,7.963 25,7.806 V 8 c 0,0.5522848 0.447715,1 1,1 0.552285,0 1,-0.4477152 1,-1 V 7.473 c 0.666,-0.1 1.333,-0.192 2,-0.265 V 8 c 0,0.5522848 0.447715,1 1,1 0.552285,0 1,-0.4477152 1,-1 V 7.042 c 0.063,0 0.127,-0.012 0.189,-0.016 C 31.807,7 32.408,7 33,7.025 V 11 c 0,0.552285 0.447715,1 1,1 h 2 c 0.552285,0 1,-0.447715 1,-1 0,-0.552285 -0.447715,-1 -1,-1 H 35 V 7.243 c 1.74967,0.2965163 3.441519,0.8675533 5.013,1.692 C 40.013,8.958 40,8.977 40,9 v 3 c 0,0.552285 0.447715,1 1,1 0.552285,0 1,-0.447715 1,-1 v -1.91 c 0.656,0.425 1.32,0.889 2,1.412 V 14 c 0,0.552285 -0.447715,1 -1,1 -0.552285,0 -1,0.447715 -1,1 0,0.552285 0.447715,1 1,1 1.656854,0 3,-1.343146 3,-3 v -0.685 c 1.016291,1.115345 1.761914,2.449869 2.179,3.9 0.339074,1.239049 0.567964,2.505645 0.684,3.785 H 47 c -0.552285,0 -1,0.447715 -1,1 0,0.552285 0.447715,1 1,1 h 1.979 c 0.007,0.327 0.023,0.652 0.018,0.982 C 48.992,24.33 48.954,24.665 48.916,25 H 47 c -0.552285,0 -1,0.447715 -1,1 0,0.552285 0.447715,1 1,1 h 1.464 c -0.245445,0.727564 -0.57572,1.423692 -0.984,2.074 z"
         inkscape:connector-curvature="0"
         style="fill:#ffffff" />
    </g>
  </g>
  <g
     id="g2412"
     transform="matrix(0.03645691,0,0,0.03645691,10.469806,62.361591)"
     style="fill:#ffffff">
    <path
       id="path2408"
       d="M 498.862,45.865 C 486.467,29.432 467.553,20.008 446.969,20.008 h -8.714 v -5 c 0,-8.284 -6.716,-15 -15,-15 -8.284,0 -15,6.716 -15,15 v 40 c 0,8.284 6.716,15 15,15 8.284,0 15,-6.716 15,-15 v -5 h 8.714 c 11.083,0 21.268,5.075 27.942,13.923 6.674,8.848 8.756,20.035 5.711,30.692 L 440.81,233.965 c -11.11,38.885 -47.114,66.042 -87.555,66.042 -40.441,0 -76.445,-27.158 -87.555,-66.042 L 225.889,94.622 c -3.045,-10.657 -0.963,-21.844 5.711,-30.692 6.674,-8.849 16.859,-13.923 27.942,-13.923 h 8.713 v 5 c 0,8.284 6.716,15 15,15 8.284,0 15,-6.716 15,-15 v -40 c 0,-8.284 -6.716,-15 -15,-15 -8.284,0 -15,6.716 -15,15 v 5 h -8.713 c -20.583,0 -39.498,9.425 -51.893,25.857 -12.396,16.433 -16.261,37.208 -10.606,56.999 l 39.812,139.342 c 7.286,25.5 22.328,47.419 43.5,63.39 4.538,3.423 9.271,6.478 14.153,9.2 l 43.748,103.258 v 10.826 c 0,29.295 -23.833,53.128 -53.128,53.128 C 255.833,482.007 232,458.174 232,428.879 V 326.007 c 0,-47.42 -38.58,-86 -86,-86 -47.42,0 -86,38.58 -86,86 v 35.509 c -34.192,6.968 -60,37.271 -60,73.491 0,41.355 33.645,75 75,75 41.355,0 75,-33.645 75,-75 0,-36.219 -25.808,-66.522 -60,-73.491 v -35.509 c 0,-30.878 25.122,-56 56,-56 30.878,0 56,25.122 56,56 v 102.872 c 0,45.837 37.291,83.128 83.128,83.128 45.837,0 83.128,-37.291 83.128,-83.128 v -10.826 l 43.749,-103.258 c 4.882,-2.722 9.615,-5.777 14.152,-9.2 21.172,-15.97 36.214,-37.89 43.5,-63.39 l 39.812,-139.342 c 5.655,-19.79 1.788,-40.566 -10.607,-56.998 z M 120,435.007 c 0,24.813 -20.187,45 -45,45 -24.813,0 -45,-20.187 -45,-45 0,-24.813 20.187,-45 45,-45 24.813,0 45,20.187 45,45 z m 233.256,-58.451 -20.452,-48.273 c 6.697,1.135 13.529,1.724 20.453,1.724 6.924,0 13.755,-0.589 20.452,-1.724 z"
       inkscape:connector-curvature="0"
       style="fill:#ffffff" />
    <circle
       id="circle2410"
       r="15"
       cy="435.00699"
       cx="75"
       style="fill:#ffffff" />
  </g>
  <g
     id="g2612"
     transform="matrix(0.03946051,0,0,0.03946051,7.9871635,11.179839)"
     style="fill:#ffffff">
    <g
       id="g2537"
       style="fill:#ffffff">
	<g
   id="g2535"
   style="fill:#ffffff">
		<path
   id="path2533"
   d="m 509.042,355.862 -24.409,-24.21 c -3.923,-3.891 -10.255,-3.864 -14.145,0.058 -3.891,3.922 -3.864,10.255 0.058,14.145 l 24.408,24.21 c 1.95,1.935 4.497,2.901 7.043,2.901 2.573,0 5.146,-0.987 7.101,-2.959 3.892,-3.922 3.866,-10.255 -0.056,-14.145 z"
   inkscape:connector-curvature="0"
   style="fill:#ffffff" />

	</g>

</g>
    <g
       id="g2543"
       style="fill:#ffffff">
	<g
   id="g2541"
   style="fill:#ffffff">
		<path
   id="path2539"
   d="m 459.762,306.881 c -3.906,-3.906 -10.237,-3.906 -14.145,0 l -0.017,0.017 c -3.906,3.906 -3.897,10.231 0.009,14.137 1.95,1.951 4.509,2.926 7.067,2.926 2.564,0 5.13,-0.979 7.085,-2.934 3.906,-3.906 3.906,-10.239 10e-4,-14.146 z"
   inkscape:connector-curvature="0"
   style="fill:#ffffff" />

	</g>

</g>
    <g
       id="g2549"
       style="fill:#ffffff">
	<g
   id="g2547"
   style="fill:#ffffff">
		<path
   id="path2545"
   d="m 374.493,353 97.028,-97.027 c 14.695,-14.696 14.695,-38.608 -0.001,-53.304 -5.182,-5.182 -11.511,-8.528 -18.177,-10.055 2.286,-4.914 3.496,-10.307 3.496,-15.888 0,-10.068 -3.921,-19.533 -11.039,-26.651 -5.583,-5.584 -12.612,-9.19 -20.241,-10.489 4.295,-13.086 1.259,-28.073 -9.128,-38.459 -5.711,-5.71 -12.814,-9.19 -20.227,-10.462 1.242,-3.769 1.897,-7.749 1.897,-11.833 0,-10.068 -3.921,-19.533 -11.039,-26.651 -7.119,-7.118 -16.584,-11.039 -26.651,-11.039 -6.393,0 -12.54,1.586 -18.001,4.564 l -0.965,-1.037 C 328.903,31.191 311.15,23.462 292.741,23.462 h -78.54 c -5.523,0 -10.002,4.479 -10.002,10.002 V 46.58 c 0,5.249 0.888,10.359 2.586,15.164 -4.524,-1.879 -9.419,-2.866 -14.465,-2.866 -10.068,0 -19.533,3.921 -26.652,11.039 -10.392,10.392 -13.425,25.39 -9.12,38.48 -7.419,1.269 -14.532,4.751 -20.248,10.466 -7.118,7.119 -11.039,16.584 -11.039,26.651 0,4.076 0.653,8.05 1.89,11.811 -7.62,1.303 -14.642,4.907 -20.22,10.486 -11.477,11.477 -13.99,28.577 -7.539,42.516 -6.831,1.561 -13.105,5.001 -18.183,10.078 -14.695,14.695 -14.695,38.607 0,53.303 l 19.954,19.953 -98.234,98.232 c -3.906,3.906 -3.906,10.239 0,14.146 1.953,1.952 4.513,2.93 7.072,2.93 2.559,0 5.119,-0.977 7.072,-2.93 l 99.182,-99.182 c 5.615,3.204 11.987,4.918 18.628,4.918 10.067,0 19.532,-3.921 26.651,-11.04 7.734,-7.733 11.392,-18.02 10.985,-28.172 0.507,0.021 1.014,0.036 1.521,0.036 9.65,-10e-4 19.305,-3.675 26.651,-11.021 7.118,-7.119 11.039,-16.584 11.039,-26.651 0,-0.509 -0.017,-1.015 -0.037,-1.521 0.501,0.02 1.002,0.036 1.504,0.036 9.651,0 19.304,-3.674 26.651,-11.021 7.118,-7.119 11.039,-16.584 11.039,-26.651 0,-0.509 -0.017,-1.015 -0.037,-1.521 0.501,0.02 1.002,0.036 1.504,0.036 9.652,0 19.304,-3.674 26.651,-11.021 13.808,-13.808 14.639,-35.751 2.5,-50.542 l 66.394,-66.394 c 3.341,-3.342 7.781,-5.181 12.506,-5.181 4.725,0 9.166,1.839 12.507,5.181 3.341,3.341 5.18,7.781 5.18,12.506 0,4.724 -1.839,9.166 -5.181,12.506 l -9.789,9.789 -35.518,35.518 c -3.906,3.906 -3.906,10.239 0,14.146 1.953,1.952 4.513,2.93 7.072,2.93 2.559,0 5.119,-0.977 7.072,-2.93 l 35.518,-35.518 c 6.895,-6.896 18.116,-6.897 25.013,-0.001 6.896,6.897 6.896,18.117 0,25.014 l -9.79,9.79 -25.728,25.728 c -3.906,3.906 -3.906,10.239 0,14.146 1.953,1.952 4.513,2.93 7.072,2.93 2.559,0 5.119,-0.977 7.072,-2.93 l 25.728,-25.728 c 3.341,-3.342 7.782,-5.181 12.506,-5.181 4.725,0 9.166,1.839 12.507,5.181 3.341,3.341 5.18,7.781 5.18,12.506 0,4.724 -1.839,9.166 -5.181,12.506 l -13.437,13.437 -12.291,12.291 c -3.906,3.906 -3.906,10.239 0,14.146 1.953,1.952 4.513,2.93 7.072,2.93 2.559,0 5.119,-0.977 7.072,-2.93 l 12.3,-12.3 c 6.897,-6.885 18.111,-6.884 25.004,0.009 6.897,6.896 6.897,18.117 0,25.014 l -97.028,97.027 c -24.364,24.365 -56.745,38.47 -91.178,39.72 -2.531,0.092 -4.935,1.141 -6.723,2.937 l -89.632,89.964 c -3.899,3.913 -3.888,10.246 0.026,14.145 1.951,1.944 4.505,2.917 7.059,2.917 2.565,0 5.132,-0.981 7.085,-2.943 l 65.927,-66.17 c 16.746,10.743 36.44,15.851 56.465,14.527 l 51.598,51.599 c 1.953,1.952 4.513,2.93 7.072,2.93 2.56,0 5.119,-0.977 7.072,-2.93 3.906,-3.906 3.906,-10.239 0,-14.146 l -54.86,-54.866 c -2.077,-2.076 -4.963,-3.137 -7.89,-2.897 l -3.171,0.26 c -14.637,1.2 -29.105,-2.006 -41.737,-9.085 l 6.428,-6.451 C 311.894,396.026 347.486,380.008 374.493,353 Z M 147.39,286.591 c -3.341,3.342 -7.783,5.181 -12.506,5.181 -4.725,0 -9.166,-1.839 -12.506,-5.181 L 95.352,259.566 c -6.896,-6.896 -6.896,-18.117 0,-25.014 3.341,-3.342 7.783,-5.181 12.507,-5.181 4.724,0 9.166,1.839 12.506,5.181 l 27.026,27.025 c 6.895,6.896 6.895,18.117 -0.001,25.014 z m 39.159,-39.159 c -6.897,6.896 -18.12,6.896 -25.014,0 l -27.026,-27.026 -13.438,-13.438 c -6.896,-6.896 -6.896,-18.117 0,-25.013 3.341,-3.342 7.783,-5.181 12.506,-5.181 4.725,0 9.166,1.839 12.506,5.181 l 40.463,40.463 c 0,0 0,0 0.001,0 3.342,3.342 5.181,7.783 5.181,12.507 0,4.724 -1.839,9.166 -5.179,12.507 z m 39.157,-39.158 c -6.897,6.895 -18.119,6.896 -25.014,0 l -50.253,-50.253 c -3.341,-3.341 -5.18,-7.781 -5.18,-12.506 0,-4.724 1.839,-9.166 5.181,-12.506 3.448,-3.448 7.978,-5.172 12.506,-5.172 4.526,0 9.051,1.722 12.498,5.164 l 22.904,22.904 27.356,27.356 h 0.001 c 3.34,3.341 5.179,7.781 5.179,12.506 0.002,4.725 -1.837,9.167 -5.178,12.507 z m 39.158,-39.158 c -6.896,6.896 -18.117,6.896 -25.013,0 l -50.253,-50.253 c -0.005,-0.005 -0.011,-0.01 -0.017,-0.016 l -9.773,-9.773 c -6.896,-6.897 -6.896,-18.117 0,-25.014 3.448,-3.449 7.978,-5.173 12.507,-5.173 4.529,0 9.059,1.724 12.506,5.173 l 60.041,60.041 c 3.342,3.341 5.181,7.782 5.181,12.506 10e-4,4.726 -1.837,9.169 -5.179,12.509 z m 2.63,-50.672 -27.472,-27.472 c 3.115,0.665 6.318,1.018 9.578,1.017 0.073,0 0.147,0 0.221,0 l 27.448,-0.129 c 5.523,-0.026 9.981,-4.525 9.955,-10.049 -0.026,-5.508 -4.499,-9.955 -10.001,-9.955 -0.016,0 -0.032,0 -0.048,0 l -27.448,0.129 c -0.042,0 -0.082,0 -0.124,0 -6.763,0 -13.124,-2.625 -17.92,-7.398 C 226.857,59.783 224.2,53.389 224.2,46.579 v -3.114 h 68.538 c 12.875,0 25.29,5.405 34.062,14.831 l 0.407,0.437 z"
   inkscape:connector-curvature="0"
   style="fill:#ffffff" />

	</g>

</g>
    <g
       id="g2551"
       style="fill:#ffffff">
</g>
    <g
       id="g2553"
       style="fill:#ffffff">
</g>
    <g
       id="g2555"
       style="fill:#ffffff">
</g>
    <g
       id="g2557"
       style="fill:#ffffff">
</g>
    <g
       id="g2559"
       style="fill:#ffffff">
</g>
    <g
       id="g2561"
       style="fill:#ffffff">
</g>
    <g
       id="g2563"
       style="fill:#ffffff">
</g>
    <g
       id="g2565"
       style="fill:#ffffff">
</g>
    <g
       id="g2567"
       style="fill:#ffffff">
</g>
    <g
       id="g2569"
       style="fill:#ffffff">
</g>
    <g
       id="g2571"
       style="fill:#ffffff">
</g>
    <g
       id="g2573"
       style="fill:#ffffff">
</g>
    <g
       id="g2575"
       style="fill:#ffffff">
</g>
    <g
       id="g2577"
       style="fill:#ffffff">
</g>
    <g
       id="g2579"
       style="fill:#ffffff">
</g>
  </g>
</svg>
