<svg width="43" height="48" viewBox="0 0 43 48" fill="none" xmlns="http://www.w3.org/2000/svg">
<g clip-path="url(#clip0)">
<path d="M21.5096 13.2188C15.4051 13.2188 10.4812 18.0282 10.4812 23.9907C10.4812 29.9532 15.4051 34.7625 21.5096 34.7625C27.614 34.7625 32.5379 29.9532 32.5379 23.9907C32.5379 18.0282 27.614 13.2188 21.5096 13.2188ZM21.5096 30.9938C17.5647 30.9938 14.3397 27.8532 14.3397 23.9907C14.3397 20.1282 17.5551 16.9875 21.5096 16.9875C25.464 16.9875 28.6794 20.1282 28.6794 23.9907C28.6794 27.8532 25.4544 30.9938 21.5096 30.9938V30.9938ZM35.5614 12.7782C35.5614 14.175 34.4096 15.2907 32.989 15.2907C31.5589 15.2907 30.4167 14.1657 30.4167 12.7782C30.4167 11.3906 31.5685 10.2656 32.989 10.2656C34.4096 10.2656 35.5614 11.3906 35.5614 12.7782ZM42.8656 15.3282C42.7024 11.9625 41.9154 8.98127 39.391 6.52502C36.8763 4.06877 33.8241 3.30002 30.3783 3.13127C26.827 2.93439 16.1826 2.93439 12.6312 3.13127C9.19508 3.29064 6.14285 4.05939 3.61852 6.51565C1.09419 8.9719 0.316736 11.9532 0.143968 15.3188C-0.0575942 18.7875 -0.0575942 29.1844 0.143968 32.6532C0.307138 36.0188 1.09419 39 3.61852 41.4563C6.14285 43.9126 9.18548 44.6813 12.6312 44.85C16.1826 45.0469 26.827 45.0469 30.3783 44.85C33.8241 44.6907 36.8763 43.9219 39.391 41.4563C41.9058 39 42.6928 36.0188 42.8656 32.6532C43.0672 29.1844 43.0672 18.7969 42.8656 15.3282V15.3282ZM38.2776 36.375C37.529 38.2125 36.0797 39.6282 34.1888 40.3688C31.3573 41.4657 24.6386 41.2125 21.5096 41.2125C18.3806 41.2125 11.6522 41.4563 8.83035 40.3688C6.9491 39.6375 5.49977 38.2219 4.74151 36.375C3.61852 33.6094 3.87767 27.0469 3.87767 23.9907C3.87767 20.9344 3.62812 14.3625 4.74151 11.6063C5.49017 9.76877 6.9395 8.35315 8.83035 7.61252C11.6618 6.51565 18.3806 6.76877 21.5096 6.76877C24.6386 6.76877 31.3669 6.52502 34.1888 7.61252C36.0701 8.34377 37.5194 9.7594 38.2776 11.6063C39.4006 14.3719 39.1415 20.9344 39.1415 23.9907C39.1415 27.0469 39.4006 33.6188 38.2776 36.375Z" fill="#E5E5E5"/>
</g>
<defs>
<clipPath id="clip0">
<rect width="43" height="48" fill="white"/>
</clipPath>
</defs>
</svg>
