<svg width="43" height="48" viewBox="0 0 43 48" fill="none" xmlns="http://www.w3.org/2000/svg">
<path d="M39.9286 2.99997H3.06183C1.37254 2.99997 0 4.35935 0 6.0281V41.9719C0 43.6406 1.37254 45 3.06183 45H39.9286C41.6179 45 43 43.6406 43 41.9719V6.0281C43 4.35935 41.6179 2.99997 39.9286 2.99997ZM12.996 39H6.62277V18.9562H13.0056V39H12.996ZM9.80937 16.2187C7.76496 16.2187 6.11406 14.5969 6.11406 12.6094C6.11406 10.6218 7.76496 8.99997 9.80937 8.99997C11.8442 8.99997 13.5047 10.6218 13.5047 12.6094C13.5047 14.6062 11.8538 16.2187 9.80937 16.2187V16.2187ZM36.8859 39H30.5127V29.25C30.5127 26.925 30.4647 23.9344 27.2013 23.9344C23.8804 23.9344 23.3717 26.4656 23.3717 29.0812V39H16.9984V18.9562H23.1125V21.6937H23.1989C24.0531 20.1187 26.1359 18.4594 29.2362 18.4594C35.6862 18.4594 36.8859 22.6125 36.8859 28.0125V39V39Z" fill="#E5E5E5"/>
</svg>
