<svg width="54" height="54" viewBox="0 0 54 54" fill="none" xmlns="http://www.w3.org/2000/svg">
<path d="M23.5986 13.79L16.3075 1.63898C16.0078 1.13913 15.5836 0.725434 15.0764 0.438206C14.5693 0.150978 13.9963 7.15632e-06 13.4135 0H1.69059C0.324769 0 -0.474687 1.53668 0.307893 2.6557L12.0434 19.421C15.178 16.4921 19.1647 14.4819 23.5986 13.79ZM52.3094 0H40.5865C39.4011 0 38.3021 0.622266 37.6925 1.63898L30.4014 13.79C34.8353 14.4819 38.822 16.4921 41.9566 19.42L53.6921 2.6557C54.4747 1.53668 53.6752 0 52.3094 0ZM27 16.875C16.7484 16.875 8.43745 25.1859 8.43745 35.4375C8.43745 45.6891 16.7484 54 27 54C37.2516 54 45.5626 45.6891 45.5626 35.4375C45.5626 25.1859 37.2516 16.875 27 16.875ZM36.758 33.461L32.7576 37.3591L33.7036 42.8667C33.8724 43.8539 32.8324 44.608 31.9476 44.1418L27 41.542L22.0535 44.1418C21.1676 44.6112 20.1287 43.8529 20.2974 42.8667L21.2435 37.3591L17.2431 33.461C16.5238 32.7607 16.9214 31.5383 17.9128 31.3949L23.4425 30.5891L25.9137 25.5772C26.1362 25.1258 26.5665 24.9033 26.9979 24.9033C27.4314 24.9033 27.8648 25.129 28.0874 25.5772L30.5585 30.5891L36.0883 31.3949C37.0797 31.5383 37.4773 32.7607 36.758 33.461Z" fill="#F2C94C"/>
</svg>
