<?xml version="1.0" encoding="UTF-8" standalone="no"?>
<svg
   xmlns:svg="http://www.w3.org/2000/svg"
   xmlns="http://www.w3.org/2000/svg"
   id="svg825"
   version="1.1"
   fill="none"
   viewBox="0 0 23 23"
   height="23"
   width="23">
  <defs
     id="defs829" />
  <path
     style="fill:#4c4c4c;fill-opacity:1;stroke-width:0.999966"
     id="path823"
     fill="#E5E5E5"
     d="M 11.5,0 C 5.14718,0 0,5.1468276 0,11.499213 c 0,6.352364 5.14718,11.499212 11.5,11.499212 6.3528,0 11.5,-5.146848 11.5,-11.499212 C 23,5.1468276 17.8528,0 11.5,0 Z m 6.6774,12.797524 c 0,0.305977 -0.2504,0.55636 -0.5564,0.55636 h -4.2662 v 4.265909 c 0,0.305978 -0.2504,0.55636 -0.5564,0.55636 h -2.5968 c -0.30604,0 -0.55644,-0.250382 -0.55644,-0.55636 V 13.353886 H 5.37903 c -0.30605,0 -0.55645,-0.250382 -0.55645,-0.55636 v -2.596625 c 0,-0.3060163 0.2504,-0.5564043 0.55645,-0.5564043 h 4.26613 v -4.265835 c 0,-0.3060289 0.2504,-0.5564118 0.55644,-0.5564118 h 2.5968 c 0.306,0 0.5564,0.2503829 0.5564,0.5564118 v 4.2658379 h 4.2662 c 0.306,0 0.5564,0.2503823 0.5564,0.5564044 z" />
</svg>
