<svg width="31" height="31" viewBox="0 0 31 31" fill="none" xmlns="http://www.w3.org/2000/svg">
<path d="M15.5 0C6.9375 0 0 6.9375 0 15.5C0 24.0625 6.9375 31 15.5 31C24.0625 31 31 24.0625 31 15.5C31 6.9375 24.0625 0 15.5 0ZM24.5 17.25C24.5 17.6625 24.1625 18 23.75 18H18V23.75C18 24.1625 17.6625 24.5 17.25 24.5H13.75C13.3375 24.5 13 24.1625 13 23.75V18H7.25C6.8375 18 6.5 17.6625 6.5 17.25V13.75C6.5 13.3375 6.8375 13 7.25 13H13V7.25C13 6.8375 13.3375 6.5 13.75 6.5H17.25C17.6625 6.5 18 6.8375 18 7.25V13H23.75C24.1625 13 24.5 13.3375 24.5 13.75V17.25Z" fill="#4C4C4C"/>
</svg>
