<svg width="54" height="54" viewBox="0 0 54 54" fill="none" xmlns="http://www.w3.org/2000/svg">
<path d="M48.3704 26.9916L53.2204 22.245C54.6661 20.8763 53.992 18.444 52.0957 17.9905L45.488 16.304L47.3507 9.76338C47.8771 7.88203 46.1031 6.10752 44.2224 6.63402L37.684 8.49734L35.9981 1.88751C35.552 0.0208242 33.0925 -0.661874 31.7451 0.762374L27.0001 5.65L22.2551 0.76248C20.923 -0.645632 18.4533 -0.000480533 18.0021 1.88762L16.3163 8.49744L9.77771 6.63413C7.89646 6.10742 6.1231 7.88256 6.64939 9.76349L8.51208 16.3041L1.90445 17.9906C0.00727379 18.4442 -0.665513 20.8769 0.779623 22.245L5.62961 26.9916L0.779623 31.7381C-0.666145 33.1068 0.00801218 35.5391 1.90434 35.9926L8.51198 37.679L6.64929 44.2197C6.12289 46.101 7.89688 47.8755 9.7776 47.349L16.316 45.4857L18.0019 52.0955C18.47 54.0546 20.9229 54.6287 22.2549 53.2207L27.0001 48.369L31.745 53.2207C33.0634 54.6432 35.5405 54.0102 35.998 52.0955L37.6838 45.4857L44.2223 47.349C46.1034 47.8757 47.8769 46.1006 47.3506 44.2197L45.4879 37.679L52.0956 35.9926C53.9926 35.5389 54.6654 33.1062 53.2203 31.7381L48.3704 26.9916Z" fill="#F2C94C"/>
</svg>
