<svg width="56" height="55" viewBox="0 0 56 55" fill="none" xmlns="http://www.w3.org/2000/svg">
<path d="M53.6667 6.875H43.5556V2.57812C43.5556 1.14941 42.5153 0 41.2222 0H14.7778C13.4847 0 12.4444 1.14941 12.4444 2.57812V6.875H2.33333C1.04028 6.875 0 8.02441 0 9.45312V15.4688C0 19.3037 2.1875 23.2461 6.01806 26.2861C9.08056 28.7246 12.8042 30.2715 16.7125 30.7656C19.7653 36.3623 23.3333 38.6719 23.3333 38.6719V46.4062H18.6667C15.2347 46.4062 12.4444 48.6299 12.4444 52.4219V53.7109C12.4444 54.4199 12.9694 55 13.6111 55H42.3889C43.0306 55 43.5556 54.4199 43.5556 53.7109V52.4219C43.5556 48.6299 40.7653 46.4062 37.3333 46.4062H32.6667V38.6719C32.6667 38.6719 36.2347 36.3623 39.2875 30.7656C43.2056 30.2715 46.9292 28.7246 49.9819 26.2861C53.8028 23.2461 56 19.3037 56 15.4688V9.45312C56 8.02441 54.9597 6.875 53.6667 6.875ZM9.65417 20.7109C7.28194 18.8203 6.22222 16.7148 6.22222 15.4688V13.75H12.4639C12.5611 17.252 13.0278 20.3242 13.7083 23.0098C12.2403 22.4512 10.8694 21.6777 9.65417 20.7109ZM49.7778 15.4688C49.7778 17.1982 48.0569 19.3467 46.3458 20.7109C45.1306 21.6777 43.75 22.4512 42.2819 23.0098C42.9625 20.3242 43.4292 17.252 43.5264 13.75H49.7778V15.4688Z" fill="#F2C94C"/>
</svg>
