<svg width="45" height="50" viewBox="0 0 45 50" fill="none" xmlns="http://www.w3.org/2000/svg">
<path d="M40.3743 14.816C40.4029 15.2602 40.4029 15.7044 40.4029 16.1486C40.4029 29.6954 31.1231 45.3046 14.1624 45.3046C8.93716 45.3046 4.08313 43.623 0 40.7044C0.742412 40.7995 1.45617 40.8313 2.22715 40.8313C6.53862 40.8313 10.5076 39.2133 13.677 36.4531C9.62244 36.3579 6.22459 33.4074 5.05389 29.3465C5.625 29.4416 6.19603 29.5051 6.7957 29.5051C7.62372 29.5051 8.45183 29.3781 9.22271 29.1562C4.99685 28.2043 1.82733 24.08 1.82733 19.099V18.9722C3.05508 19.7336 4.48286 20.2095 5.99607 20.2729C3.51193 18.4327 1.88446 15.2919 1.88446 11.7386C1.88446 9.83509 2.34123 8.09017 3.14077 6.56732C7.68076 12.7856 14.505 16.8464 22.1572 17.2906C22.0145 16.5292 21.9288 15.7362 21.9288 14.943C21.9288 9.29573 26.0405 4.69554 31.1515 4.69554C33.807 4.69554 36.2054 5.93285 37.8901 7.93157C39.9744 7.48743 41.9731 6.63079 43.7435 5.45697C43.0581 7.83646 41.602 9.83519 39.6889 11.1041C41.5449 10.8822 43.3438 10.311 44.9998 9.5179C43.7437 11.5483 42.1732 13.3566 40.3743 14.816V14.816Z" fill="#E5E5E5"/>
</svg>
