<svg width="22" height="24" viewBox="0 0 22 24" fill="none" xmlns="http://www.w3.org/2000/svg">
<path d="M16.1753 4.61493e-05C12.967 0.0141086 10.3889 3.25786 10.3889 7.19536V10.5H1.83333C0.821181 10.5 0 11.5079 0 12.75V21.75C0 22.9922 0.821181 24 1.83333 24H15.2778C16.2899 24 17.1111 22.9922 17.1111 21.75V12.75C17.1111 11.5079 16.2899 10.5 15.2778 10.5H13.4444V7.16723C13.4444 5.31098 14.6552 3.76879 16.1677 3.75004C17.6955 3.73129 18.9444 5.25473 18.9444 7.12504V10.875C18.9444 11.4985 19.3531 12 19.8611 12H21.0833C21.5913 12 22 11.4985 22 10.875V7.12504C22 3.18755 19.3837 -0.0140163 16.1753 4.61493e-05Z" fill="#4C4C4C"/>
</svg>
