<svg width="43" height="48" viewBox="0 0 43 48" fill="none" xmlns="http://www.w3.org/2000/svg">
<path d="M36.5596 9.1031C32.5379 5.1656 27.1821 2.99997 21.4904 2.99997C9.74219 2.99997 0.182366 12.3375 0.182366 23.8125C0.182366 27.4781 1.16138 31.0594 3.02344 34.2187L0 45L11.2971 42.1031C14.4069 43.7625 17.9103 44.6344 21.4808 44.6344H21.4904C33.229 44.6344 43 35.2969 43 23.8219C43 18.2625 40.5812 13.0406 36.5596 9.1031V9.1031ZM21.4904 41.1281C18.3038 41.1281 15.1844 40.2937 12.4681 38.7187L11.825 38.3437L5.12545 40.0594L6.91071 33.675L6.48839 33.0187C4.71272 30.2625 3.7817 27.0844 3.7817 23.8125C3.7817 14.2781 11.729 6.5156 21.5 6.5156C26.2319 6.5156 30.6759 8.3156 34.0161 11.5875C37.3562 14.8594 39.4103 19.2 39.4007 23.8219C39.4007 33.3656 31.2518 41.1281 21.4904 41.1281V41.1281ZM31.2038 28.1719C30.6759 27.9094 28.0556 26.6531 27.5661 26.4844C27.0766 26.3062 26.7214 26.2219 26.3663 26.7469C26.0112 27.2719 24.9938 28.4344 24.677 28.7906C24.3699 29.1375 24.0531 29.1844 23.5252 28.9219C20.3962 27.3937 18.3422 26.1937 16.2786 22.7344C15.7315 21.8156 16.8257 21.8812 17.8431 19.8937C18.0158 19.5469 17.9295 19.2469 17.7951 18.9844C17.6607 18.7219 16.5953 16.1625 16.1538 15.1219C15.7219 14.1094 15.2804 14.25 14.954 14.2312C14.6469 14.2125 14.2917 14.2125 13.9366 14.2125C13.5815 14.2125 13.0056 14.3437 12.5161 14.8594C12.0266 15.3844 10.654 16.6406 10.654 19.2C10.654 21.7594 12.5641 24.2344 12.8232 24.5812C13.092 24.9281 16.5761 30.1781 21.9223 32.4375C25.3009 33.8625 26.6254 33.9844 28.3147 33.7406C29.3417 33.5906 31.4629 32.4844 31.9045 31.2656C32.346 30.0469 32.346 29.0062 32.2116 28.7906C32.0868 28.5562 31.7317 28.425 31.2038 28.1719Z" fill="#E5E5E5"/>
</svg>
