<?xml version="1.0" encoding="UTF-8" standalone="no"?>
<!-- Created with Inkscape (http://www.inkscape.org/) -->

<svg
   xmlns:dc="http://purl.org/dc/elements/1.1/"
   xmlns:cc="http://creativecommons.org/ns#"
   xmlns:rdf="http://www.w3.org/1999/02/22-rdf-syntax-ns#"
   xmlns:svg="http://www.w3.org/2000/svg"
   xmlns="http://www.w3.org/2000/svg"
   xmlns:sodipodi="http://sodipodi.sourceforge.net/DTD/sodipodi-0.dtd"
   xmlns:inkscape="http://www.inkscape.org/namespaces/inkscape"
   version="1.1"
   id="svg2"
   xml:space="preserve"
   width="6000"
   height="1600"
   viewBox="0 0 6000 1600"
   sodipodi:docname="logo-hor-nobg.svg"
   inkscape:version="0.92.4 (ce16d395f7, 2020-02-20, custom)"><metadata
     id="metadata8"><rdf:RDF><cc:Work
         rdf:about=""><dc:format>image/svg+xml</dc:format><dc:type
           rdf:resource="http://purl.org/dc/dcmitype/StillImage" /><dc:title></dc:title></cc:Work></rdf:RDF></metadata><defs
     id="defs6"><clipPath
       clipPathUnits="userSpaceOnUse"
       id="clipPath22"><path
         d="M 0,1200 H 4500 V 0 H 0 Z"
         id="path20"
         inkscape:connector-curvature="0" /></clipPath></defs><sodipodi:namedview
     pagecolor="#ffffff"
     bordercolor="#666666"
     borderopacity="1"
     objecttolerance="10"
     gridtolerance="10"
     guidetolerance="10"
     inkscape:pageopacity="0"
     inkscape:pageshadow="2"
     inkscape:window-width="2560"
     inkscape:window-height="1373"
     id="namedview4"
     showgrid="false"
     inkscape:zoom="0.064333333"
     inkscape:cx="3000"
     inkscape:cy="800"
     inkscape:window-x="0"
     inkscape:window-y="0"
     inkscape:window-maximized="1"
     inkscape:current-layer="g10" /><g
     id="g10"
     inkscape:groupmode="layer"
     inkscape:label="visual-identity"
     transform="matrix(1.3333333,0,0,-1.3333333,0,1600)"><path
       d="M 0,0 H 1200 Z"
       style="fill:#32373b;fill-opacity:1;fill-rule:nonzero;stroke:none"
       id="path14"
       inkscape:connector-curvature="0" /><g
       id="g16"><g
         id="g18"
         clip-path="url(#clipPath22)"><g
           id="g24"
           transform="translate(992.6082,600)"><path
             d="m 0,0 c 0,-193.287 -156.706,-349.993 -349.993,-349.993 -193.299,0 -349.994,156.706 -349.994,349.993 0,193.302 156.695,349.993 349.994,349.993 C -156.706,349.993 0,193.302 0,0"
             style="fill:#e5e5e5;fill-opacity:1;fill-rule:nonzero;stroke:none"
             id="path26"
             inkscape:connector-curvature="0" /></g><g
           id="g28"
           transform="translate(792.0209,659.5669)"><path
             d="m 0,0 -364.215,-16.757 -49.673,-220.874 c 151.828,30.83 430.174,-90.612 552.482,43.474 z"
             style="fill:#668cf2;fill-opacity:1;fill-rule:nonzero;stroke:none"
             id="path30"
             inkscape:connector-curvature="0" /></g><g
           id="g32"
           transform="translate(875.9388,642.535)"><path
             d="m 0,0 c 0,64.433 -52.233,116.666 -116.669,116.666 -64.422,0 -116.655,-52.233 -116.655,-116.666 0,64.433 -52.236,116.666 -116.669,116.666 -64.433,0 -116.655,-52.233 -116.655,-116.666 0,-155.554 233.324,-275.859 233.324,-275.859 C -233.324,-275.859 0,-154.738 0,0"
             style="fill:#e87079;fill-opacity:1;fill-rule:nonzero;stroke:none"
             id="path34"
             inkscape:connector-curvature="0" /></g></g></g><g
       aria-label="let’s hero"
       transform="matrix(1,0,0,-1,1291.0044,428.5811)"
       style="font-variant:normal;font-weight:bold;font-stretch:normal;font-size:495.73840332px;font-family:FTIndustryMachineW00-Bold;-inkscape-font-specification:FTIndustryMachineW00-Bold;writing-mode:lr-tb;fill:#e5e5e5;fill-opacity:1;fill-rule:nonzero;stroke:none"
       id="text38"><path
         d="M 285.04958,-126.90903 V -0.4957384 H 108.07097 q -21.812488,0 -40.650547,-7.9318145 Q 48.582364,-16.855106 34.20595,-30.735781 20.325275,-45.112195 11.897722,-63.950254 3.9659072,-83.284052 3.9659072,-105.09654 V -336.60638 H 139.79823 v 209.69735 z"
         style=""
         id="path864" /><path
         d="m 445.17308,-213.16751 h 100.13915 v 88.24143 H 445.17308 v 15.86363 H 590.92017 V -0.4957384 H 413.44582 q -21.81249,0 -40.65055,-7.9318145 -18.83806,-8.4275531 -33.21447,-22.3082281 -13.88068,-14.376414 -22.30823,-33.214473 -7.93182,-19.333798 -7.93182,-41.146286 v -127.40477 q 0,-21.81249 7.93182,-40.65055 8.42755,-18.83806 22.30823,-32.71873 14.37641,-14.37642 33.21447,-22.30823 18.83806,-8.42756 40.65055,-8.42756 H 590.92017 V -228.5354 H 445.17308 Z"
         style=""
         id="path866" /><path
         d="M 943.88589,-209.20161 H 848.20838 V 0.4957384 H 711.88032 V -209.20161 h -95.67751 v -126.90903 h 327.68308 z"
         style=""
         id="path868" /><path
         d="m 978.09189,-336.60638 h 150.20871 l -64.9417,163.09794 h -96.17325 z"
         style=""
         id="path870" /><path
         d="m 1270.0818,-212.17604 h 32.223 q 20.3253,0 38.1718,6.4446 18.3424,6.4446 32.223,18.34232 14.3765,11.40199 23.2997,27.76135 8.9233,16.35937 10.9063,36.18891 v 19.3338 q 0,21.812485 -8.4276,41.146283 -7.9318,18.838059 -22.3082,33.214473 -13.8807,13.880675 -33.2145,22.308228 -18.838,7.9318144 -40.6505,7.9318144 H 1134.2495 V -108.07097 h 136.8238 v -14.87215 h -32.223 q -21.8125,0 -41.1463,-7.43608 -18.8381,-7.43608 -33.2145,-20.32527 -13.8807,-13.38494 -22.3082,-31.72726 -7.9318,-18.34232 -7.9318,-40.15481 v -8.92329 q 0,-21.81249 7.9318,-40.65055 8.4275,-19.3338 22.3082,-33.21448 14.3764,-14.37641 33.2145,-22.30822 19.3338,-8.42756 41.1463,-8.42756 h 168.0553 v 108.56671 h -136.8238 z"
         style=""
         id="path872" /><path
         d="M 1872.4039,-336.60638 V 0 h -136.3281 v -100.6349 h -55.5227 V 0 h -135.8323 v -336.60638 h 135.8323 v 109.06245 h 55.5227 v -109.06245 z"
         style=""
         id="path874" /><path
         d="m 2036.4933,-213.16751 h 100.1392 v 88.24143 h -100.1392 v 15.86363 h 145.7471 V -0.4957384 H 2004.766 q -21.8124,0 -40.6505,-7.9318145 -18.8381,-8.4275531 -33.2145,-22.3082281 -13.8807,-14.376414 -22.3082,-33.214473 -7.9318,-19.333798 -7.9318,-41.146286 v -127.40477 q 0,-21.81249 7.9318,-40.65055 8.4275,-18.83806 22.3082,-32.71873 14.3764,-14.37642 33.2145,-22.30823 18.8381,-8.42756 40.6505,-8.42756 h 177.4744 v 108.07098 h -145.7471 z"
         style=""
         id="path876" /><path
         d="m 2536.1976,-176.97861 q 0,17.84658 -5.4531,33.71021 -5.4531,15.86363 -15.3679,28.75283 -9.9148,12.8892 -23.2997,22.803965 -13.3849,9.41903 -29.2486,14.376414 l 97.6605,77.8309294 H 2398.8781 L 2344.3469,-54.531224 V 0.4957384 H 2208.5145 V -231.50983 q 0,-21.81249 7.9318,-40.65055 8.4276,-19.3338 22.3083,-33.21448 14.3764,-14.37641 33.2145,-22.30822 19.3337,-8.42756 41.1462,-8.42756 h 118.4815 q 21.8125,0 40.6506,8.42756 19.3338,7.93181 33.2144,22.30822 14.3765,13.88068 22.3083,33.21448 8.4275,18.83806 8.4275,40.65055 z m -136.328,-32.223 h -55.5227 v 23.79545 h 55.5227 z"
         style=""
         id="path878" /><path
         d="m 2787.537,-336.60638 q 21.3167,0 40.1548,8.42756 19.3338,7.93181 33.7102,22.30823 14.3764,13.88067 22.3082,32.71873 8.4276,18.83806 8.4276,40.65055 v 127.90051 q 0,21.316748 -8.4276,40.650546 -7.9318,18.838059 -22.3082,33.214473 -14.3764,13.880675 -33.7102,22.3082281 Q 2808.8537,0 2787.537,0 h -118.4815 q -21.8125,0 -41.1463,-8.4275529 -18.838,-8.4275531 -33.2145,-22.3082281 -13.8806,-14.376414 -22.3082,-33.214473 -7.9318,-19.333798 -7.9318,-40.650546 v -127.90051 q 0,-21.81249 7.9318,-40.65055 8.4276,-18.83806 22.3082,-32.71873 14.3765,-14.37642 33.2145,-22.30823 19.3338,-8.42756 41.1463,-8.42756 z m -87.25,209.69735 h 56.0185 v -82.78831 h -56.0185 z"
         style=""
         id="path880" /></g></g></svg>