<?xml version="1.0" encoding="UTF-8" standalone="no"?>
<svg
   xmlns:dc="http://purl.org/dc/elements/1.1/"
   xmlns:cc="http://creativecommons.org/ns#"
   xmlns:rdf="http://www.w3.org/1999/02/22-rdf-syntax-ns#"
   xmlns:svg="http://www.w3.org/2000/svg"
   xmlns="http://www.w3.org/2000/svg"
   id="svg8"
   version="1.1"
   viewBox="0 0 13 3"
   height="3mm"
   width="13mm">
  <defs
     id="defs2" />
  <metadata
     id="metadata5">
    <rdf:RDF>
      <cc:Work
         rdf:about="">
        <dc:format>image/svg+xml</dc:format>
        <dc:type
           rdf:resource="http://purl.org/dc/dcmitype/StillImage" />
        <dc:title></dc:title>
      </cc:Work>
    </rdf:RDF>
  </metadata>
  <g
     transform="translate(0,-294)"
     id="layer1">
    <g
       id="text12"
       style="font-style:normal;font-weight:normal;font-size:10.58333302px;line-height:1.25;font-family:sans-serif;letter-spacing:0px;word-spacing:0px;fill:#333333;fill-opacity:1;stroke:none;stroke-width:0.26458332"
       aria-label="+5571981092229">
      <path
         id="path914"
         style="font-style:normal;font-variant:normal;font-weight:normal;font-stretch:normal;font-size:0.70555562px;font-family:'JMH Grace';-inkscape-font-specification:'JMH Grace';letter-spacing:0.22225px;fill:#333333;fill-opacity:1;stroke-width:0.26458332"
         d="M 2.5614701,296.09575 H 2.4284894 v 0.13161 h -0.025494 v -0.13161 H 2.2686369 v -0.0248 h 0.1343588 v -0.13092 h 0.025494 v 0.13092 h 0.1329807 z" />
      <path
         id="path916"
         style="font-style:normal;font-variant:normal;font-weight:normal;font-stretch:normal;font-size:0.70555562px;font-family:'JMH Grace';-inkscape-font-specification:'JMH Grace';letter-spacing:0.22225px;fill:#333333;fill-opacity:1;stroke-width:0.26458332"
         d="m 2.7885432,296.37343 q 0,-0.001 6.89e-4,-0.003 0.00138,-0.002 0.00345,-0.002 0.00276,0 0.00345,0.002 0.00138,0.002 0.00207,0.003 0.00965,0.0207 0.023427,0.0338 0.014469,0.0131 0.031695,0.0207 0.017914,0.008 0.037896,0.0103 0.019982,0.003 0.04203,0.003 0.039274,0 0.065457,-0.011 0.026872,-0.011 0.043408,-0.0303 0.016536,-0.0186 0.023427,-0.0441 0.00758,-0.0248 0.00758,-0.0537 0,-0.0283 -0.00896,-0.0558 -0.00827,-0.0276 -0.024805,-0.0489 -0.016537,-0.0214 -0.040652,-0.0344 -0.024116,-0.0131 -0.055122,-0.0131 -0.00689,0 -0.01378,6.8e-4 -0.00689,0 -0.01378,0 -0.00965,0 -0.016536,-0.002 6.89e-4,-0.007 0.00276,-0.0152 0.00276,-0.008 0.00551,-0.0165 0.00276,-0.009 0.00551,-0.0172 0.00345,-0.008 0.00551,-0.0152 0.017225,-0.0537 0.033762,-0.1068 0.017225,-0.0531 0.033073,-0.1068 0.034451,0.001 0.068213,0.003 0.033762,6.9e-4 0.068213,6.9e-4 0.024116,0 0.04892,-6.9e-4 0.025494,-6.9e-4 0.049609,-0.005 0.00896,-0.001 0.017225,-0.003 0.00896,-0.001 0.017914,-0.003 -0.00482,0.0159 -0.012402,0.0317 -0.00689,0.0152 -0.014469,0.0303 l -0.2328885,0.007 q -6.89e-4,0.002 -0.00482,0.0138 -0.00345,0.0117 -0.00896,0.0283 -0.00551,0.0165 -0.012402,0.0358 -0.0062,0.0186 -0.011713,0.0358 -0.00482,0.0172 -0.00827,0.031 -0.00345,0.0131 -0.00345,0.0172 0,0.01 0.00827,0.0103 0.00827,0 0.015159,6.9e-4 0.033073,0.002 0.062701,0.0165 0.029628,0.0138 0.051676,0.0372 0.022049,0.0234 0.034451,0.0544 0.013091,0.0303 0.013091,0.0661 0,0.0214 -0.00413,0.0462 -0.00413,0.0255 -0.015158,0.0434 -0.01378,0.0227 -0.035829,0.0407 -0.022049,0.0179 -0.048231,0.0303 -0.025494,0.0131 -0.053743,0.02 -0.02825,0.007 -0.053743,0.007 -0.012402,0 -0.022049,-6.8e-4 -0.00965,-6.9e-4 -0.018603,-0.003 -0.00896,-0.002 -0.017914,-0.006 -0.00896,-0.003 -0.019293,-0.01 -0.00965,-0.006 -0.019293,-0.0138 -0.00965,-0.008 -0.017915,-0.0172 -0.00758,-0.009 -0.012402,-0.02 -0.00482,-0.011 -0.00482,-0.0234 z" />
      <path
         id="path918"
         style="font-style:normal;font-variant:normal;font-weight:normal;font-stretch:normal;font-size:0.70555562px;font-family:'JMH Grace';-inkscape-font-specification:'JMH Grace';letter-spacing:0.22225px;fill:#333333;fill-opacity:1;stroke-width:0.26458332"
         d="m 3.4848384,296.37343 q 0,-0.001 6.89e-4,-0.003 0.00138,-0.002 0.00345,-0.002 0.00276,0 0.00345,0.002 0.00138,0.002 0.00207,0.003 0.00965,0.0207 0.023427,0.0338 0.014469,0.0131 0.031695,0.0207 0.017915,0.008 0.037896,0.0103 0.019981,0.003 0.04203,0.003 0.039274,0 0.065457,-0.011 0.026872,-0.011 0.043408,-0.0303 0.016536,-0.0186 0.023427,-0.0441 0.00758,-0.0248 0.00758,-0.0537 0,-0.0283 -0.00896,-0.0558 -0.00827,-0.0276 -0.024805,-0.0489 -0.016536,-0.0214 -0.040652,-0.0344 -0.024116,-0.0131 -0.055122,-0.0131 -0.00689,0 -0.01378,6.8e-4 -0.00689,0 -0.01378,0 -0.00965,0 -0.016536,-0.002 6.89e-4,-0.007 0.00276,-0.0152 0.00276,-0.008 0.00551,-0.0165 0.00276,-0.009 0.00551,-0.0172 0.00345,-0.008 0.00551,-0.0152 0.017225,-0.0537 0.033762,-0.1068 0.017225,-0.0531 0.033073,-0.1068 0.034451,0.001 0.068213,0.003 0.033762,6.9e-4 0.068213,6.9e-4 0.024116,0 0.04892,-6.9e-4 0.025494,-6.9e-4 0.049609,-0.005 0.00896,-0.001 0.017225,-0.003 0.00896,-0.001 0.017915,-0.003 -0.00482,0.0159 -0.012402,0.0317 -0.00689,0.0152 -0.014469,0.0303 l -0.2328885,0.007 q -6.89e-4,0.002 -0.00482,0.0138 -0.00345,0.0117 -0.00896,0.0283 -0.00551,0.0165 -0.012402,0.0358 -0.0062,0.0186 -0.011713,0.0358 -0.00482,0.0172 -0.00827,0.031 -0.00345,0.0131 -0.00345,0.0172 0,0.01 0.00827,0.0103 0.00827,0 0.015159,6.9e-4 0.033073,0.002 0.062701,0.0165 0.029628,0.0138 0.051676,0.0372 0.022049,0.0234 0.034451,0.0544 0.013091,0.0303 0.013091,0.0661 0,0.0214 -0.00413,0.0462 -0.00413,0.0255 -0.015158,0.0434 -0.01378,0.0227 -0.035829,0.0407 -0.022049,0.0179 -0.048231,0.0303 -0.025494,0.0131 -0.053743,0.02 -0.02825,0.007 -0.053744,0.007 -0.012402,0 -0.022049,-6.8e-4 -0.00965,-6.9e-4 -0.018604,-0.003 -0.00896,-0.002 -0.017914,-0.006 -0.00896,-0.003 -0.019293,-0.01 -0.00965,-0.006 -0.019293,-0.0138 -0.00965,-0.008 -0.017914,-0.0172 -0.00758,-0.009 -0.012402,-0.02 -0.00482,-0.011 -0.00482,-0.0234 z" />
      <path
         id="path920"
         style="font-style:normal;font-variant:normal;font-weight:normal;font-stretch:normal;font-size:0.70555562px;font-family:'JMH Grace';-inkscape-font-specification:'JMH Grace';letter-spacing:0.22225px;fill:#333333;fill-opacity:1;stroke-width:0.26458332"
         d="m 4.1783775,296.49745 q 0,-0.002 0.00276,-0.003 0.00345,-0.001 0.00689,-0.002 0.00413,-6.9e-4 0.00758,-0.001 0.00345,0 0.00482,0 0.012402,0 0.02136,-0.005 0.00965,-0.005 0.017914,-0.0138 0.00413,-0.005 0.011713,-0.0145 0.00758,-0.01 0.014469,-0.0207 0.00758,-0.011 0.013091,-0.0221 0.00551,-0.0103 0.00551,-0.0165 0,-0.003 0.00345,-0.011 0.00413,-0.008 0.00896,-0.0172 0.00551,-0.01 0.011024,-0.0207 0.00551,-0.011 0.00896,-0.0214 0.00482,-0.0131 0.015848,-0.04 0.011024,-0.0276 0.024805,-0.0613 0.01378,-0.0338 0.02825,-0.0696 0.015158,-0.0365 0.026872,-0.0668 0.012402,-0.031 0.019982,-0.0517 0.00827,-0.0214 0.00827,-0.0255 0,-0.001 -6.89e-4,-0.001 0,-6.9e-4 0,-0.002 0,-0.002 0.00207,-0.006 0.00276,-0.003 0.00413,-0.005 0.00207,-0.003 0.00896,-0.0165 0.00689,-0.0131 0.015158,-0.031 0.00827,-0.0179 0.017226,-0.0386 0.00965,-0.0207 0.017226,-0.0386 0.00758,-0.0179 0.013091,-0.0303 0.00551,-0.0131 0.00551,-0.0159 -0.033073,-0.001 -0.065457,-0.002 -0.032384,-6.9e-4 -0.065457,-6.9e-4 -0.012402,0 -0.031006,6.9e-4 -0.018604,0 -0.037207,6.9e-4 -0.017914,6.8e-4 -0.033073,0.003 -0.015158,0.001 -0.019982,0.004 -0.00345,0.001 -0.00689,0.003 -0.00276,0.002 -0.0062,0.002 -0.00413,0 -0.00413,-0.006 0,-0.005 0.00413,-0.0138 0.00482,-0.01 0.010335,-0.0193 0.00551,-0.01 0.011024,-0.0186 0.0062,-0.009 0.00896,-0.0131 h 0.1433159 q 0.00551,0 0.018604,0 0.01378,0 0.030317,0 0.016536,0 0.033762,6.9e-4 0.017914,0 0.032384,0.001 0.015159,6.8e-4 0.024116,0.002 0.00965,6.9e-4 0.00965,0.003 0,0.006 -0.0062,0.0214 -0.0062,0.0159 -0.014469,0.0338 -0.00758,0.0172 -0.015158,0.0331 -0.00689,0.0159 -0.00965,0.0214 -0.013091,0.0283 -0.024805,0.0565 -0.011024,0.0276 -0.022738,0.0565 -0.017914,0.0455 -0.037207,0.0889 -0.019293,0.0434 -0.037207,0.0882 -0.00482,0.0117 -0.00758,0.0241 -0.00207,0.0124 -0.00758,0.0234 -0.019292,0.04 -0.036518,0.0806 -0.016536,0.04 -0.034451,0.0806 -0.00827,0.02 -0.022049,0.0406 -0.013091,0.0214 -0.031006,0.0386 -0.017226,0.0179 -0.038585,0.0289 -0.02136,0.011 -0.044786,0.011 -0.00345,0 -0.00827,-6.9e-4 -0.00413,-6.9e-4 -0.00413,-0.006 z" />
      <path
         id="path922"
         style="font-style:normal;font-variant:normal;font-weight:normal;font-stretch:normal;font-size:0.70555562px;font-family:'JMH Grace';-inkscape-font-specification:'JMH Grace';letter-spacing:0.22225px;fill:#333333;fill-opacity:1;stroke-width:0.26458332"
         d="m 4.846423,296.31486 q 0,-0.001 0.00413,-0.003 0.00413,-0.002 0.00965,-0.004 0.0062,-0.002 0.012402,-0.005 0.0062,-0.003 0.00965,-0.006 0.00413,-0.003 0.0062,-0.0186 0.00276,-0.0158 0.00413,-0.0372 0.00207,-0.022 0.00276,-0.0469 6.89e-4,-0.0248 6.89e-4,-0.0469 6.891e-4,-0.0227 6.891e-4,-0.0393 0,-0.0165 0,-0.022 l 0.00413,-0.19913 q -6.89e-4,6.9e-4 -0.015158,0.01 -0.01378,0.008 -0.031695,0.0186 -0.017226,0.01 -0.033073,0.0179 -0.015159,0.008 -0.017915,0.008 0,-0.001 0.0062,-0.01 0.0062,-0.008 0.015848,-0.0193 0.00965,-0.0117 0.02067,-0.0248 0.011024,-0.0138 0.02136,-0.0255 0.010335,-0.0124 0.017914,-0.0207 0.00758,-0.009 0.00965,-0.0117 l 0.054432,-0.0661 0.00138,0.26182 q 0,0.042 0,0.0841 6.89e-4,0.0413 0.00138,0.0827 0,0.0117 -6.89e-4,0.0276 0,0.0158 6.89e-4,0.0317 0.00138,0.0152 0.00413,0.0283 0.00276,0.0131 0.010335,0.0179 0.00413,0.003 0.010335,0.006 0.00689,0.002 0.013091,0.004 0.0062,0.002 0.011024,0.004 0.00482,0.002 0.00482,0.003 0,0.003 -0.00758,0.004 -0.00758,0 -0.013091,0 -0.016536,0 -0.033073,-6.9e-4 -0.015847,-0.001 -0.031695,-0.001 -0.017226,0 -0.032384,0.003 -0.014469,0.003 -0.02825,0.003 -0.00345,0 -0.00827,-0.002 -0.00482,-0.001 -0.00482,-0.006 z" />
      <path
         id="path924"
         style="font-style:normal;font-variant:normal;font-weight:normal;font-stretch:normal;font-size:0.70555562px;font-family:'JMH Grace';-inkscape-font-specification:'JMH Grace';letter-spacing:0.22225px;fill:#333333;fill-opacity:1;stroke-width:0.26458332"
         d="m 5.3683963,295.97173 q 0,0.0358 0.013091,0.0682 0.013091,0.0317 0.036518,0.0558 0.023427,0.0241 0.054432,0.0386 0.031695,0.0138 0.068213,0.0138 0.02825,0 0.055811,-0.011 0.027561,-0.011 0.049609,-0.0296 0.022049,-0.0193 0.03514,-0.0448 0.01378,-0.0262 0.01378,-0.0565 0,-0.0372 -0.011713,-0.0717 -0.011713,-0.0351 -0.038585,-0.0613 -0.015158,-0.0145 -0.02825,-0.0227 -0.013091,-0.008 -0.026872,-0.0124 -0.013091,-0.004 -0.028939,-0.005 -0.015848,-0.001 -0.036518,-0.001 h -0.015158 q -0.011713,0 -0.020671,6.9e-4 -0.00896,0 -0.017225,0.001 -0.00827,0.001 -0.016536,0.006 -0.00758,0.003 -0.017225,0.01 -0.032384,0.022 -0.050987,0.0524 -0.017915,0.0303 -0.017915,0.0703 z m 0.3741374,0.0186 q 0,0.02 -0.00207,0.0407 -0.00207,0.0207 -0.00896,0.04 -0.019293,0.0558 -0.039963,0.10128 -0.02067,0.0455 -0.046164,0.0861 -0.025494,0.04 -0.057878,0.0786 -0.031695,0.0386 -0.073036,0.0799 -0.019982,0.02 -0.049609,0.0462 -0.028939,0.0262 -0.062701,0.0496 -0.033073,0.0234 -0.067524,0.04 -0.034451,0.0165 -0.064079,0.0165 -0.00207,0 -0.00827,-6.9e-4 -0.00551,-6.9e-4 -0.011713,-0.002 -0.0062,-0.001 -0.011024,-0.003 -0.00413,-0.002 -0.00413,-0.005 0,-0.003 0.00482,-0.005 0.00551,-0.001 0.012402,-0.003 0.00689,-6.9e-4 0.013091,-0.001 0.0062,-6.9e-4 0.00758,-6.9e-4 0.013091,-0.001 0.023427,-0.004 0.010335,-0.002 0.019293,-0.006 0.00965,-0.003 0.018603,-0.009 0.00896,-0.006 0.019982,-0.0131 0.025494,-0.0172 0.058567,-0.0469 0.033762,-0.0296 0.066835,-0.0641 0.033762,-0.0338 0.06339,-0.0675 0.029628,-0.0338 0.047542,-0.0593 0.00482,-0.007 0.01378,-0.0214 0.00896,-0.0145 0.019293,-0.0331 0.011024,-0.0186 0.022049,-0.0386 0.011024,-0.0207 0.019982,-0.0393 0.00896,-0.0186 0.014469,-0.0331 0.0062,-0.0152 0.0062,-0.0221 0,-0.001 -6.89e-4,-0.004 -6.89e-4,-0.003 -0.00345,-0.003 -0.00482,0 -0.00965,0.007 -0.00413,0.007 -0.0062,0.0103 -0.012402,0.0193 -0.031695,0.0379 -0.018604,0.0179 -0.041341,0.0324 -0.022049,0.0145 -0.046853,0.0234 -0.024805,0.008 -0.048231,0.008 -0.038585,0 -0.070969,-0.0165 -0.031695,-0.0165 -0.055811,-0.0434 -0.023427,-0.0269 -0.036518,-0.0613 -0.013091,-0.0344 -0.013091,-0.071 0,-0.0441 0.015158,-0.082 0.015158,-0.0386 0.041341,-0.0689 0.026872,-0.031 0.062701,-0.0524 0.035829,-0.0221 0.07717,-0.0324 0.010335,-0.003 0.022049,-0.006 0.011713,-0.003 0.022738,-0.003 0.026872,0 0.053054,0.0124 0.026872,0.0117 0.049609,0.031 0.022738,0.0193 0.039963,0.0441 0.017226,0.0241 0.024805,0.0482 0.00689,0.0207 0.00896,0.0434 0.00276,0.0227 0.00276,0.0448 z" />
      <path
         id="path926"
         style="font-style:normal;font-variant:normal;font-weight:normal;font-stretch:normal;font-size:0.70555562px;font-family:'JMH Grace';-inkscape-font-specification:'JMH Grace';letter-spacing:0.22225px;fill:#333333;fill-opacity:1;stroke-width:0.26458332"
         d="m 6.2844886,295.85873 q 0,-0.0276 -0.00827,-0.0517 -0.00827,-0.0248 -0.024116,-0.0434 -0.015847,-0.0186 -0.038585,-0.0296 -0.022738,-0.011 -0.051677,-0.011 -0.024805,0 -0.045475,0.009 -0.019982,0.008 -0.03514,0.0234 -0.015158,0.0152 -0.023427,0.0358 -0.00827,0.0207 -0.00827,0.0455 0,0.0165 0.00551,0.0324 0.0062,0.0152 0.015158,0.0296 0.00965,0.0138 0.02136,0.0269 0.011713,0.0124 0.022738,0.0234 0.00276,0.003 0.011024,0.011 0.00896,0.008 0.018604,0.0179 0.010335,0.009 0.019293,0.0165 0.00896,0.007 0.012402,0.007 0.00276,0 0.00965,-0.003 0.00689,-0.004 0.014469,-0.009 0.00758,-0.006 0.014469,-0.0103 0.00689,-0.005 0.00896,-0.007 0.015158,-0.0117 0.026872,-0.0234 0.011713,-0.0117 0.019292,-0.0248 0.00758,-0.0131 0.011024,-0.0289 0.00413,-0.0159 0.00413,-0.0358 z m 0.023427,0.39067 q 0,-0.0214 -0.00758,-0.0393 -0.00758,-0.0186 -0.019982,-0.0344 -0.011713,-0.0159 -0.026872,-0.0296 -0.014469,-0.0138 -0.029628,-0.0269 -0.00551,-0.005 -0.017225,-0.0152 -0.011024,-0.0103 -0.024116,-0.0214 -0.013091,-0.011 -0.026183,-0.0193 -0.012402,-0.008 -0.019293,-0.008 -0.00551,0 -0.012402,0.005 -0.00689,0.004 -0.01378,0.0103 -0.00689,0.006 -0.013091,0.0124 -0.00551,0.006 -0.00896,0.01 -0.014469,0.0145 -0.025494,0.0269 -0.011024,0.0117 -0.018603,0.0248 -0.00758,0.0131 -0.011713,0.0289 -0.00345,0.0159 -0.00345,0.0365 0,0.0324 0.011024,0.0572 0.011024,0.0248 0.030317,0.0427 0.019982,0.0172 0.046164,0.0262 0.026183,0.009 0.057189,0.009 0.022049,0 0.045475,-0.005 0.024116,-0.005 0.043408,-0.0159 0.019982,-0.011 0.032384,-0.0289 0.012402,-0.0186 0.012402,-0.0455 z m -0.3279731,-0.006 q 0,-0.0165 6.89e-4,-0.0269 6.89e-4,-0.0103 0.00345,-0.0193 0.00276,-0.009 0.00827,-0.0172 0.00551,-0.009 0.015158,-0.0227 0.025494,-0.0351 0.057189,-0.0627 0.032384,-0.0276 0.066835,-0.0531 -0.022049,-0.0179 -0.044097,-0.0372 -0.02136,-0.02 -0.039274,-0.042 -0.017225,-0.0227 -0.02825,-0.0482 -0.011024,-0.0262 -0.011024,-0.0572 0,-0.0344 0.019293,-0.0668 0.019292,-0.0331 0.04892,-0.0579 0.029628,-0.0255 0.064768,-0.0406 0.035829,-0.0159 0.068902,-0.0159 0.00965,0 0.019292,0.001 0.010335,0.001 0.019982,0.005 0.00896,0.003 0.018604,0.0117 0.010335,0.008 0.019982,0.0179 0.00965,0.01 0.017914,0.0207 0.00827,0.0103 0.012402,0.0186 0.00827,0.0159 0.011024,0.0358 0.00345,0.0193 0.00345,0.0372 0,0.0138 -0.00207,0.0276 -0.00138,0.0131 -0.0062,0.0262 -0.00551,0.0145 -0.018604,0.031 -0.012402,0.0165 -0.02825,0.0324 -0.015848,0.0159 -0.032384,0.0296 -0.016536,0.0131 -0.029628,0.0214 -0.00551,0.003 -0.013091,0.01 -0.00758,0.006 -0.00758,0.0138 0,0.008 0.00551,0.0124 0.0062,0.005 0.011713,0.008 0.018604,0.0124 0.04203,0.0324 0.024116,0.0193 0.045475,0.0427 0.02136,0.0227 0.035829,0.0482 0.015158,0.0255 0.015158,0.0496 0,0.0269 -0.015158,0.0565 -0.014469,0.0289 -0.037207,0.0551 -0.022738,0.0255 -0.050298,0.0455 -0.026872,0.02 -0.051676,0.0282 -0.015158,0.006 -0.031006,0.008 -0.015158,0.003 -0.031006,0.003 -0.016536,0 -0.031695,-0.004 -0.014469,-0.004 -0.028939,-0.0117 -0.045475,-0.0241 -0.07028,-0.0565 -0.024116,-0.0324 -0.024116,-0.0854 z" />
      <path
         id="path928"
         style="font-style:normal;font-variant:normal;font-weight:normal;font-stretch:normal;font-size:0.70555562px;font-family:'JMH Grace';-inkscape-font-specification:'JMH Grace';letter-spacing:0.22225px;fill:#333333;fill-opacity:1;stroke-width:0.26458332"
         d="m 6.628006,296.31486 q 0,-0.001 0.00413,-0.003 0.00413,-0.002 0.00965,-0.004 0.0062,-0.002 0.012402,-0.005 0.0062,-0.003 0.00965,-0.006 0.00413,-0.003 0.0062,-0.0186 0.00276,-0.0158 0.00413,-0.0372 0.00207,-0.022 0.00276,-0.0469 6.89e-4,-0.0248 6.89e-4,-0.0469 6.89e-4,-0.0227 6.89e-4,-0.0393 0,-0.0165 0,-0.022 l 0.00413,-0.19913 q -6.89e-4,6.9e-4 -0.015158,0.01 -0.01378,0.008 -0.031695,0.0186 -0.017225,0.01 -0.033073,0.0179 -0.015158,0.008 -0.017914,0.008 0,-0.001 0.0062,-0.01 0.0062,-0.008 0.015847,-0.0193 0.00965,-0.0117 0.020671,-0.0248 0.011024,-0.0138 0.02136,-0.0255 0.010335,-0.0124 0.017914,-0.0207 0.00758,-0.009 0.00965,-0.0117 l 0.054432,-0.0661 0.00138,0.26182 q 0,0.042 0,0.0841 6.89e-4,0.0413 0.00138,0.0827 0,0.0117 -6.891e-4,0.0276 0,0.0158 6.891e-4,0.0317 0.00138,0.0152 0.00413,0.0283 0.00276,0.0131 0.010335,0.0179 0.00413,0.003 0.010335,0.006 0.00689,0.002 0.013091,0.004 0.0062,0.002 0.011024,0.004 0.00482,0.002 0.00482,0.003 0,0.003 -0.00758,0.004 -0.00758,0 -0.013091,0 -0.016536,0 -0.033073,-6.9e-4 -0.015847,-0.001 -0.031695,-0.001 -0.017226,0 -0.032384,0.003 -0.014469,0.003 -0.02825,0.003 -0.00345,0 -0.00827,-0.002 -0.00482,-0.001 -0.00482,-0.006 z" />
      <path
         id="path930"
         style="font-style:normal;font-variant:normal;font-weight:normal;font-stretch:normal;font-size:0.70555562px;font-family:'JMH Grace';-inkscape-font-specification:'JMH Grace';letter-spacing:0.22225px;fill:#333333;fill-opacity:1;stroke-width:0.26458332"
         d="m 7.2760697,295.74229 q 0.035829,0 0.066146,0.0131 0.030317,0.0124 0.054432,0.0344 0.024116,0.0214 0.04203,0.0503 0.017914,0.0283 0.030317,0.0606 0.012402,0.0317 0.017915,0.0655 0.0062,0.0331 0.0062,0.0641 0,0.0579 -0.015158,0.11024 -0.015158,0.0524 -0.045475,0.0923 -0.030317,0.0393 -0.07717,0.0627 -0.046853,0.0227 -0.1095541,0.0227 -0.031695,0 -0.059256,-0.0117 -0.027561,-0.0124 -0.053055,-0.0296 -0.02825,-0.0193 -0.04892,-0.0462 -0.019982,-0.0276 -0.033073,-0.0586 -0.013091,-0.0317 -0.019292,-0.0654 -0.0062,-0.0344 -0.0062,-0.0668 0,-0.0544 0.016536,-0.10748 0.017226,-0.0531 0.04892,-0.0951 0.032384,-0.0427 0.078548,-0.0689 0.046853,-0.0262 0.106109,-0.0262 z m -0.00689,0.0255 q -0.033762,0 -0.061323,0.011 -0.027561,0.011 -0.049609,0.0303 -0.02136,0.0193 -0.037896,0.0455 -0.015847,0.0255 -0.026183,0.0544 -0.010335,0.0289 -0.015847,0.0599 -0.00482,0.031 -0.00482,0.0606 0,0.0248 0.00413,0.0537 0.00413,0.0289 0.013091,0.0579 0.00896,0.0289 0.022738,0.0558 0.014469,0.0269 0.034451,0.0475 0.019982,0.0207 0.046164,0.0331 0.026183,0.0124 0.059256,0.0124 0.048231,0 0.08406,-0.0262 0.036518,-0.0262 0.060634,-0.0654 0.024805,-0.04 0.037207,-0.0861 0.012402,-0.0468 0.012402,-0.0882 0,-0.0255 -0.00345,-0.0537 -0.00345,-0.0283 -0.011713,-0.0551 -0.00758,-0.0276 -0.02067,-0.0524 -0.013091,-0.0248 -0.031695,-0.0434 -0.010335,-0.0103 -0.023427,-0.0193 -0.013091,-0.01 -0.02825,-0.0165 -0.014469,-0.008 -0.029628,-0.0117 -0.015158,-0.004 -0.029628,-0.004 z" />
      <path
         id="path932"
         style="font-style:normal;font-variant:normal;font-weight:normal;font-stretch:normal;font-size:0.70555562px;font-family:'JMH Grace';-inkscape-font-specification:'JMH Grace';letter-spacing:0.22225px;fill:#333333;fill-opacity:1;stroke-width:0.26458332"
         d="m 7.8655668,295.97173 q 0,0.0358 0.013091,0.0682 0.013091,0.0317 0.036518,0.0558 0.023427,0.0241 0.054432,0.0386 0.031695,0.0138 0.068213,0.0138 0.02825,0 0.055811,-0.011 0.027561,-0.011 0.049609,-0.0296 0.022049,-0.0193 0.03514,-0.0448 0.01378,-0.0262 0.01378,-0.0565 0,-0.0372 -0.011713,-0.0717 -0.011713,-0.0351 -0.038585,-0.0613 -0.015158,-0.0145 -0.02825,-0.0227 -0.013091,-0.008 -0.026872,-0.0124 -0.013091,-0.004 -0.028939,-0.005 -0.015847,-0.001 -0.036518,-0.001 h -0.015158 q -0.011713,0 -0.020671,6.9e-4 -0.00896,0 -0.017226,0.001 -0.00827,0.001 -0.016536,0.006 -0.00758,0.003 -0.017226,0.01 -0.032384,0.022 -0.050987,0.0524 -0.017914,0.0303 -0.017914,0.0703 z m 0.3741374,0.0186 q 0,0.02 -0.00207,0.0407 -0.00207,0.0207 -0.00896,0.04 -0.019292,0.0558 -0.039963,0.10128 -0.020671,0.0455 -0.046164,0.0861 -0.025494,0.04 -0.057878,0.0786 -0.031695,0.0386 -0.073036,0.0799 -0.019982,0.02 -0.049609,0.0462 -0.028939,0.0262 -0.062701,0.0496 -0.033073,0.0234 -0.067524,0.04 -0.034451,0.0165 -0.064079,0.0165 -0.00207,0 -0.00827,-6.9e-4 -0.00551,-6.9e-4 -0.011713,-0.002 -0.0062,-0.001 -0.011024,-0.003 -0.00413,-0.002 -0.00413,-0.005 0,-0.003 0.00482,-0.005 0.00551,-0.001 0.012402,-0.003 0.00689,-6.9e-4 0.013091,-0.001 0.0062,-6.9e-4 0.00758,-6.9e-4 0.013091,-0.001 0.023427,-0.004 0.010335,-0.002 0.019293,-0.006 0.00965,-0.003 0.018604,-0.009 0.00896,-0.006 0.019982,-0.0131 0.025494,-0.0172 0.058567,-0.0469 0.033762,-0.0296 0.066835,-0.0641 0.033762,-0.0338 0.06339,-0.0675 0.029628,-0.0338 0.047542,-0.0593 0.00482,-0.007 0.01378,-0.0214 0.00896,-0.0145 0.019293,-0.0331 0.011024,-0.0186 0.022049,-0.0386 0.011024,-0.0207 0.019982,-0.0393 0.00896,-0.0186 0.014469,-0.0331 0.0062,-0.0152 0.0062,-0.0221 0,-0.001 -6.89e-4,-0.004 -6.89e-4,-0.003 -0.00345,-0.003 -0.00482,0 -0.00965,0.007 -0.00413,0.007 -0.0062,0.0103 -0.012402,0.0193 -0.031695,0.0379 -0.018603,0.0179 -0.041341,0.0324 -0.022049,0.0145 -0.046853,0.0234 -0.024805,0.008 -0.048231,0.008 -0.038585,0 -0.070969,-0.0165 -0.031695,-0.0165 -0.05581,-0.0434 -0.023427,-0.0269 -0.036518,-0.0613 -0.013091,-0.0344 -0.013091,-0.071 0,-0.0441 0.015158,-0.082 0.015158,-0.0386 0.041341,-0.0689 0.026872,-0.031 0.062701,-0.0524 0.035829,-0.0221 0.07717,-0.0324 0.010335,-0.003 0.022049,-0.006 0.011713,-0.003 0.022738,-0.003 0.026872,0 0.053055,0.0124 0.026872,0.0117 0.049609,0.031 0.022738,0.0193 0.039963,0.0441 0.017226,0.0241 0.024805,0.0482 0.00689,0.0207 0.00896,0.0434 0.00276,0.0227 0.00276,0.0448 z" />
      <path
         id="path934"
         style="font-style:normal;font-variant:normal;font-weight:normal;font-stretch:normal;font-size:0.70555562px;font-family:'JMH Grace';-inkscape-font-specification:'JMH Grace';letter-spacing:0.22225px;fill:#333333;fill-opacity:1;stroke-width:0.26458332"
         d="m 8.5163869,296.28523 q 0.03514,-0.0303 0.071658,-0.0675 0.036518,-0.0379 0.066146,-0.0799 0.029628,-0.0427 0.048231,-0.0882 0.019293,-0.0462 0.019293,-0.093 0,-0.0124 -6.891e-4,-0.022 0,-0.01 -0.00207,-0.0186 -0.00138,-0.009 -0.00551,-0.0179 -0.00345,-0.009 -0.010335,-0.0193 -0.015847,-0.0227 -0.040652,-0.0351 -0.024116,-0.0124 -0.051676,-0.0124 -0.039274,0 -0.061323,0.0221 -0.022049,0.0214 -0.022049,0.0606 0,0.0276 0.00827,0.0544 0.00207,0.006 0.00207,0.0103 0,0.005 -0.00276,0.005 -0.00827,0 -0.015159,-0.01 -0.0062,-0.01 -0.011024,-0.0234 -0.00482,-0.0138 -0.00758,-0.0289 -0.00207,-0.0152 -0.00207,-0.0269 0,-0.0269 0.012402,-0.0496 0.013091,-0.0227 0.033073,-0.0393 0.019982,-0.0165 0.045475,-0.0255 0.025494,-0.01 0.050987,-0.01 0.031006,0 0.057189,0.0117 0.026872,0.011 0.046164,0.031 0.019292,0.02 0.029628,0.0469 0.011024,0.0269 0.011024,0.0579 0,0.0441 -0.015158,0.0854 -0.015158,0.0407 -0.039274,0.0779 -0.024116,0.0372 -0.054433,0.071 -0.030317,0.0331 -0.059945,0.062 -0.00138,0.001 -0.00965,0.01 -0.00827,0.008 -0.017914,0.0165 -0.00896,0.009 -0.016537,0.0165 -0.00689,0.008 -0.00689,0.009 0,0.001 0.00965,0.002 0.010335,0 0.025494,6.9e-4 0.015847,6.9e-4 0.033073,6.9e-4 0.017914,0 0.033073,0 0.015847,0 0.026183,0 0.010335,0 0.011024,0 0.013091,0 0.02825,0 0.015159,-6.9e-4 0.028939,-0.001 0.01378,-0.001 0.024805,-0.003 0.011024,-0.002 0.015848,-0.006 0.00276,-0.001 0.00758,-0.006 0.00551,-0.004 0.00896,-0.004 0.00207,0 0.00207,0.003 0,0.004 -0.00413,0.0131 -0.00413,0.009 -0.00965,0.0193 -0.00482,0.01 -0.010335,0.0179 -0.00482,0.008 -0.00758,0.0103 -0.00551,0.006 -0.015158,0.008 -0.00965,0.003 -0.02136,0.005 -0.011713,0.001 -0.024805,0.002 -0.012402,6.9e-4 -0.024116,6.9e-4 -0.010335,0 -0.019292,-6.9e-4 -0.00827,0 -0.01378,0 h -0.041341 q -0.037896,0 -0.076481,6.9e-4 -0.038585,6.9e-4 -0.075103,-0.005 0,-0.002 0.00482,-0.008 0.00551,-0.006 0.011713,-0.0124 0.00689,-0.007 0.013091,-0.0124 0.00689,-0.006 0.00965,-0.008 z" />
      <path
         id="path936"
         style="font-style:normal;font-variant:normal;font-weight:normal;font-stretch:normal;font-size:0.70555562px;font-family:'JMH Grace';-inkscape-font-specification:'JMH Grace';letter-spacing:0.22225px;fill:#333333;fill-opacity:1;stroke-width:0.26458332"
         d="m 9.1010608,296.28523 q 0.03514,-0.0303 0.071658,-0.0675 0.036518,-0.0379 0.066146,-0.0799 0.029628,-0.0427 0.048231,-0.0882 0.019293,-0.0462 0.019293,-0.093 0,-0.0124 -6.89e-4,-0.022 0,-0.01 -0.00207,-0.0186 -0.00138,-0.009 -0.00551,-0.0179 -0.00345,-0.009 -0.010335,-0.0193 -0.015847,-0.0227 -0.040652,-0.0351 -0.024116,-0.0124 -0.051677,-0.0124 -0.039274,0 -0.061323,0.0221 -0.022049,0.0214 -0.022049,0.0606 0,0.0276 0.00827,0.0544 0.00207,0.006 0.00207,0.0103 0,0.005 -0.00276,0.005 -0.00827,0 -0.015158,-0.01 -0.0062,-0.01 -0.011024,-0.0234 -0.00482,-0.0138 -0.00758,-0.0289 -0.00207,-0.0152 -0.00207,-0.0269 0,-0.0269 0.012402,-0.0496 0.013091,-0.0227 0.033073,-0.0393 0.019982,-0.0165 0.045475,-0.0255 0.025494,-0.01 0.050987,-0.01 0.031006,0 0.057189,0.0117 0.026872,0.011 0.046164,0.031 0.019293,0.02 0.029628,0.0469 0.011024,0.0269 0.011024,0.0579 0,0.0441 -0.015158,0.0854 -0.015158,0.0407 -0.039274,0.0779 -0.024116,0.0372 -0.054432,0.071 -0.030317,0.0331 -0.059945,0.062 -0.00138,0.001 -0.00965,0.01 -0.00827,0.008 -0.017914,0.0165 -0.00896,0.009 -0.016536,0.0165 -0.00689,0.008 -0.00689,0.009 0,0.001 0.00965,0.002 0.010335,0 0.025494,6.9e-4 0.015847,6.9e-4 0.033073,6.9e-4 0.017914,0 0.033073,0 0.015847,0 0.026183,0 0.010335,0 0.011024,0 0.013091,0 0.02825,0 0.015158,-6.9e-4 0.028939,-0.001 0.01378,-0.001 0.024805,-0.003 0.011024,-0.002 0.015847,-0.006 0.00276,-0.001 0.00758,-0.006 0.00551,-0.004 0.00896,-0.004 0.00207,0 0.00207,0.003 0,0.004 -0.00413,0.0131 -0.00413,0.009 -0.00965,0.0193 -0.00482,0.01 -0.010335,0.0179 -0.00482,0.008 -0.00758,0.0103 -0.00551,0.006 -0.015158,0.008 -0.00965,0.003 -0.02136,0.005 -0.011713,0.001 -0.024805,0.002 -0.012402,6.9e-4 -0.024116,6.9e-4 -0.010335,0 -0.019292,-6.9e-4 -0.00827,0 -0.01378,0 h -0.041341 q -0.037896,0 -0.076481,6.9e-4 -0.038585,6.9e-4 -0.075103,-0.005 0,-0.002 0.00482,-0.008 0.00551,-0.006 0.011713,-0.0124 0.00689,-0.007 0.013091,-0.0124 0.00689,-0.006 0.00965,-0.008 z" />
      <path
         id="path938"
         style="font-style:normal;font-variant:normal;font-weight:normal;font-stretch:normal;font-size:0.70555562px;font-family:'JMH Grace';-inkscape-font-specification:'JMH Grace';letter-spacing:0.22225px;fill:#333333;fill-opacity:1;stroke-width:0.26458332"
         d="m 9.6857352,296.28523 q 0.03514,-0.0303 0.071658,-0.0675 0.036518,-0.0379 0.066146,-0.0799 0.029628,-0.0427 0.048231,-0.0882 0.019292,-0.0462 0.019292,-0.093 0,-0.0124 -6.89e-4,-0.022 0,-0.01 -0.00207,-0.0186 -0.00138,-0.009 -0.00551,-0.0179 -0.00345,-0.009 -0.010335,-0.0193 -0.015847,-0.0227 -0.040652,-0.0351 -0.024116,-0.0124 -0.051676,-0.0124 -0.039274,0 -0.061323,0.0221 -0.022049,0.0214 -0.022049,0.0606 0,0.0276 0.00827,0.0544 0.00207,0.006 0.00207,0.0103 0,0.005 -0.00276,0.005 -0.00827,0 -0.015158,-0.01 -0.0062,-0.01 -0.011024,-0.0234 -0.00482,-0.0138 -0.00758,-0.0289 -0.00207,-0.0152 -0.00207,-0.0269 0,-0.0269 0.012402,-0.0496 0.013091,-0.0227 0.033073,-0.0393 0.019982,-0.0165 0.045475,-0.0255 0.025494,-0.01 0.050987,-0.01 0.031006,0 0.057189,0.0117 0.026872,0.011 0.046164,0.031 0.019293,0.02 0.029628,0.0469 0.011024,0.0269 0.011024,0.0579 0,0.0441 -0.015158,0.0854 -0.015158,0.0407 -0.039274,0.0779 -0.024116,0.0372 -0.054433,0.071 -0.030317,0.0331 -0.059945,0.062 -0.00138,0.001 -0.00965,0.01 -0.00827,0.008 -0.017914,0.0165 -0.00896,0.009 -0.016537,0.0165 -0.00689,0.008 -0.00689,0.009 0,0.001 0.00965,0.002 0.010335,0 0.025494,6.9e-4 0.015847,6.9e-4 0.033073,6.9e-4 0.017914,0 0.033073,0 0.015847,0 0.026183,0 0.010335,0 0.011024,0 0.013091,0 0.02825,0 0.015158,-6.9e-4 0.028939,-0.001 0.01378,-0.001 0.024805,-0.003 0.011024,-0.002 0.015847,-0.006 0.00276,-0.001 0.00758,-0.006 0.00551,-0.004 0.00896,-0.004 0.00207,0 0.00207,0.003 0,0.004 -0.00413,0.0131 -0.00413,0.009 -0.00965,0.0193 -0.00482,0.01 -0.010335,0.0179 -0.00482,0.008 -0.00758,0.0103 -0.00551,0.006 -0.015158,0.008 -0.00965,0.003 -0.02136,0.005 -0.011713,0.001 -0.024805,0.002 -0.012402,6.9e-4 -0.024116,6.9e-4 -0.010335,0 -0.019293,-6.9e-4 -0.00827,0 -0.01378,0 h -0.041341 q -0.037896,0 -0.076481,6.9e-4 -0.038585,6.9e-4 -0.075103,-0.005 0,-0.002 0.00482,-0.008 0.00551,-0.006 0.011713,-0.0124 0.00689,-0.007 0.013091,-0.0124 0.00689,-0.006 0.00965,-0.008 z" />
      <path
         id="path940"
         style="font-style:normal;font-variant:normal;font-weight:normal;font-stretch:normal;font-size:0.70555562px;font-family:'JMH Grace';-inkscape-font-specification:'JMH Grace';letter-spacing:0.22225px;fill:#333333;fill-opacity:1;stroke-width:0.26458332"
         d="m 10.357225,295.97173 q 0,0.0358 0.01309,0.0682 0.01309,0.0317 0.03652,0.0558 0.02343,0.0241 0.05443,0.0386 0.0317,0.0138 0.06821,0.0138 0.02825,0 0.05581,-0.011 0.02756,-0.011 0.04961,-0.0296 0.02205,-0.0193 0.03514,-0.0448 0.01378,-0.0262 0.01378,-0.0565 0,-0.0372 -0.01171,-0.0717 -0.01171,-0.0351 -0.03859,-0.0613 -0.01516,-0.0145 -0.02825,-0.0227 -0.01309,-0.008 -0.02687,-0.0124 -0.01309,-0.004 -0.02894,-0.005 -0.01585,-0.001 -0.03652,-0.001 h -0.01516 q -0.01171,0 -0.02067,6.9e-4 -0.009,0 -0.01723,0.001 -0.0083,0.001 -0.01654,0.006 -0.0076,0.003 -0.01723,0.01 -0.03238,0.022 -0.05099,0.0524 -0.01792,0.0303 -0.01792,0.0703 z m 0.374138,0.0186 q 0,0.02 -0.0021,0.0407 -0.0021,0.0207 -0.009,0.04 -0.01929,0.0558 -0.03996,0.10128 -0.02067,0.0455 -0.04616,0.0861 -0.02549,0.04 -0.05788,0.0786 -0.03169,0.0386 -0.07304,0.0799 -0.01998,0.02 -0.04961,0.0462 -0.02894,0.0262 -0.0627,0.0496 -0.03307,0.0234 -0.06752,0.04 -0.03445,0.0165 -0.06408,0.0165 -0.0021,0 -0.0083,-6.9e-4 -0.0055,-6.9e-4 -0.01171,-0.002 -0.0062,-0.001 -0.01102,-0.003 -0.0041,-0.002 -0.0041,-0.005 0,-0.003 0.0048,-0.005 0.0055,-0.001 0.0124,-0.003 0.0069,-6.9e-4 0.01309,-0.001 0.0062,-6.9e-4 0.0076,-6.9e-4 0.01309,-0.001 0.02343,-0.004 0.01034,-0.002 0.01929,-0.006 0.0096,-0.003 0.0186,-0.009 0.009,-0.006 0.01998,-0.0131 0.02549,-0.0172 0.05857,-0.0469 0.03376,-0.0296 0.06684,-0.0641 0.03376,-0.0338 0.06339,-0.0675 0.02963,-0.0338 0.04754,-0.0593 0.0048,-0.007 0.01378,-0.0214 0.009,-0.0145 0.01929,-0.0331 0.01102,-0.0186 0.02205,-0.0386 0.01103,-0.0207 0.01998,-0.0393 0.009,-0.0186 0.01447,-0.0331 0.0062,-0.0152 0.0062,-0.0221 0,-0.001 -6.89e-4,-0.004 -6.89e-4,-0.003 -0.0034,-0.003 -0.0048,0 -0.0096,0.007 -0.0041,0.007 -0.0062,0.0103 -0.0124,0.0193 -0.0317,0.0379 -0.0186,0.0179 -0.04134,0.0324 -0.02205,0.0145 -0.04685,0.0234 -0.0248,0.008 -0.04823,0.008 -0.03859,0 -0.07097,-0.0165 -0.03169,-0.0165 -0.05581,-0.0434 -0.02343,-0.0269 -0.03652,-0.0613 -0.01309,-0.0344 -0.01309,-0.071 0,-0.0441 0.01516,-0.082 0.01516,-0.0386 0.04134,-0.0689 0.02687,-0.031 0.0627,-0.0524 0.03583,-0.0221 0.07717,-0.0324 0.01033,-0.003 0.02205,-0.006 0.01171,-0.003 0.02274,-0.003 0.02687,0 0.05305,0.0124 0.02687,0.0117 0.04961,0.031 0.02274,0.0193 0.03996,0.0441 0.01722,0.0241 0.0248,0.0482 0.0069,0.0207 0.009,0.0434 0.0028,0.0227 0.0028,0.0448 z" />
    </g>
    <g
       id="text12-3"
       style="font-style:normal;font-weight:normal;font-size:10.58333302px;line-height:1.25;font-family:sans-serif;letter-spacing:0px;word-spacing:0px;fill:#333333;fill-opacity:1;stroke:none;stroke-width:0.26458332"
       aria-label="bookings@dhruid.com">
      <path
         id="path875"
         style="font-style:normal;font-variant:normal;font-weight:normal;font-stretch:normal;font-size:0.70555562px;font-family:'JMH Grace';-inkscape-font-specification:'JMH Grace';letter-spacing:0.22225001px;fill:#333333;fill-opacity:1;stroke-width:0.26458332"
         d="m 0.61092579,295.16294 q 0,-0.008 0.005512,-0.0103 0.005512,-0.003 0.0130914,-0.005 0.007579,-0.002 0.0158474,-0.007 0.008268,-0.006 0.0137804,-0.02 6.8902e-4,-0.002 0.001378,-0.0145 6.8902e-4,-0.0124 6.8902e-4,-0.0296 6.8902e-4,-0.0172 6.8902e-4,-0.0372 0,-0.02 0,-0.0372 0,-0.0179 0,-0.0303 0,-0.0131 0,-0.0158 0,-0.0744 -0.001378,-0.14745 -6.8902e-4,-0.0737 -6.8902e-4,-0.14883 0,-0.0124 -6.8902e-4,-0.0255 0,-0.0138 -0.002067,-0.0248 -0.001378,-0.011 -0.005512,-0.0179 -0.003445,-0.008 -0.0103353,-0.008 -0.007579,0 -0.0137804,0.008 -0.005512,0.007 -0.009646,0.007 -0.003445,0 -0.00689,-0.006 -0.002756,-0.006 -0.002756,-0.008 0,-0.004 0.002756,-0.008 0.002756,-0.003 0.00689,-0.006 0.004134,-0.003 0.008268,-0.005 0.004823,-0.003 0.007579,-0.004 0.004134,-0.002 0.0144694,-0.008 0.0110243,-0.007 0.0220486,-0.0138 0.0110243,-0.007 0.0206706,-0.0124 0.009646,-0.006 0.0117133,-0.006 0.005512,0 0.005512,0.006 6.8902e-4,0.006 6.8902e-4,0.009 0,0.0159 -6.8902e-4,0.0317 -6.8902e-4,0.0152 -6.8902e-4,0.031 0,0.006 0,0.0248 0,0.0179 0,0.0427 6.8902e-4,0.0241 0.001378,0.051 6.8902e-4,0.0269 0.001378,0.0503 6.8902e-4,0.0227 0.001378,0.0386 6.8902e-4,0.0159 0.001378,0.0179 0.0172255,-0.006 0.0330729,-0.0138 0.0158474,-0.008 0.0310059,-0.0138 0.0158474,-0.006 0.0323839,-0.0103 0.0172255,-0.004 0.037207,-0.004 0.0220486,0 0.0461643,0.008 0.0227376,0.008 0.0399631,0.0179 0.0179145,0.01 0.0303168,0.0234 0.0130914,0.0138 0.0220486,0.0317 0.009646,0.0172 0.0165365,0.0407 0.00207,0.008 0.00344,0.0152 0.00207,0.007 0.00207,0.0145 0,0.0462 -0.0192925,0.0827 -0.0186035,0.0365 -0.0482313,0.0668 -0.0220486,0.0227 -0.0413411,0.0372 -0.0192925,0.0138 -0.0399631,0.0227 -0.0206706,0.009 -0.0447863,0.0131 -0.0241157,0.004 -0.0551215,0.006 -0.0337619,0.002 -0.0675239,0.006 -0.0337619,0.003 -0.0668349,0.003 -0.005512,0 -0.009646,-0.001 -0.003445,-0.001 -0.003445,-0.008 z m 0.32521704,-0.22186 q 0,-0.0234 -0.00689,-0.0475 -0.006201,-0.0248 -0.0199816,-0.0441 -0.0130914,-0.02 -0.0330729,-0.0324 -0.0199816,-0.0131 -0.0468533,-0.0131 -0.0502984,0 -0.0785482,0.0344 -0.0282498,0.0345 -0.0282498,0.091 v 0.0999 q 0,0.031 0.001378,0.0524 0.002067,0.0214 0.007579,0.0344 0.006201,0.0131 0.0165365,0.0193 0.0103353,0.006 0.0282498,0.006 0.0241157,0 0.0454753,-0.009 0.0220486,-0.01 0.0406521,-0.0248 0.0186035,-0.0159 0.0330729,-0.0358 0.0151584,-0.02 0.0248047,-0.0407 0.008268,-0.0179 0.0117133,-0.0434 0.004134,-0.0262 0.004134,-0.0462 z" />
      <path
         id="path877"
         style="font-style:normal;font-variant:normal;font-weight:normal;font-stretch:normal;font-size:0.70555562px;font-family:'JMH Grace';-inkscape-font-specification:'JMH Grace';letter-spacing:0.22225001px;fill:#333333;fill-opacity:1;stroke-width:0.26458332"
         d="m 1.6014321,294.95072 q 0,-0.0179 -0.00276,-0.0372 -0.00207,-0.02 -0.00758,-0.0386 -0.00482,-0.0186 -0.014469,-0.0351 -0.00896,-0.0172 -0.022049,-0.0303 -0.00896,-0.009 -0.022738,-0.0145 -0.013091,-0.006 -0.02825,-0.01 -0.014469,-0.003 -0.029628,-0.005 -0.014469,-0.002 -0.026872,-0.002 -0.035829,0 -0.06339,0.0145 -0.026872,0.0145 -0.045475,0.0386 -0.017914,0.0234 -0.027561,0.0537 -0.00896,0.0303 -0.00896,0.0627 0,0.008 -6.89e-4,0.0159 0,0.008 0,0.0152 0,0.0165 0.00207,0.0324 0.00276,0.0152 0.010335,0.031 0.00965,0.02 0.026183,0.0372 0.016536,0.0165 0.036518,0.0289 0.019982,0.0117 0.04203,0.0186 0.022738,0.007 0.044786,0.007 0.034451,0 0.059945,-0.0158 0.026183,-0.0165 0.043408,-0.0427 0.017915,-0.0262 0.026183,-0.0586 0.00896,-0.0331 0.00896,-0.0661 z m -0.3576009,0.0193 q 0,-0.0448 0.016536,-0.0834 0.016536,-0.0393 0.045475,-0.0682 0.028939,-0.0289 0.067524,-0.0455 0.039274,-0.0165 0.08406,-0.0165 0.068213,0 0.1150662,0.0276 0.046853,0.0276 0.073036,0.0923 0.01378,0.0372 0.01378,0.0744 0,0.0524 -0.019293,0.0923 -0.018603,0.0393 -0.049609,0.0661 -0.031006,0.0269 -0.07028,0.0407 -0.039274,0.0131 -0.079237,0.0131 -0.046164,0 -0.082682,-0.0138 -0.036518,-0.0145 -0.062012,-0.04 -0.025494,-0.0255 -0.039274,-0.0606 -0.013091,-0.0358 -0.013091,-0.0786 z" />
      <path
         id="path879"
         style="font-style:normal;font-variant:normal;font-weight:normal;font-stretch:normal;font-size:0.70555562px;font-family:'JMH Grace';-inkscape-font-specification:'JMH Grace';letter-spacing:0.22225001px;fill:#333333;fill-opacity:1;stroke-width:0.26458332"
         d="m 2.2660325,294.95072 q 0,-0.0179 -0.00276,-0.0372 -0.00207,-0.02 -0.00758,-0.0386 -0.00482,-0.0186 -0.014469,-0.0351 -0.00896,-0.0172 -0.022049,-0.0303 -0.00896,-0.009 -0.022738,-0.0145 -0.013091,-0.006 -0.02825,-0.01 -0.014469,-0.003 -0.029628,-0.005 -0.014469,-0.002 -0.026872,-0.002 -0.035829,0 -0.06339,0.0145 -0.026872,0.0145 -0.045475,0.0386 -0.017915,0.0234 -0.027561,0.0537 -0.00896,0.0303 -0.00896,0.0627 0,0.008 -6.89e-4,0.0159 0,0.008 0,0.0152 0,0.0165 0.00207,0.0324 0.00276,0.0152 0.010335,0.031 0.00965,0.02 0.026183,0.0372 0.016536,0.0165 0.036518,0.0289 0.019982,0.0117 0.04203,0.0186 0.022738,0.007 0.044786,0.007 0.034451,0 0.059945,-0.0158 0.026183,-0.0165 0.043408,-0.0427 0.017914,-0.0262 0.026183,-0.0586 0.00896,-0.0331 0.00896,-0.0661 z m -0.3576009,0.0193 q 0,-0.0448 0.016536,-0.0834 0.016536,-0.0393 0.045475,-0.0682 0.028939,-0.0289 0.067524,-0.0455 0.039274,-0.0165 0.08406,-0.0165 0.068213,0 0.1150662,0.0276 0.046853,0.0276 0.073036,0.0923 0.01378,0.0372 0.01378,0.0744 0,0.0524 -0.019293,0.0923 -0.018603,0.0393 -0.049609,0.0661 -0.031006,0.0269 -0.07028,0.0407 -0.039274,0.0131 -0.079237,0.0131 -0.046164,0 -0.082682,-0.0138 -0.036518,-0.0145 -0.062012,-0.04 -0.025494,-0.0255 -0.039274,-0.0606 -0.013091,-0.0358 -0.013091,-0.0786 z" />
      <path
         id="path881"
         style="font-style:normal;font-variant:normal;font-weight:normal;font-stretch:normal;font-size:0.70555562px;font-family:'JMH Grace';-inkscape-font-specification:'JMH Grace';letter-spacing:0.22225001px;fill:#333333;fill-opacity:1;stroke-width:0.26458332"
         d="m 2.6922321,294.96657 q -0.00551,0 -0.00896,0.005 -0.00345,0.004 -0.00551,0.011 -0.00138,0.007 -0.00207,0.0145 0,0.008 0,0.0145 v 0.0117 q 0,0.006 6.89e-4,0.0227 6.89e-4,0.0165 0.00207,0.0344 0.00138,0.0172 0.00413,0.0324 0.00276,0.0152 0.00689,0.0193 0.00138,0.001 0.00551,0.003 0.00482,6.9e-4 0.010335,0.001 0.00551,6.9e-4 0.010335,0.001 0.00482,6.9e-4 0.00689,6.9e-4 0.00551,6.9e-4 0.011024,6.9e-4 0.00551,0 0.00965,0.001 0.00413,6.8e-4 0.00689,0.004 0.00345,0.003 0.00413,0.009 l 0.00138,0.0117 q -0.090261,0.002 -0.179834,0.002 -6.89e-4,-0.003 -0.00138,-0.007 0,-0.004 0,-0.008 0,-0.007 0.00413,-0.01 0.00482,-0.003 0.010335,-0.005 0.0062,-0.001 0.011713,-0.002 0.0062,-6.9e-4 0.00965,-0.003 0.00276,-0.003 0.00482,-0.011 0.00207,-0.008 0.00345,-0.0193 0.00138,-0.011 0.00138,-0.0241 6.89e-4,-0.0131 6.89e-4,-0.0255 0,-0.0152 -6.89e-4,-0.0269 0,-0.0117 0,-0.0159 6.89e-4,-0.0462 6.89e-4,-0.0923 0,-0.0462 0,-0.0923 v -0.0785 q 0,-0.0103 0,-0.0276 0,-0.0172 0,-0.0365 0,-0.02 -0.00138,-0.0393 -6.89e-4,-0.02 -0.00276,-0.0358 -0.00138,-0.0165 -0.00482,-0.0262 -0.00345,-0.0103 -0.00827,-0.0103 -0.00482,0 -0.00896,0.006 -0.00413,0.006 -0.011024,0.006 -0.00482,0 -0.00758,-0.003 -0.00207,-0.003 -0.00207,-0.008 0,-0.003 0.00276,-0.007 0.00345,-0.003 0.00758,-0.006 0.00413,-0.003 0.00827,-0.005 0.00413,-0.002 0.00689,-0.003 0.00551,-0.003 0.018604,-0.0103 0.013091,-0.008 0.026872,-0.0159 0.01378,-0.008 0.025494,-0.0145 0.011713,-0.006 0.015158,-0.006 0.00345,0 0.00689,0.003 0.00413,0.003 0.00413,0.006 0,0.003 -0.00276,0.008 -0.00276,0.004 -0.00482,0.008 -0.00413,0.006 -0.00689,0.0214 -0.00207,0.0145 -0.00413,0.0344 -0.00138,0.02 -0.00207,0.0427 -6.89e-4,0.0221 -0.00138,0.0427 0,0.02 0,0.0358 0,0.0158 0,0.0234 v 0.0496 q 0,0.0241 0,0.0469 0,0.022 6.891e-4,0.0393 0.00138,0.0165 0.00345,0.0269 0.00276,0.0103 0.00758,0.0103 0.00276,0 0.016536,-0.005 0.01378,-0.006 0.032384,-0.0138 0.019293,-0.008 0.039963,-0.0186 0.02136,-0.0103 0.039274,-0.02 0.017914,-0.01 0.029628,-0.0179 0.011713,-0.008 0.011713,-0.0131 0,-0.003 -0.0062,-0.004 -0.0062,-0.001 -0.01378,-0.002 -0.00758,-0.001 -0.01378,-0.003 -0.0062,-0.002 -0.0062,-0.008 0,-0.004 0.00482,-0.007 0.00551,-0.003 0.01378,-0.004 0.00827,-0.002 0.017914,-0.002 0.010335,-6.9e-4 0.019982,-6.9e-4 0.018604,0 0.031695,6.9e-4 0.01378,0 0.025494,0 0.011713,0 0.022738,6.9e-4 0.011713,0 0.025494,0 6.89e-4,0.003 6.89e-4,0.008 6.89e-4,0.003 6.89e-4,0.007 0,0.006 -0.00551,0.009 -0.00482,0.003 -0.011713,0.005 -0.0062,0.001 -0.013091,0.002 -0.00689,6.9e-4 -0.011024,0.001 -0.027561,0.003 -0.054433,0.0165 -0.026183,0.0124 -0.050298,0.0248 -0.00345,0.001 -0.01378,0.007 -0.010335,0.006 -0.024805,0.0131 -0.014469,0.008 -0.030317,0.0165 -0.015158,0.008 -0.02825,0.0165 -0.013091,0.008 -0.022049,0.0145 -0.00827,0.006 -0.00827,0.009 0,6.9e-4 0.015847,0.007 0.015848,0.006 0.037896,0.0152 0.022049,0.009 0.044786,0.02 0.023427,0.011 0.037896,0.0214 0.018603,0.0138 0.038585,0.0386 0.020671,0.0241 0.04203,0.0482 0.02136,0.0241 0.043408,0.042 0.022738,0.0179 0.044786,0.0179 0.00758,0 0.014469,-0.002 0.00758,-0.002 0.015158,-0.002 0.00758,0 0.00758,0.008 0,0.008 -0.00482,0.0117 -0.00482,0.004 -0.012402,0.006 -0.00758,0.002 -0.016536,0.002 -0.00827,6.8e-4 -0.015158,6.8e-4 -0.00965,0 -0.019293,0 -0.00965,6.9e-4 -0.017914,-0.002 -0.019982,-0.006 -0.042719,-0.022 -0.022738,-0.0159 -0.045475,-0.0351 -0.022738,-0.02 -0.043408,-0.04 -0.019982,-0.02 -0.034451,-0.0344 -0.010335,-0.0103 -0.022049,-0.022 -0.011024,-0.0124 -0.024116,-0.0221 -0.012402,-0.0103 -0.026872,-0.0172 -0.01378,-0.007 -0.030317,-0.007 z" />
      <path
         id="path883"
         style="font-style:normal;font-variant:normal;font-weight:normal;font-stretch:normal;font-size:0.70555562px;font-family:'JMH Grace';-inkscape-font-specification:'JMH Grace';letter-spacing:0.22225001px;fill:#333333;fill-opacity:1;stroke-width:0.26458332"
         d="m 3.2713941,295.14572 q 0,-0.008 0.00758,-0.01 0.00758,-0.002 0.017225,-0.003 0.00965,-6.9e-4 0.017914,-0.001 0.00896,-6.9e-4 0.011024,-0.006 0.00138,-0.002 0.00138,-0.0179 0,-0.0165 0,-0.0331 v -0.0848 q 0,-0.0117 0,-0.0351 6.891e-4,-0.0241 -6.89e-4,-0.0475 -6.89e-4,-0.0241 -0.00345,-0.042 -0.00276,-0.0179 -0.00896,-0.0179 -0.00207,0 -0.00551,0.003 -0.00345,0.002 -0.00758,0.006 -0.00345,0.003 -0.00689,0.006 -0.00345,0.002 -0.0062,0.002 -0.00345,0 -0.0062,-0.006 -0.00276,-0.006 -0.00276,-0.009 0,-0.006 0.012402,-0.0145 0.012402,-0.009 0.02825,-0.0172 0.016536,-0.009 0.031695,-0.0152 0.015848,-0.006 0.02136,-0.006 0.00689,0 0.00827,0.006 0.00138,0.005 0.00138,0.0103 0,0.0372 -0.00276,0.0737 -0.00207,0.0365 -0.00207,0.0737 0,0.006 0,0.0193 0,0.0131 0,0.031 6.891e-4,0.0172 0.00138,0.0365 6.89e-4,0.0186 0.00207,0.0351 0.00138,0.0165 0.00276,0.0289 0.00207,0.0117 0.00482,0.0158 0.00482,0.008 0.014469,0.008 0.00965,6.9e-4 0.018604,0.001 0.00896,0 0.015847,0.003 0.00689,0.003 0.00689,0.0165 0,0.004 -0.00276,0.004 -0.00207,0 -0.0062,-0.001 -0.011713,-0.003 -0.024116,-0.004 -0.011713,-6.8e-4 -0.023427,-6.8e-4 -0.022738,0 -0.044786,0.002 -0.02136,0.002 -0.043408,0.002 -0.00896,0 -0.018604,-0.002 -0.00896,-0.002 -0.00896,-0.0103 z m 0.03514,-0.53744 q 0,-0.0145 0.012402,-0.0234 0.012402,-0.01 0.026183,-0.01 0.011024,0 0.018603,0.007 0.00758,0.006 0.00758,0.0179 0,0.0165 -0.013091,0.0269 -0.012402,0.0103 -0.02825,0.0103 -0.011713,0 -0.017914,-0.009 -0.00551,-0.01 -0.00551,-0.02 z" />
      <path
         id="path885"
         style="font-style:normal;font-variant:normal;font-weight:normal;font-stretch:normal;font-size:0.70555562px;font-family:'JMH Grace';-inkscape-font-specification:'JMH Grace';letter-spacing:0.22225001px;fill:#333333;fill-opacity:1;stroke-width:0.26458332"
         d="m 3.6824354,295.15605 q 0,-0.006 0.00413,-0.009 0.00413,-0.003 0.00965,-0.004 0.00551,-0.001 0.010335,-0.002 0.00551,-6.8e-4 0.00758,-0.003 0.00276,-0.003 0.00413,-0.0138 0.00138,-0.0103 0.00207,-0.0241 6.891e-4,-0.0145 6.891e-4,-0.0303 6.89e-4,-0.0159 6.89e-4,-0.0303 v -0.0448 q 0,-0.008 0,-0.0214 0,-0.0145 0,-0.0303 0,-0.0165 -6.89e-4,-0.0331 -6.891e-4,-0.0165 -0.00207,-0.0296 -6.89e-4,-0.0138 -0.00276,-0.022 -0.00138,-0.009 -0.00413,-0.009 -0.00551,0 -0.011713,0.005 -0.00551,0.004 -0.012402,0.004 -0.00827,0 -0.00827,-0.009 0,-0.004 0.01378,-0.0131 0.014469,-0.009 0.032384,-0.0179 0.018603,-0.01 0.03514,-0.0172 0.017225,-0.008 0.023427,-0.0103 6.89e-4,6.9e-4 6.89e-4,0.003 0,0.01 -0.00413,0.0186 -0.00413,0.008 -0.00413,0.0172 0,0.006 0.0062,0.006 0.00413,0 0.016536,-0.008 0.012402,-0.008 0.030317,-0.0179 0.018603,-0.01 0.039963,-0.0179 0.02136,-0.008 0.042719,-0.008 0.01378,0 0.029628,0.003 0.015847,0.003 0.031006,0.008 0.015847,0.005 0.028939,0.0124 0.01378,0.008 0.023427,0.0179 0.015158,0.0172 0.023427,0.0448 0.00827,0.0269 0.011713,0.0572 0.00345,0.0296 0.00413,0.0593 6.89e-4,0.0289 0.00138,0.0503 0,0.006 0,0.02 0,0.0138 6.891e-4,0.0289 6.89e-4,0.0152 0.00276,0.0283 0.00276,0.0131 0.00689,0.0172 0.00276,0.003 0.0062,0.004 0.00413,0 0.00827,0 h 0.011713 q 0.00689,0 0.01378,0.002 0.00689,0.002 0.00689,0.011 l -6.89e-4,0.004 q -6.89e-4,0.007 -0.015847,0.009 -0.015158,0.001 -0.031695,0.001 -0.011024,0 -0.019982,-6.9e-4 -0.00827,0 -0.011024,0 h -0.023427 q -0.00345,0 -0.01378,0 -0.00965,6.9e-4 -0.020671,0 -0.010335,0 -0.018604,-0.002 -0.00827,-0.003 -0.00827,-0.008 0,-0.008 0.00413,-0.011 0.00482,-0.003 0.011024,-0.003 0.0062,-6.9e-4 0.012402,-0.001 0.00689,-6.8e-4 0.011713,-0.004 0.00207,-0.001 0.00276,-0.0117 6.891e-4,-0.011 6.891e-4,-0.0234 6.89e-4,-0.0131 6.89e-4,-0.0234 0,-0.011 0,-0.0131 v -0.0324 q 0,-0.0186 0,-0.042 0,-0.0234 -0.00276,-0.0475 -0.00207,-0.0248 -0.00758,-0.0476 -0.00551,-0.0234 -0.016537,-0.0413 -0.011024,-0.0179 -0.028939,-0.0289 -0.017225,-0.011 -0.043408,-0.011 -0.013091,0 -0.024805,0.003 -0.011713,0.003 -0.023427,0.009 -0.018603,0.009 -0.030317,0.0165 -0.011713,0.008 -0.019292,0.0172 -0.00758,0.01 -0.01378,0.0227 -0.0062,0.0131 -0.014469,0.0317 -6.89e-4,0.0351 -0.00138,0.0696 -6.89e-4,0.0338 -6.89e-4,0.0689 0,0.003 0,0.0159 0,0.0124 0,0.0269 6.89e-4,0.0145 6.89e-4,0.0269 6.89e-4,0.0117 0.00138,0.0131 0.00276,0.006 0.010335,0.007 0.00827,6.9e-4 0.016536,0.001 0.00827,0 0.014469,0.002 0.00689,0.002 0.00689,0.01 0,0.0103 -0.017915,0.0124 -0.017914,0.003 -0.046853,0.003 -0.010335,0 -0.018604,-6.9e-4 -0.00827,0 -0.011713,0 -0.00138,0 -0.0062,0 -0.00482,6.9e-4 -0.010335,6.9e-4 -0.010335,0 -0.02136,-0.001 -0.010335,-0.001 -0.010335,-0.007 z" />
      <path
         id="path887"
         style="font-style:normal;font-variant:normal;font-weight:normal;font-stretch:normal;font-size:0.70555562px;font-family:'JMH Grace';-inkscape-font-specification:'JMH Grace';letter-spacing:0.22225001px;fill:#333333;fill-opacity:1;stroke-width:0.26458332"
         d="m 4.7005025,294.99138 q 0,-0.0276 -0.00689,-0.0565 -0.00689,-0.0296 -0.022049,-0.0531 -0.011713,-0.0186 -0.024805,-0.0303 -0.012402,-0.0117 -0.027561,-0.0179 -0.014469,-0.007 -0.032384,-0.01 -0.017226,-0.003 -0.037896,-0.003 -0.012402,0 -0.022738,0.003 -0.010335,0.003 -0.022049,0.008 -0.046853,0.0193 -0.072347,0.0572 -0.025494,0.0379 -0.025494,0.0889 0,0.0331 0.010335,0.0613 0.011024,0.0276 0.030317,0.0482 0.019982,0.0207 0.047542,0.0324 0.027561,0.0117 0.060634,0.0117 0.034451,0 0.061323,-0.011 0.026872,-0.0117 0.045475,-0.031 0.018604,-0.0193 0.02825,-0.0448 0.010335,-0.0255 0.010335,-0.0544 z m 0.00689,0.33073 q 0,-0.0159 -0.011024,-0.0276 -0.010335,-0.0117 -0.026183,-0.0117 -0.015847,0 -0.031006,0.004 -0.015158,0.004 -0.031006,0.009 -0.015158,0.006 -0.031006,0.01 -0.015159,0.004 -0.031006,0.004 -0.014469,0 -0.026872,-0.006 -0.012402,-0.006 -0.025494,-0.0124 -0.013091,0.0145 -0.022738,0.0269 -0.00896,0.0124 -0.00896,0.0331 0,0.0207 0.00827,0.0338 0.00896,0.0138 0.022738,0.0214 0.014469,0.008 0.031695,0.011 0.017225,0.003 0.033762,0.003 0.022049,0 0.045475,-0.005 0.023427,-0.005 0.043408,-0.0152 0.012402,-0.006 0.022738,-0.0165 0.011024,-0.0103 0.019293,-0.022 0.00827,-0.011 0.013091,-0.0221 0.00482,-0.0103 0.00482,-0.0179 z m -0.3045465,0.0386 q 0,-0.0276 0.011713,-0.0462 0.012402,-0.0179 0.026872,-0.0317 0.015158,-0.0131 0.02825,-0.0234 0.01378,-0.0103 0.016536,-0.022 0.00207,-0.008 0.00827,-0.0179 0.0062,-0.0103 0.010335,-0.0165 6.891e-4,-0.001 0.00345,-0.006 0.00276,-0.003 0.00551,-0.008 0.00276,-0.004 0.00482,-0.008 0.00207,-0.003 0.00207,-0.006 0,-0.003 -0.00689,-0.006 -0.0062,-0.001 -0.00827,-0.002 -0.026872,-0.006 -0.053744,-0.0179 -0.026183,-0.0124 -0.046853,-0.0317 -0.020671,-0.02 -0.033762,-0.0462 -0.012402,-0.0269 -0.012402,-0.0606 0,-0.0207 0.00482,-0.0413 0.00482,-0.0214 0.013091,-0.0414 0.00827,-0.02 0.019982,-0.0379 0.011713,-0.0186 0.025494,-0.0338 0.015848,-0.0172 0.03514,-0.0303 0.019982,-0.0131 0.040652,-0.0241 0.02136,-0.011 0.042719,-0.0214 0.02136,-0.011 0.040652,-0.0241 0.011713,-0.008 0.025494,-0.0207 0.014469,-0.0131 0.026183,-0.0283 0.012402,-0.0159 0.019982,-0.0324 0.00827,-0.0165 0.00827,-0.0317 0,-0.009 -0.00345,-0.0131 -0.00276,-0.004 -0.00276,-0.008 0,-0.008 0.00758,-0.01 0.00827,-0.002 0.01378,-0.002 0.019292,0 0.024116,0.01 0.00482,0.009 0.00482,0.0262 0,0.02 -0.014469,0.0386 -0.01378,0.0186 -0.034451,0.0358 -0.020671,0.0172 -0.043408,0.0331 -0.022738,0.0159 -0.039274,0.0296 l 0.047542,0.009 q 0.026872,0.006 0.050298,0.0186 0.024116,0.0124 0.04203,0.0324 0.017914,0.0193 0.02825,0.0455 0.010335,0.0262 0.010335,0.0572 0,0.0165 -6.89e-4,0.0269 0,0.01 -0.00138,0.0172 -0.00138,0.008 -0.00482,0.0145 -0.00276,0.007 -0.00827,0.0179 -0.015158,0.0296 -0.028939,0.0496 -0.01378,0.02 -0.030317,0.0351 -0.015847,0.0152 -0.037207,0.0283 -0.020671,0.0131 -0.049609,0.0289 -0.00827,0.004 -0.02136,0.0124 -0.013091,0.008 -0.026183,0.0179 -0.013091,0.0103 -0.022738,0.0214 -0.00896,0.0117 -0.00896,0.022 0,0.006 0.00345,0.01 0.00345,0.005 0.00827,0.008 0.00482,0.003 0.010335,0.004 0.00551,0.001 0.010335,0.001 0.015159,0 0.033762,-0.005 0.019292,-0.005 0.039274,-0.011 0.019982,-0.006 0.040652,-0.011 0.020671,-0.005 0.039963,-0.005 0.02825,0 0.047542,0.0145 0.019982,0.0152 0.019982,0.0455 0,0.0289 -0.019293,0.0524 -0.019292,0.0234 -0.046853,0.042 -0.026872,0.0193 -0.056499,0.0338 -0.029628,0.0145 -0.050987,0.0248 -0.022049,6.9e-4 -0.043408,0.001 -0.021359,6.9e-4 -0.043408,6.9e-4 -0.017914,0 -0.036518,-0.006 -0.017914,-0.006 -0.032384,-0.0179 -0.014469,-0.011 -0.024116,-0.0269 -0.00896,-0.0159 -0.00896,-0.0351 z" />
      <path
         id="path889"
         style="font-style:normal;font-variant:normal;font-weight:normal;font-stretch:normal;font-size:0.70555562px;font-family:'JMH Grace';-inkscape-font-specification:'JMH Grace';letter-spacing:0.22225001px;fill:#333333;fill-opacity:1;stroke-width:0.26458332"
         d="m 5.0274834,295.14503 q -0.00689,-0.009 -0.011024,-0.0172 -0.00413,-0.009 -0.00413,-0.02 0,-0.008 0.00413,-0.0152 0.00482,-0.008 0.011024,-0.0131 0.00689,-0.006 0.015158,-0.009 0.00827,-0.003 0.016536,-0.003 0.013091,0 0.018604,0.006 0.0062,0.006 0.00827,0.0138 0.00276,0.008 0.00345,0.0179 6.89e-4,0.009 0.00276,0.0172 0.00207,0.008 0.00689,0.0138 0.00551,0.006 0.017226,0.006 0.01378,0 0.032384,-0.006 0.018604,-0.006 0.035829,-0.0158 0.017914,-0.0103 0.032384,-0.0227 0.014469,-0.0131 0.02067,-0.0262 0.00276,-0.006 0.00413,-0.0165 0.00138,-0.011 0.00138,-0.0172 0,-0.022 -0.00965,-0.0338 -0.00965,-0.0117 -0.026183,-0.0165 -0.015847,-0.006 -0.036518,-0.006 -0.019982,-6.9e-4 -0.041341,-6.9e-4 -0.020671,-6.8e-4 -0.041341,-0.003 -0.019982,-0.003 -0.036518,-0.011 -0.015847,-0.008 -0.025494,-0.0241 -0.00965,-0.0165 -0.00965,-0.0455 0,-0.0117 0.00482,-0.02 0.00551,-0.009 0.011713,-0.0186 0.012402,-0.0186 0.031006,-0.0338 0.019292,-0.0159 0.040652,-0.0262 0.022049,-0.011 0.045475,-0.0165 0.023427,-0.006 0.046164,-0.006 0.010335,0 0.024116,0.004 0.01378,0.004 0.026183,0.0117 0.012402,0.007 0.020671,0.0172 0.00827,0.0103 0.00827,0.0227 0,0.0152 -0.01378,0.0283 -0.013091,0.0124 -0.02825,0.0124 -0.0062,0 -0.013091,-0.003 -0.00689,-0.003 -0.013091,-0.008 -0.0062,-0.005 -0.010335,-0.011 -0.00345,-0.006 -0.00345,-0.0124 0,-0.008 0.00551,-0.0172 0.0062,-0.01 0.010335,-0.0159 -0.00758,-0.005 -0.012402,-0.006 -0.00413,-0.001 -0.01378,-0.001 -0.015847,0 -0.034451,0.005 -0.017914,0.005 -0.033762,0.0145 -0.015847,0.01 -0.026872,0.0234 -0.010335,0.0138 -0.010335,0.0324 0,0.0186 0.00689,0.0283 0.00689,0.01 0.017914,0.0145 0.011713,0.004 0.025494,0.006 0.014469,6.9e-4 0.029628,0.001 0.023427,0.001 0.04892,0.004 0.026183,0.002 0.048231,0.011 0.022049,0.008 0.036518,0.0262 0.014469,0.0172 0.014469,0.0482 0,0.0386 -0.022738,0.0668 -0.022738,0.0276 -0.0565,0.0455 -0.033073,0.0179 -0.071658,0.0269 -0.038585,0.008 -0.07028,0.008 -0.015848,0 -0.029628,-0.002 -0.013091,-0.003 -0.027561,-0.0103 z" />
      <path
         id="path891"
         style="font-style:normal;font-variant:normal;font-weight:normal;font-stretch:normal;font-size:0.70555562px;font-family:'JMH Grace';-inkscape-font-specification:'JMH Grace';letter-spacing:0.22225001px;fill:#333333;fill-opacity:1;stroke-width:0.26458332"
         d="m 5.8009488,294.97519 q 0,0.0493 0.02446,0.0775 0.02446,0.0279 0.067179,0.0279 0.042375,0 0.06649,-0.0282 0.02446,-0.0283 0.02446,-0.0772 0,-0.0482 -0.024805,-0.0765 -0.024805,-0.0286 -0.066835,-0.0286 -0.041686,0 -0.06649,0.0283 -0.02446,0.0282 -0.02446,0.0768 z m 0.1877577,0.103 q -0.020671,0.0265 -0.047542,0.0393 -0.026527,0.0124 -0.062012,0.0124 -0.059256,0 -0.096463,-0.0427 -0.036863,-0.0431 -0.036863,-0.11196 0,-0.0689 0.037207,-0.11197 0.037207,-0.0431 0.096118,-0.0431 0.035484,0 0.062356,0.0131 0.026872,0.0127 0.047198,0.0389 v -0.0451 h 0.049265 v 0.25356 q 0.050298,-0.008 0.078548,-0.0458 0.028594,-0.0386 0.028594,-0.0996 0,-0.0369 -0.011024,-0.0692 -0.01068,-0.0324 -0.032728,-0.0599 -0.035829,-0.0451 -0.087505,-0.0689 -0.051332,-0.0241 -0.1119656,-0.0241 -0.042375,0 -0.081304,0.0114 -0.03893,0.011 -0.072002,0.0331 -0.054088,0.0351 -0.084749,0.0923 -0.030317,0.0568 -0.030317,0.12334 0,0.0548 0.019637,0.10266 0.019981,0.0479 0.057533,0.0844 0.036174,0.0358 0.083716,0.0544 0.047542,0.0189 0.1016303,0.0189 0.044442,0 0.087161,-0.0152 0.043064,-0.0148 0.078893,-0.0427 l 0.031006,0.0382 q -0.043064,0.0334 -0.094051,0.051 -0.050643,0.0179 -0.1030084,0.0179 -0.063734,0 -0.1202338,-0.0227 -0.0565,-0.0224 -0.1005968,-0.0654 -0.044097,-0.0431 -0.067179,-0.0996 -0.023082,-0.0568 -0.023082,-0.12195 0,-0.0627 0.023427,-0.11955 0.023427,-0.0568 0.066835,-0.0999 0.044442,-0.0438 0.1026638,-0.0668 0.058222,-0.0234 0.1233345,-0.0234 0.073036,0 0.1353922,0.03 0.062701,0.03 0.1050755,0.0851 0.025838,0.0338 0.039274,0.0734 0.01378,0.0396 0.01378,0.082 0,0.0906 -0.054777,0.14298 -0.054777,0.0524 -0.1512397,0.0544 z" />
      <path
         id="path893"
         style="font-style:normal;font-variant:normal;font-weight:normal;font-stretch:normal;font-size:0.70555562px;font-family:'JMH Grace';-inkscape-font-specification:'JMH Grace';letter-spacing:0.22225001px;fill:#333333;fill-opacity:1;stroke-width:0.26458332"
         d="m 6.468305,295.0403 q 0,-0.0365 0.011024,-0.0703 0.011024,-0.0338 0.030317,-0.0627 0.019292,-0.0289 0.045475,-0.0531 0.026872,-0.0241 0.058567,-0.0407 0.02136,-0.0117 0.044786,-0.0207 0.024116,-0.009 0.04892,-0.009 0.01378,0 0.026183,0.005 0.013091,0.005 0.022049,0.005 0.00345,0 0.00413,-0.006 0.00138,-0.007 0.00138,-0.0138 v -0.0103 q 0,-0.005 -6.89e-4,-0.0193 0,-0.0145 -6.89e-4,-0.0324 0,-0.0186 -0.00138,-0.0393 -6.89e-4,-0.0207 -0.00207,-0.0379 -6.891e-4,-0.0179 -0.00207,-0.0303 -6.89e-4,-0.0124 -0.00207,-0.0152 -0.00482,-0.011 -0.015159,-0.011 -0.00896,0 -0.012402,0.006 -0.00276,0.006 -0.00758,0.006 -0.00345,0 -0.00896,-0.004 -0.00482,-0.004 -0.00482,-0.008 0,-0.003 0.00689,-0.009 0.00758,-0.006 0.017914,-0.0131 0.011024,-0.007 0.024116,-0.0138 0.013091,-0.008 0.024116,-0.0131 0.011024,-0.006 0.018604,-0.009 0.00758,-0.004 0.00827,-0.004 0.0062,0 0.00689,0.0124 6.89e-4,0.0117 6.89e-4,0.0303 0,0.0172 0,0.0276 0,0.01 -6.89e-4,0.0179 0,0.008 0,0.0152 0,0.007 -6.891e-4,0.0186 0,0.0117 0,0.0303 0,0.0179 0,0.0469 0,0.0324 0,0.0723 0,0.04 0,0.0813 6.891e-4,0.0406 6.891e-4,0.0799 6.89e-4,0.0393 0.00138,0.0703 0.00138,0.031 0.00207,0.051 0.00138,0.02 0.00276,0.022 0.00551,0.009 0.014469,0.009 0.00965,0 0.017226,-0.006 0.00758,-0.006 0.01378,-0.006 0.00413,0 0.00827,0.005 0.00482,0.004 0.00482,0.008 0,0.005 -0.010335,0.0124 -0.010335,0.007 -0.024805,0.0152 -0.01378,0.008 -0.028939,0.0172 -0.015158,0.008 -0.024805,0.0151 -0.00276,0.002 -0.00965,0.007 -0.00689,0.005 -0.010335,0.005 -0.00413,0 -0.00482,-0.008 -6.89e-4,-0.008 -0.00138,-0.0165 0,-0.01 -0.00138,-0.0172 -0.00138,-0.008 -0.00758,-0.008 -0.00413,0 -0.019292,0.008 -0.015158,0.008 -0.036518,0.0186 -0.02136,0.01 -0.046853,0.0179 -0.024805,0.008 -0.04892,0.008 -0.064079,0 -0.097841,-0.0365 -0.033073,-0.0372 -0.033073,-0.0999 z m 0.2935221,-0.0875 q 0,-0.0165 -6.89e-4,-0.0406 0,-0.0248 -0.00551,-0.0469 -0.00551,-0.0227 -0.018604,-0.0386 -0.013091,-0.0165 -0.038585,-0.0165 -0.01378,0 -0.02825,0.005 -0.014469,0.004 -0.027561,0.01 -0.024805,0.01 -0.04203,0.0234 -0.016536,0.0131 -0.028939,0.0296 -0.012402,0.0165 -0.022049,0.0365 -0.00965,0.02 -0.019982,0.0427 l 6.89e-4,0.0517 q 0,0.0159 0,0.0276 6.89e-4,0.0117 0.00276,0.022 0.00207,0.01 0.00689,0.02 0.00482,0.01 0.015158,0.0227 0.013091,0.0165 0.03514,0.0262 0.022049,0.01 0.042719,0.01 0.013091,0 0.031006,-0.002 0.017914,-0.003 0.028939,-0.0103 0.023427,-0.0152 0.037207,-0.0289 0.01378,-0.0138 0.020671,-0.0276 0.00758,-0.0145 0.00965,-0.0303 0.00207,-0.0165 0.00207,-0.0372 0,-0.0103 -6.89e-4,-0.022 0,-0.0117 0,-0.0255 z" />
      <path
         id="path895"
         style="font-style:normal;font-variant:normal;font-weight:normal;font-stretch:normal;font-size:0.70555562px;font-family:'JMH Grace';-inkscape-font-specification:'JMH Grace';letter-spacing:0.22225001px;fill:#333333;fill-opacity:1;stroke-width:0.26458332"
         d="m 7.1211921,295.1533 q 0,-0.006 0.00551,-0.009 0.0062,-0.003 0.01378,-0.003 0.00827,-0.001 0.016536,-0.002 0.00827,-6.9e-4 0.012402,-0.004 0.00482,-0.003 0.00758,-0.0165 0.00276,-0.0138 0.00413,-0.0289 0.00138,-0.0159 0.00138,-0.0296 0,-0.0138 0,-0.0179 0,-0.0847 -0.00138,-0.16881 -6.89e-4,-0.0841 -0.00207,-0.1695 -6.89e-4,-0.02 -6.89e-4,-0.0407 0,-0.0213 -0.00276,-0.0413 -0.00138,-0.0117 -0.00345,-0.0186 -0.00138,-0.007 -0.014469,-0.007 -0.00827,0 -0.011713,0.006 -0.00345,0.006 -0.00965,0.006 -0.00551,0 -0.00827,-0.006 -0.00276,-0.007 -0.00276,-0.0117 0,-0.008 0.00551,-0.011 0.0062,-0.003 0.011713,-0.006 0.00551,-0.003 0.019293,-0.0103 0.014469,-0.008 0.028939,-0.0165 0.015158,-0.008 0.026872,-0.0145 0.012402,-0.007 0.014469,-0.007 0.00138,0 0.00207,0.0179 0.00138,0.0179 0.00207,0.0469 6.89e-4,0.0282 6.89e-4,0.0634 6.891e-4,0.0351 6.891e-4,0.0696 0,0.0338 0,0.0634 6.89e-4,0.0289 0.00138,0.0462 h 6.89e-4 q 0.00207,0 0.00551,-0.001 0.00413,-0.002 0.00827,-0.004 0.00482,-0.003 0.00827,-0.005 0.00413,-0.002 0.0062,-0.003 0.014469,-0.009 0.026872,-0.0152 0.012402,-0.007 0.024805,-0.0117 0.013091,-0.005 0.026872,-0.007 0.014469,-0.003 0.031695,-0.003 h 0.00551 q 0.016536,0 0.029628,0.002 0.01378,0.001 0.025494,0.006 0.011713,0.004 0.022738,0.0117 0.011713,0.007 0.023427,0.0179 0.00827,0.008 0.015847,0.0159 0.00758,0.008 0.013091,0.0186 0.00689,0.0131 0.010335,0.0331 0.00413,0.0193 0.00551,0.0406 0.00207,0.0207 0.00207,0.0413 6.891e-4,0.02 6.891e-4,0.0345 0,0.005 0,0.0227 6.89e-4,0.0179 0.00138,0.0386 0.00138,0.0207 0.00276,0.0386 0.00207,0.0172 0.00413,0.0207 0.00482,0.008 0.011713,0.01 0.00758,0.002 0.014469,0.003 0.00689,0.001 0.011024,0.004 0.00482,0.002 0.00482,0.01 0,0.004 -0.00758,0.007 -0.00758,0.003 -0.018604,0.004 -0.011024,0.001 -0.023427,0.001 -0.012402,6.9e-4 -0.02136,6.9e-4 h -0.01378 q -0.01378,6.9e-4 -0.027561,6.9e-4 -0.013091,6.9e-4 -0.026872,6.9e-4 -0.00551,0 -0.010335,-0.001 -0.00482,-0.001 -0.00482,-0.008 0,-0.008 0.00758,-0.0103 0.00758,-0.003 0.016536,-0.006 0.00896,-0.003 0.016536,-0.007 0.00758,-0.005 0.00758,-0.0152 0,-0.0331 -0.00138,-0.0662 -0.00138,-0.0331 -0.00276,-0.0668 -0.00138,-0.0269 -0.00276,-0.0517 -6.89e-4,-0.0255 -0.00689,-0.0469 -0.0062,-0.0221 -0.020671,-0.04 -0.01378,-0.0186 -0.041341,-0.0324 -0.00758,-0.003 -0.015158,-0.006 -0.00689,-0.003 -0.015158,-0.003 -0.044786,0 -0.070969,0.0165 -0.026183,0.0165 -0.039963,0.0427 -0.013091,0.0255 -0.016536,0.0572 -0.00345,0.0317 -0.00345,0.062 0,0.0145 0,0.0289 6.89e-4,0.0145 6.89e-4,0.0283 0,0.003 -6.89e-4,0.0117 0,0.008 0,0.0172 0,0.0158 0,0.0283 6.89e-4,0.0117 0.00276,0.02 0.00207,0.008 0.0062,0.0131 0.00482,0.004 0.01378,0.004 h 0.00689 q 0.017914,0 0.02136,0.006 0.00413,0.006 0.00413,0.022 l -0.065457,6.9e-4 q -0.02136,6.9e-4 -0.042719,6.9e-4 -0.021359,0 -0.04203,0.003 -0.00345,6.9e-4 -0.0062,6.9e-4 -0.00207,6.8e-4 -0.00551,6.8e-4 -0.00689,0 -0.00965,-0.005 -0.00207,-0.005 -0.00207,-0.0103 z" />
      <path
         id="path897"
         style="font-style:normal;font-variant:normal;font-weight:normal;font-stretch:normal;font-size:0.70555562px;font-family:'JMH Grace';-inkscape-font-specification:'JMH Grace';letter-spacing:0.22225001px;fill:#333333;fill-opacity:1;stroke-width:0.26458332"
         d="m 7.8188655,295.1471 q 0,-0.007 0.00482,-0.008 0.00482,-0.001 0.010335,-0.002 0.019982,-6.9e-4 0.030317,-0.008 0.010335,-0.008 0.014469,-0.0193 0.00482,-0.0117 0.00482,-0.0269 6.89e-4,-0.0159 6.89e-4,-0.0324 v -0.0276 q 0,-0.003 0,-0.0152 0,-0.0131 0,-0.031 0,-0.0179 -6.89e-4,-0.0379 -6.891e-4,-0.0207 -0.00207,-0.0379 -0.00138,-0.0179 -0.00345,-0.0296 -0.00207,-0.0124 -0.00551,-0.0145 -0.00345,-0.002 -0.00689,-0.002 -0.00758,0 -0.014469,0.005 -0.0062,0.004 -0.011713,0.004 -0.00345,0 -0.00758,-0.004 -0.00345,-0.004 -0.00345,-0.008 0,-0.004 0.012402,-0.0131 0.013091,-0.01 0.028939,-0.0193 0.016536,-0.01 0.031695,-0.0165 0.015158,-0.008 0.02067,-0.008 0.00413,0 0.00827,0.001 0.00413,6.9e-4 0.00827,0.002 v 0.0593 q 0,0.006 0,0.0158 0,0.0103 0,0.0207 6.89e-4,0.0103 0.00138,0.0179 0.00138,0.008 0.00276,0.008 h 0.00138 q 0.00276,0 0.0062,-0.006 0.00413,-0.006 0.00551,-0.008 0.012402,-0.0207 0.030317,-0.0413 0.018603,-0.0207 0.039963,-0.0372 0.022049,-0.0165 0.046164,-0.0269 0.024805,-0.011 0.050987,-0.011 0.025494,0 0.044097,0.0152 0.018604,0.0152 0.018604,0.042 0,0.01 -0.00551,0.0179 -0.00551,0.008 -0.01378,0.0145 -0.00827,0.006 -0.017914,0.009 -0.00965,0.003 -0.018604,0.003 -0.023427,0 -0.033073,-0.0131 -0.00965,-0.0138 -0.00965,-0.0358 0,-0.006 -0.00138,-0.009 -0.00138,-0.003 -0.00827,-0.003 -0.012402,0 -0.029628,0.0117 -0.016536,0.011 -0.033073,0.0276 -0.016536,0.0159 -0.030317,0.0331 -0.013091,0.0165 -0.018604,0.0269 -0.017225,0.0324 -0.022049,0.0641 -0.00482,0.0317 -0.00482,0.071 0,0.01 6.89e-4,0.02 6.891e-4,0.01 0.00276,0.0186 0.00207,0.009 0.00551,0.0158 0.00413,0.006 0.010335,0.009 0.00758,0.003 0.00896,0.009 0.00138,0.006 0.00138,0.0124 v 0.0103 q -0.018604,0 -0.036518,0 -0.017915,-6.9e-4 -0.036518,-6.9e-4 -0.016536,0 -0.033762,0.002 -0.016536,0.003 -0.032384,0.003 -0.0062,0 -0.00896,-0.006 -0.00207,-0.006 -0.00207,-0.0117 z" />
      <path
         id="path899"
         style="font-style:normal;font-variant:normal;font-weight:normal;font-stretch:normal;font-size:0.70555562px;font-family:'JMH Grace';-inkscape-font-specification:'JMH Grace';letter-spacing:0.22225001px;fill:#333333;fill-opacity:1;stroke-width:0.26458332"
         d="m 8.4641733,294.84737 q -0.0062,0 -0.014469,0.006 -0.00758,0.006 -0.015158,0.006 -0.0062,0 -0.010335,-0.007 -0.00345,-0.007 -0.00345,-0.0124 0,-0.004 0.00345,-0.007 0.00345,-0.003 0.00827,-0.006 0.00482,-0.003 0.00965,-0.004 0.00482,-0.001 0.00827,-0.003 0.00551,-0.002 0.015847,-0.007 0.010335,-0.006 0.02136,-0.0103 0.011024,-0.006 0.019982,-0.01 0.00965,-0.004 0.01378,-0.004 0.00758,0 0.00827,0.0207 6.891e-4,0.0207 6.891e-4,0.0524 v 0.082 q 0,0.0193 6.89e-4,0.042 6.89e-4,0.0227 0.00276,0.0448 0.00207,0.0221 0.00551,0.0413 0.00413,0.0186 0.010335,0.0296 0.00345,0.007 0.00965,0.0138 0.00689,0.006 0.015158,0.0117 0.00827,0.005 0.016536,0.008 0.00896,0.003 0.017225,0.003 0.027561,0 0.052365,-0.009 0.024805,-0.009 0.043408,-0.0269 0.018604,-0.0186 0.029628,-0.0455 0.011024,-0.0269 0.011024,-0.0627 0,-0.0186 0,-0.0434 6.89e-4,-0.0248 -6.89e-4,-0.0475 -6.89e-4,-0.0227 -0.00413,-0.0386 -0.00276,-0.0159 -0.010335,-0.0159 -0.00758,0 -0.014469,0.002 -0.0062,0.002 -0.013091,0.002 -0.00551,0 -0.00896,-0.005 -0.00276,-0.006 -0.00276,-0.011 0,-0.007 0.00896,-0.0103 0.00965,-0.004 0.015158,-0.006 0.00689,-0.003 0.018603,-0.008 0.012402,-0.006 0.024805,-0.0103 0.013091,-0.006 0.024116,-0.01 0.011713,-0.004 0.017225,-0.004 0.0062,0 0.0062,0.006 0,0.003 -6.89e-4,0.005 -6.89e-4,0.002 -0.00138,0.004 -0.00138,0.005 -0.00276,0.0214 -6.89e-4,0.0159 -0.00138,0.0386 -6.89e-4,0.022 -0.00138,0.0482 0,0.0255 -6.89e-4,0.0489 0,0.0234 0,0.042 0,0.0179 0,0.0255 0,0.003 -6.89e-4,0.0124 0,0.008 0,0.0179 0,0.009 6.89e-4,0.0186 6.89e-4,0.01 0.00276,0.0172 0.00207,0.008 0.00551,0.0131 0.00413,0.005 0.010335,0.005 0.00758,0 0.013091,-0.004 0.00551,-0.005 0.011713,-0.005 0.00345,0 0.00689,0.003 0.00413,0.003 0.00413,0.007 0,0.007 -0.00827,0.0117 -0.00827,0.004 -0.01378,0.006 -0.00551,0.002 -0.017226,0.007 -0.011024,0.005 -0.023427,0.0103 -0.011713,0.005 -0.022049,0.009 -0.010335,0.003 -0.01378,0.003 -0.00551,0 -0.00827,-0.007 -0.00207,-0.008 -0.00345,-0.0165 -6.89e-4,-0.01 -0.00138,-0.0193 0,-0.01 -6.89e-4,-0.0138 -0.00276,6.9e-4 -0.0062,0.003 -0.00345,0.003 -0.00551,0.004 -0.031695,0.0269 -0.07028,0.0407 -0.037896,0.0138 -0.079237,0.0138 -0.011713,0 -0.024805,-0.005 -0.012402,-0.004 -0.024116,-0.011 -0.011713,-0.008 -0.02136,-0.0165 -0.00965,-0.01 -0.015158,-0.02 -0.00689,-0.0124 -0.010335,-0.0331 -0.00345,-0.0207 -0.00482,-0.0434 -0.00138,-0.0227 -0.00138,-0.0441 0,-0.0214 0,-0.0351 0,-0.008 -6.891e-4,-0.0269 0,-0.0186 -0.00138,-0.0372 -6.89e-4,-0.0193 -0.00345,-0.0338 -0.00207,-0.0145 -0.0062,-0.0145 z" />
      <path
         id="path901"
         style="font-style:normal;font-variant:normal;font-weight:normal;font-stretch:normal;font-size:0.70555562px;font-family:'JMH Grace';-inkscape-font-specification:'JMH Grace';letter-spacing:0.22225001px;fill:#333333;fill-opacity:1;stroke-width:0.26458332"
         d="m 9.0874327,295.14572 q 0,-0.008 0.00758,-0.01 0.00758,-0.002 0.017226,-0.003 0.00965,-6.9e-4 0.017914,-0.001 0.00896,-6.9e-4 0.011024,-0.006 0.00138,-0.002 0.00138,-0.0179 0,-0.0165 0,-0.0331 v -0.0848 q 0,-0.0117 0,-0.0351 6.89e-4,-0.0241 -6.891e-4,-0.0475 -6.89e-4,-0.0241 -0.00345,-0.042 -0.00276,-0.0179 -0.00896,-0.0179 -0.00207,0 -0.00551,0.003 -0.00345,0.002 -0.00758,0.006 -0.00345,0.003 -0.00689,0.006 -0.00345,0.002 -0.0062,0.002 -0.00345,0 -0.0062,-0.006 -0.00276,-0.006 -0.00276,-0.009 0,-0.006 0.012402,-0.0145 0.012402,-0.009 0.02825,-0.0172 0.016536,-0.009 0.031695,-0.0152 0.015847,-0.006 0.02136,-0.006 0.00689,0 0.00827,0.006 0.00138,0.005 0.00138,0.0103 0,0.0372 -0.00276,0.0737 -0.00207,0.0365 -0.00207,0.0737 0,0.006 0,0.0193 0,0.0131 0,0.031 6.89e-4,0.0172 0.00138,0.0365 6.89e-4,0.0186 0.00207,0.0351 0.00138,0.0165 0.00276,0.0289 0.00207,0.0117 0.00482,0.0158 0.00482,0.008 0.014469,0.008 0.00965,6.9e-4 0.018604,0.001 0.00896,0 0.015847,0.003 0.00689,0.003 0.00689,0.0165 0,0.004 -0.00276,0.004 -0.00207,0 -0.0062,-0.001 -0.011713,-0.003 -0.024116,-0.004 -0.011713,-6.8e-4 -0.023427,-6.8e-4 -0.022738,0 -0.044786,0.002 -0.02136,0.002 -0.043408,0.002 -0.00896,0 -0.018604,-0.002 -0.00896,-0.002 -0.00896,-0.0103 z m 0.03514,-0.53744 q 0,-0.0145 0.012402,-0.0234 0.012402,-0.01 0.026183,-0.01 0.011024,0 0.018603,0.007 0.00758,0.006 0.00758,0.0179 0,0.0165 -0.013091,0.0269 -0.012402,0.0103 -0.02825,0.0103 -0.011713,0 -0.017914,-0.009 -0.00551,-0.01 -0.00551,-0.02 z" />
      <path
         id="path903"
         style="font-style:normal;font-variant:normal;font-weight:normal;font-stretch:normal;font-size:0.70555562px;font-family:'JMH Grace';-inkscape-font-specification:'JMH Grace';letter-spacing:0.22225001px;fill:#333333;fill-opacity:1;stroke-width:0.26458332"
         d="m 9.4840043,295.0403 q 0,-0.0365 0.011024,-0.0703 0.011024,-0.0338 0.030317,-0.0627 0.019293,-0.0289 0.045475,-0.0531 0.026872,-0.0241 0.058567,-0.0407 0.02136,-0.0117 0.044786,-0.0207 0.024116,-0.009 0.04892,-0.009 0.01378,0 0.026183,0.005 0.013091,0.005 0.022049,0.005 0.00345,0 0.00413,-0.006 0.00138,-0.007 0.00138,-0.0138 v -0.0103 q 0,-0.005 -6.89e-4,-0.0193 0,-0.0145 -6.89e-4,-0.0324 0,-0.0186 -0.00138,-0.0393 -6.89e-4,-0.0207 -0.00207,-0.0379 -6.891e-4,-0.0179 -0.00207,-0.0303 -6.89e-4,-0.0124 -0.00207,-0.0152 -0.00482,-0.011 -0.015158,-0.011 -0.00896,0 -0.012402,0.006 -0.00276,0.006 -0.00758,0.006 -0.00345,0 -0.00896,-0.004 -0.00482,-0.004 -0.00482,-0.008 0,-0.003 0.00689,-0.009 0.00758,-0.006 0.017914,-0.0131 0.011024,-0.007 0.024116,-0.0138 0.013091,-0.008 0.024116,-0.0131 0.011024,-0.006 0.018603,-0.009 0.00758,-0.004 0.00827,-0.004 0.0062,0 0.00689,0.0124 6.891e-4,0.0117 6.891e-4,0.0303 0,0.0172 0,0.0276 0,0.01 -6.891e-4,0.0179 0,0.008 0,0.0152 0,0.007 -6.89e-4,0.0186 0,0.0117 0,0.0303 0,0.0179 0,0.0469 0,0.0324 0,0.0723 0,0.04 0,0.0813 6.89e-4,0.0406 6.89e-4,0.0799 6.891e-4,0.0393 0.00138,0.0703 0.00138,0.031 0.00207,0.051 0.00138,0.02 0.00276,0.022 0.00551,0.009 0.014469,0.009 0.00965,0 0.017225,-0.006 0.00758,-0.006 0.01378,-0.006 0.00413,0 0.00827,0.005 0.00482,0.004 0.00482,0.008 0,0.005 -0.010335,0.0124 -0.010335,0.007 -0.024805,0.0152 -0.01378,0.008 -0.028939,0.0172 -0.015159,0.008 -0.024805,0.0151 -0.00276,0.002 -0.00965,0.007 -0.00689,0.005 -0.010335,0.005 -0.00413,0 -0.00482,-0.008 -6.89e-4,-0.008 -0.00138,-0.0165 0,-0.01 -0.00138,-0.0172 -0.00138,-0.008 -0.00758,-0.008 -0.00413,0 -0.019292,0.008 -0.015159,0.008 -0.036518,0.0186 -0.02136,0.01 -0.046853,0.0179 -0.024805,0.008 -0.04892,0.008 -0.064079,0 -0.097841,-0.0365 -0.033073,-0.0372 -0.033073,-0.0999 z m 0.2935222,-0.0875 q 0,-0.0165 -6.89e-4,-0.0406 0,-0.0248 -0.00551,-0.0469 -0.00551,-0.0227 -0.018604,-0.0386 -0.013091,-0.0165 -0.038585,-0.0165 -0.01378,0 -0.02825,0.005 -0.014469,0.004 -0.027561,0.01 -0.024805,0.01 -0.04203,0.0234 -0.016536,0.0131 -0.028939,0.0296 -0.012402,0.0165 -0.022049,0.0365 -0.00965,0.02 -0.019982,0.0427 l 6.89e-4,0.0517 q 0,0.0159 0,0.0276 6.89e-4,0.0117 0.00276,0.022 0.00207,0.01 0.00689,0.02 0.00482,0.01 0.015159,0.0227 0.013091,0.0165 0.03514,0.0262 0.022049,0.01 0.042719,0.01 0.013091,0 0.031006,-0.002 0.017914,-0.003 0.028939,-0.0103 0.023427,-0.0152 0.037207,-0.0289 0.01378,-0.0138 0.020671,-0.0276 0.00758,-0.0145 0.00965,-0.0303 0.00207,-0.0165 0.00207,-0.0372 0,-0.0103 -6.89e-4,-0.022 0,-0.0117 0,-0.0255 z" />
      <path
         id="path905"
         style="font-style:normal;font-variant:normal;font-weight:normal;font-stretch:normal;font-size:0.70555562px;font-family:'JMH Grace';-inkscape-font-specification:'JMH Grace';letter-spacing:0.22225001px;fill:#333333;fill-opacity:1;stroke-width:0.26458332"
         d="m 10.13758,295.12849 q 0,-0.0138 0.01102,-0.0241 0.01103,-0.0103 0.0248,-0.0103 0.01447,0 0.02481,0.0117 0.01102,0.011 0.01102,0.0255 0,0.01 -0.0083,0.02 -0.0076,0.0103 -0.01792,0.0103 -0.01033,0 -0.0186,-6.8e-4 -0.0083,-6.9e-4 -0.01447,-0.003 -0.0055,-0.003 -0.009,-0.0103 -0.0034,-0.007 -0.0034,-0.0186 z" />
      <path
         id="path907"
         style="font-style:normal;font-variant:normal;font-weight:normal;font-stretch:normal;font-size:0.70555562px;font-family:'JMH Grace';-inkscape-font-specification:'JMH Grace';letter-spacing:0.22225001px;fill:#333333;fill-opacity:1;stroke-width:0.26458332"
         d="m 10.457671,294.99482 q 0,-0.0317 0.01034,-0.0613 0.01033,-0.0296 0.02825,-0.0551 0.01791,-0.0262 0.04203,-0.0469 0.02412,-0.0213 0.05168,-0.0358 0.01378,-0.008 0.03307,-0.01 0.01929,-0.003 0.03514,-0.003 0.0076,0 0.01585,6.9e-4 0.009,6.9e-4 0.01654,0.004 0.0083,0.004 0.01929,0.0117 0.01103,0.008 0.01998,0.0179 0.0096,0.01 0.01585,0.0207 0.0069,0.0103 0.0069,0.0207 0,0.0165 -0.0124,0.0283 -0.01171,0.011 -0.02756,0.011 -0.01171,0 -0.0248,-0.007 -0.0124,-0.007 -0.0124,-0.0207 0,-0.0138 0.0096,-0.0234 0.01033,-0.0103 0.01998,-0.0186 -0.0124,-0.0131 -0.02412,-0.0172 -0.01103,-0.004 -0.02894,-0.004 -0.01998,0 -0.03996,0.008 -0.01929,0.008 -0.03652,0.0214 -0.01654,0.0138 -0.02963,0.0324 -0.0124,0.0179 -0.0186,0.0393 -0.0041,0.0138 -0.0055,0.0303 -0.0014,0.0159 -0.0014,0.0296 0,0.0289 0.0055,0.0579 0.0055,0.0283 0.0186,0.0517 0.01378,0.0234 0.03583,0.0379 0.02274,0.0145 0.05719,0.0145 0.03514,0 0.06063,-0.0131 0.02618,-0.0131 0.04341,-0.0448 0.0014,-0.003 0.0041,-0.008 0.0028,-0.006 0.0062,-0.011 0.0041,-0.006 0.0076,-0.01 0.0041,-0.004 0.0083,-0.004 0.0041,0 0.0055,0.004 0.0014,0.003 0.0014,0.007 0,0.011 -0.0069,0.0248 -0.0062,0.0131 -0.01585,0.0269 -0.0096,0.0131 -0.02067,0.0241 -0.01102,0.011 -0.01929,0.0172 l -0.02136,0.0152 h -0.04754 q -0.01585,0 -0.03307,0 -0.01723,-6.9e-4 -0.03307,-0.003 -0.02894,-0.005 -0.05168,-0.02 -0.02205,-0.0152 -0.03721,-0.0372 -0.01516,-0.0221 -0.02274,-0.0482 -0.0076,-0.0269 -0.0076,-0.0551 z" />
      <path
         id="path909"
         style="font-style:normal;font-variant:normal;font-weight:normal;font-stretch:normal;font-size:0.70555562px;font-family:'JMH Grace';-inkscape-font-specification:'JMH Grace';letter-spacing:0.22225001px;fill:#333333;fill-opacity:1;stroke-width:0.26458332"
         d="m 11.379275,294.95072 q 0,-0.0179 -0.0028,-0.0372 -0.0021,-0.02 -0.0076,-0.0386 -0.0048,-0.0186 -0.01447,-0.0351 -0.009,-0.0172 -0.02205,-0.0303 -0.009,-0.009 -0.02274,-0.0145 -0.01309,-0.006 -0.02825,-0.01 -0.01447,-0.003 -0.02963,-0.005 -0.01447,-0.002 -0.02687,-0.002 -0.03583,0 -0.06339,0.0145 -0.02687,0.0145 -0.04547,0.0386 -0.01792,0.0234 -0.02756,0.0537 -0.009,0.0303 -0.009,0.0627 0,0.008 -6.89e-4,0.0159 0,0.008 0,0.0152 0,0.0165 0.0021,0.0324 0.0028,0.0152 0.01033,0.031 0.0096,0.02 0.02618,0.0372 0.01654,0.0165 0.03652,0.0289 0.01998,0.0117 0.04203,0.0186 0.02274,0.007 0.04479,0.007 0.03445,0 0.05995,-0.0158 0.02618,-0.0165 0.04341,-0.0427 0.01792,-0.0262 0.02618,-0.0586 0.009,-0.0331 0.009,-0.0661 z m -0.357601,0.0193 q 0,-0.0448 0.01654,-0.0834 0.01654,-0.0393 0.04547,-0.0682 0.02894,-0.0289 0.06752,-0.0455 0.03927,-0.0165 0.08406,-0.0165 0.06821,0 0.115066,0.0276 0.04685,0.0276 0.07304,0.0923 0.01378,0.0372 0.01378,0.0744 0,0.0524 -0.01929,0.0923 -0.0186,0.0393 -0.04961,0.0661 -0.03101,0.0269 -0.07028,0.0407 -0.03927,0.0131 -0.07924,0.0131 -0.04616,0 -0.08268,-0.0138 -0.03652,-0.0145 -0.06201,-0.04 -0.02549,-0.0255 -0.03927,-0.0606 -0.01309,-0.0358 -0.01309,-0.0786 z" />
      <path
         id="path911"
         style="font-style:normal;font-variant:normal;font-weight:normal;font-stretch:normal;font-size:0.70555562px;font-family:'JMH Grace';-inkscape-font-specification:'JMH Grace';letter-spacing:0.22225001px;fill:#333333;fill-opacity:1;stroke-width:0.26458332"
         d="m 11.770335,295.15881 q -0.0034,0 -0.01102,6.9e-4 -0.0076,0 -0.01723,0 -0.01791,0 -0.02825,-0.003 -0.01033,-0.003 -0.01033,-0.0124 0,-0.004 0.0041,-0.006 0.0041,-0.003 0.0096,-0.004 0.0062,-0.001 0.01171,-0.001 0.0055,-6.9e-4 0.009,-6.9e-4 0.0048,-0.0524 0.0062,-0.10404 0.0021,-0.0524 0.0021,-0.10611 0,-0.01 0,-0.0214 0,-0.0117 -0.0021,-0.022 -0.0014,-0.0103 -0.0062,-0.0172 -0.0048,-0.007 -0.01447,-0.007 -0.01103,0 -0.01585,0.004 -0.0041,0.003 -0.009,0.003 -0.0055,0 -0.0076,-0.004 -0.0021,-0.005 -0.0021,-0.01 v -0.003 q 0.0014,-0.0117 0.009,-0.0165 0.0083,-0.005 0.01792,-0.0103 0.0041,-0.002 0.01516,-0.009 0.01171,-0.007 0.02343,-0.0138 0.0124,-0.008 0.02205,-0.0131 0.01033,-0.006 0.01309,-0.006 0.0034,0 0.0041,0.007 6.89e-4,0.007 0.0014,0.0159 6.89e-4,0.008 0.0014,0.0152 0.0014,0.007 0.0048,0.007 6.89e-4,0 0.01171,-0.008 0.01171,-0.008 0.03032,-0.0165 0.0186,-0.01 0.04134,-0.0172 0.02343,-0.008 0.04754,-0.008 0.0124,0 0.02618,0.002 0.01378,0.001 0.02687,0.006 0.01378,0.004 0.02549,0.011 0.0124,0.007 0.02067,0.0165 0.0041,0.005 0.009,0.0103 0.0048,0.006 0.0124,0.006 0.0041,0 0.01585,-0.007 0.0124,-0.008 0.02894,-0.0159 0.01654,-0.008 0.03583,-0.0152 0.01929,-0.008 0.0379,-0.008 0.02343,0 0.04616,0.003 0.02343,0.003 0.04341,0.011 0.01998,0.008 0.03652,0.0214 0.01654,0.0138 0.02618,0.0365 0.0062,0.0152 0.0096,0.0413 0.0034,0.0255 0.0041,0.053 0.0014,0.0276 0.0014,0.0531 0,0.0255 0,0.0393 v 0.0262 q 0,0.0145 6.89e-4,0.0269 0.0014,0.0124 0.0034,0.0221 0.0028,0.009 0.0076,0.0145 0.0055,0.006 0.01378,0.006 0.0034,0 0.0055,-6.9e-4 0.0028,-0.001 0.0055,-0.001 0.01654,0 0.01654,0.0152 0,0.006 -0.0028,0.01 -0.0021,0.004 -0.0076,0.004 -0.01378,0 -0.02687,-6.9e-4 -0.01309,-6.9e-4 -0.02687,-6.9e-4 -0.01654,0 -0.03376,0.001 -0.01654,0.001 -0.03307,0.001 -0.0069,0 -0.01034,-0.002 -0.0028,-0.002 -0.0028,-0.01 0,-0.0117 0.0048,-0.0131 0.0048,-0.002 0.01103,-0.004 0.0062,-0.002 0.01102,-0.0103 0.0048,-0.008 0.0048,-0.0338 v -0.0537 q 0,-0.0207 0,-0.0462 0,-0.0255 -0.0021,-0.0517 -0.0021,-0.0269 -0.0083,-0.0524 -0.0062,-0.0255 -0.01792,-0.0448 -0.01171,-0.02 -0.03101,-0.0317 -0.01929,-0.0124 -0.04823,-0.0124 -0.02687,0 -0.0503,0.0117 -0.02343,0.011 -0.04134,0.031 -0.0048,0.006 -0.0083,0.0103 -0.0034,0.004 -0.0034,0.0117 0,0.003 0,0.008 6.89e-4,0.003 0.0014,0.007 0.0041,0.0282 0.0048,0.0572 0.0014,0.0282 0.0014,0.0565 0,0.0283 0,0.0572 0,0.0283 0.0014,0.0565 6.89e-4,0.02 0.0096,0.0269 0.009,0.007 0.0186,0.009 0.0096,0.001 0.01792,0.003 0.0083,0.001 0.0083,0.011 0,0.008 -0.0083,0.01 -0.0076,0.001 -0.01723,0.001 -0.0055,0 -0.01102,-6.8e-4 -0.0048,0 -0.0076,0 -0.01033,0 -0.02894,0 -0.0186,0 -0.03721,-6.9e-4 -0.01791,0 -0.0317,-0.002 -0.01378,-0.002 -0.01378,-0.006 0,-0.0103 0.0083,-0.0124 0.0083,-0.003 0.01585,-0.005 0.0062,-0.001 0.0096,-0.008 0.0041,-0.007 0.0062,-0.0165 0.0021,-0.01 0.0028,-0.0207 6.89e-4,-0.011 6.89e-4,-0.0207 v -0.0634 q 0,-0.031 -0.0028,-0.0682 -0.0021,-0.0372 -0.0124,-0.0689 -0.0096,-0.0324 -0.02963,-0.0537 -0.01929,-0.022 -0.05305,-0.022 -0.02412,0 -0.04823,0.011 -0.02343,0.011 -0.03996,0.0283 -0.01791,0.0179 -0.02618,0.0413 -0.0076,0.0234 -0.01033,0.0496 -0.0021,0.0262 -0.0014,0.0537 0.0014,0.0276 0.0014,0.053 v 0.0965 q 0.0083,0.003 0.0186,0.004 0.01034,6.9e-4 0.01929,0.002 0.009,0.001 0.01447,0.005 0.0062,0.003 0.0062,0.0103 0,0.006 -0.0028,0.011 -0.0028,0.006 -0.009,0.006 -0.0021,0 -0.0048,-0.001 -0.0041,-0.001 -0.01447,-0.002 -0.01034,-6.9e-4 -0.02205,-6.9e-4 -0.01171,-6.9e-4 -0.02136,-6.9e-4 -0.009,0 -0.01102,0 z" />
    </g>
  </g>
</svg>
