<?xml version="1.0" encoding="UTF-8" standalone="no"?>
<svg
   xmlns:dc="http://purl.org/dc/elements/1.1/"
   xmlns:cc="http://creativecommons.org/ns#"
   xmlns:rdf="http://www.w3.org/1999/02/22-rdf-syntax-ns#"
   xmlns:svg="http://www.w3.org/2000/svg"
   xmlns="http://www.w3.org/2000/svg"
   xmlns:sodipodi="http://sodipodi.sourceforge.net/DTD/sodipodi-0.dtd"
   xmlns:inkscape="http://www.inkscape.org/namespaces/inkscape"
   width="210mm"
   height="210mm"
   viewBox="0 0 210 210"
   version="1.1"
   id="svg8"
   sodipodi:docname="logo-nobg-path.svg"
   inkscape:version="0.92.3 (2405546, 2018-03-11)">
  <sodipodi:namedview
     pagecolor="#ffffff"
     bordercolor="#666666"
     borderopacity="1"
     objecttolerance="10"
     gridtolerance="10"
     guidetolerance="10"
     inkscape:pageopacity="0"
     inkscape:pageshadow="2"
     inkscape:window-width="2560"
     inkscape:window-height="1375"
     id="namedview45"
     showgrid="false"
     inkscape:zoom="1.4715873"
     inkscape:cx="396.85039"
     inkscape:cy="396.85039"
     inkscape:window-x="0"
     inkscape:window-y="0"
     inkscape:window-maximized="1"
     inkscape:current-layer="g294" />
  <defs
     id="defs2">
    <clipPath
       clipPathUnits="userSpaceOnUse"
       id="clipPath28">
      <path
         d="M 0,1286 H 1286 V 0 H 0 Z"
         id="path26" />
    </clipPath>
    <clipPath
       clipPathUnits="userSpaceOnUse"
       id="clipPath40">
      <path
         d="M 0,1286 H 1286 V 0 H 0 Z"
         id="path38" />
    </clipPath>
    <clipPath
       clipPathUnits="userSpaceOnUse"
       id="clipPath50">
      <path
         d="M 0,1286 H 1286 V 0 H 0 Z"
         id="path48" />
    </clipPath>
    <clipPath
       clipPathUnits="userSpaceOnUse"
       id="clipPath86">
      <path
         d="M 0,1286 H 1286 V 0 H 0 Z"
         id="path84" />
    </clipPath>
    <clipPath
       clipPathUnits="userSpaceOnUse"
       id="clipPath98">
      <path
         d="M 0,1286 H 1286 V 0 H 0 Z"
         id="path96" />
    </clipPath>
    <clipPath
       clipPathUnits="userSpaceOnUse"
       id="clipPath98-3">
      <path
         d="M 0,1286 H 1286 V 0 H 0 Z"
         id="path96-6" />
    </clipPath>
  </defs>
  <metadata
     id="metadata5">
    <rdf:RDF>
      <cc:Work
         rdf:about="">
        <dc:format>image/svg+xml</dc:format>
        <dc:type
           rdf:resource="http://purl.org/dc/dcmitype/StillImage" />
        <dc:title />
      </cc:Work>
    </rdf:RDF>
  </metadata>
  <g
     id="layer1"
     transform="translate(0,-87)">
    <g
       id="layer3"
       transform="translate(0,87)"
       style="display:none">
      <path
         id="rect10"
         d="M -3.8571396,-4.9910736 H 213.85714 V 214.99107 H -3.8571396 Z"
         style="fill:#333333;stroke-width:0.26458332" />
    </g>
    <g
       id="flowRoot12"
       style="font-style:normal;font-weight:normal;font-size:40px;line-height:1.25;font-family:sans-serif;letter-spacing:0px;word-spacing:0px;fill:#000000;fill-opacity:1;stroke:none" />
    <g
       id="g294"
       transform="translate(0,-10.218826)">
      <g
         id="text22"
         style="font-style:normal;font-weight:normal;font-size:10.58333302px;line-height:1.25;font-family:sans-serif;letter-spacing:0px;word-spacing:0px;fill:#000000;fill-opacity:1;stroke:none;stroke-width:0.26458332"
         aria-label="DHRUID">
        <path
           id="path1014"
           style="font-style:normal;font-variant:normal;font-weight:normal;font-stretch:normal;font-size:35.27777863px;line-height:0.5;font-family:'JMH Grace';-inkscape-font-specification:'JMH Grace';text-align:center;letter-spacing:2.3812499px;text-anchor:middle;fill:#f9f9f9;stroke-width:0.26458332"
           d="m 51.179343,193.70333 q 0,-2.17041 -0.689019,-3.82406 -0.689019,-1.65365 -1.860351,-2.85943 -1.171333,-1.24023 -2.721626,-2.06706 -1.550293,-0.82682 -3.307292,-1.30913 -1.756998,-0.51677 -3.61735,-0.72347 -1.825901,-0.20671 -3.582899,-0.20671 -0.447863,0 -0.964627,0.0344 -0.482314,0.0344 -0.964627,0.13781 -0.447862,0.10335 -0.826823,0.2756 -0.37896,0.13781 -0.585666,0.37896 -0.206706,0.24116 -0.310059,0.79238 -0.103353,0.51676 -0.137804,1.13688 -0.03445,0.62012 -0.0689,1.20578 0,0.55122 0,0.86128 -0.0689,2.75607 -0.103352,5.51215 0,2.72162 0,5.4777 v 7.82037 q 0.413411,0.62011 0.826823,0.99907 0.413411,0.34451 0.861273,0.55122 0.482314,0.17225 1.033529,0.20671 0.585666,0.0345 1.309136,0.0345 2.997234,0 5.822212,-1.06798 2.824978,-1.10243 5.029839,-2.99724 2.204862,-1.92925 3.513998,-4.58197 1.343587,-2.65273 1.343587,-5.78776 z m -25.734864,15.43402 q 0,-0.2756 0.378961,-0.48231 0.37896,-0.2067 0.585666,-0.27561 0.654568,-0.24115 0.964627,-0.37896 0.344509,-0.1378 0.516764,-0.31006 0.206706,-0.17225 0.34451,-0.44786 0.172255,-0.31006 0.482313,-0.93017 0.03445,-3.16949 0.0689,-6.30453 0.03445,-3.13504 0.03445,-6.30452 0,-1.757 -0.103353,-3.514 -0.0689,-1.757 -0.0689,-3.514 0,-0.37896 -0.03445,-0.99908 0,-0.65456 -0.172255,-1.27468 -0.137803,-0.62012 -0.482313,-1.06798 -0.344509,-0.44786 -0.964627,-0.44786 -0.37896,0 -0.72347,0.1378 -0.344509,0.1378 -0.72347,0.17225 -0.0689,-0.0689 -0.103353,-0.17225 0,-0.1378 0,-0.24116 0,-0.2067 0.03445,-0.37896 0.03445,-0.2067 0.206706,-0.37896 0.03445,-0.0344 0.689019,-0.0689 0.654568,-0.0344 1.619195,-0.0689 0.964627,-0.0344 2.101508,-0.0689 1.171333,-0.0344 2.204862,-0.0344 1.067979,-0.0345 1.860351,-0.0345 0.792372,0 1.06798,0 1.619195,0 3.755154,0.0689 2.135959,0.0689 4.271918,0.37896 2.170411,0.31006 4.099664,0.96462 1.963705,0.65457 3.203939,1.8259 1.06798,1.03353 1.722548,1.99816 0.654568,0.96463 0.999078,2.03261 0.37896,1.03353 0.482313,2.23931 0.137804,1.20578 0.137804,2.68717 0,0.79238 -0.0689,1.51585 -0.03445,0.72347 -0.275608,1.51584 -0.757921,2.51492 -2.135959,4.44417 -1.378038,1.92925 -3.23839,3.37619 -1.825901,1.44694 -4.065213,2.41157 -2.204861,0.93018 -4.650879,1.48139 -2.135959,0.48232 -4.34082,0.55122 -2.204861,0.0689 -4.375271,0.10335 -1.171333,0.0344 -2.342665,0.10335 -1.171333,0.0689 -2.342665,0.0689 -0.172255,0 -0.413412,-0.10336 -0.206706,-0.10335 -0.206706,-0.27561 z" />
        <path
           id="path1016"
           style="font-style:normal;font-variant:normal;font-weight:normal;font-stretch:normal;font-size:35.27777863px;line-height:0.5;font-family:'JMH Grace';-inkscape-font-specification:'JMH Grace';text-align:center;letter-spacing:2.3812499px;text-anchor:middle;fill:#f9f9f9;stroke-width:0.26458332"
           d="m 58.10812,209.72302 q -0.0689,-0.10335 -0.0689,-0.37896 0,-0.48231 0.275608,-0.58567 0.275607,-0.10335 0.654568,-0.10335 0.378961,-0.0345 0.72347,-0.10335 0.378961,-0.0689 0.551215,-0.44786 0.0689,-0.17226 0.103353,-0.55122 0.0689,-0.37896 0.0689,-0.89572 0.03445,-0.51677 0.03445,-1.10243 0.03445,-0.58567 0.03445,-1.13689 0,-5.20209 0,-10.26638 0,-5.09874 -0.03445,-10.26639 -0.344509,-0.55121 -0.585666,-0.82682 -0.206706,-0.31006 -0.482314,-0.41341 -0.241156,-0.1378 -0.620117,-0.1378 -0.37896,-0.0345 -0.999077,-0.0345 -0.103353,0 -0.137804,-0.1378 0,-0.17225 0,-0.24116 0,-0.2067 0.585666,-0.31005 0.620117,-0.10336 1.412489,-0.13781 0.792372,-0.0344 1.550293,-0.0344 0.792372,0 1.171333,0 0.37896,0 0.551215,0 0.206706,0 0.275608,0.10335 0.103352,0.0689 0.103352,0.27561 0.03445,0.17226 0.03445,0.55122 0,1.30913 -0.0689,2.65272 -0.03445,1.34359 -0.03445,2.68717 0,0.24116 0,0.58567 0,0.31006 0,0.62012 0.03445,0.31006 0.03445,0.55121 0.03445,0.20671 0.103352,0.20671 0.0689,0 0.241157,-0.1378 0.172255,-0.13781 0.34451,-0.31006 0.206705,-0.20671 0.344509,-0.34451 0.172255,-0.17226 0.241157,-0.24116 2.17041,-2.23931 4.719781,-3.47955 2.549371,-1.24023 5.684407,-1.24023 0.895725,0 1.619195,0.0689 0.757921,0.0344 1.41249,0.20671 0.654568,0.17225 1.274685,0.55121 0.620117,0.37896 1.309136,0.99908 1.240235,1.13688 1.79145,2.82498 0.551215,1.65364 0.757921,3.54845 0.206706,1.86035 0.172255,3.82405 -0.03445,1.96371 0,3.68626 l 0.137804,7.71701 q 0.654568,0.55121 1.412489,0.79237 0.172255,0.0689 0.413411,0.13781 0.275608,0.0344 0.516765,0.1378 0.241156,0.10335 0.413411,0.27561 0.172255,0.1378 0.172255,0.37896 0,0.27561 -0.585666,0.34451 -0.585667,0.0689 -1.240235,0.0689 -0.482313,0 -0.861274,-0.0344 -0.344509,0 -0.447862,0 -0.585666,0 -1.205784,0 -0.620117,0.0344 -1.240234,0.0344 -0.310059,0 -0.792372,-0.0344 -0.482313,0 -0.930176,-0.0689 -0.447862,-0.0344 -0.757921,-0.10336 -0.310058,-0.0689 -0.310058,-0.2067 v -0.17226 q 0,-0.27561 0.206705,-0.31006 0.241157,-0.0344 0.585667,-0.0344 0.37896,-0.0344 0.826823,-0.17225 0.447862,-0.13781 0.861273,-0.65457 l -0.103352,-7.02799 q -0.03445,-1.6192 -0.03445,-3.34175 0.03445,-1.757 -0.103353,-3.44509 -0.103353,-1.6881 -0.447863,-3.20394 -0.310058,-1.51584 -1.033528,-2.65273 -0.689019,-1.17133 -1.860352,-1.8259 -1.171332,-0.68902 -2.962782,-0.68902 -2.135959,0 -4.099664,0.68902 -1.929253,0.65457 -3.410645,1.96371 -1.481391,1.27468 -2.377115,3.20394 -0.895725,1.8948 -0.895725,4.34082 0,0.51676 0,0.82682 0,0.27561 0,0.68902 0.03445,0.37896 0.03445,1.03353 0,0.65457 0,1.86035 0,1.13688 0,2.48047 0,1.30914 0,2.48047 0.03445,1.13688 0.03445,1.92925 0.03445,0.79237 0.103352,0.86127 0.137804,0.24116 0.585667,0.31006 0.447862,0.0689 0.895725,0.17226 0.482313,0.0689 0.826822,0.27561 0.378961,0.17225 0.378961,0.62011 0,0.10336 -0.206706,0.13781 -0.172255,0.0689 -0.447862,0.0689 -0.275608,0 -0.516764,-0.0344 -0.241157,-0.0345 -0.310059,-0.0345 -1.550293,0 -3.066135,0.0689 -1.481391,0.0689 -3.031684,0.0689 z" />
        <path
           id="path1018"
           style="font-style:normal;font-variant:normal;font-weight:normal;font-stretch:normal;font-size:35.27777863px;line-height:0.5;font-family:'JMH Grace';-inkscape-font-specification:'JMH Grace';text-align:center;letter-spacing:2.3812499px;text-anchor:middle;fill:#f9f9f9;stroke-width:0.26458332"
           d="m 95.594895,197.69964 q -0.103353,0 -0.241157,0.0345 -0.137804,0 -0.206706,0.0689 -0.103353,3.5829 -0.103353,7.06245 0,0.68902 0.03445,1.24023 0.03445,0.51676 0.206706,0.89573 0.206706,0.37896 0.551215,0.62011 0.378961,0.20671 1.06798,0.24116 0.03445,0 0.172255,0.0344 0.172255,0 0.310058,0.0344 0.172255,0 0.275608,0.0689 0.137804,0.0344 0.137804,0.0689 0,0.0345 -0.0689,0.20671 -0.03445,0.1378 -0.137804,0.31006 -0.0689,0.17225 -0.137804,0.34451 -0.0689,0.1378 -0.103353,0.2067 -1.343587,0.0345 -2.721625,0.0689 -1.343587,0.0345 -2.721626,0.0345 -0.275607,0 -0.551215,-0.0345 -0.241157,-0.0344 -0.241157,-0.17226 0,-0.10335 0.03445,-0.27561 0.0689,-0.17225 0.137804,-0.34451 0.0689,-0.17225 0.137804,-0.31005 0.103353,-0.13781 0.206706,-0.17226 0.37896,-0.37896 0.516764,-1.37804 0.137804,-1.03353 0.137804,-2.10151 0,-0.79237 -0.03445,-1.48139 -0.03445,-0.68902 -0.03445,-1.06798 v -9.64626 q 0,-1.79145 -0.03445,-3.54845 -0.03445,-1.757 -0.103353,-3.54845 0,-0.20671 0,-0.51676 0,-0.34451 -0.03445,-0.65457 -0.03445,-0.34451 -0.137804,-0.62012 -0.0689,-0.27561 -0.275607,-0.44786 -0.241157,-0.20671 -0.551216,-0.24116 -0.310058,-0.0345 -0.620117,-0.0689 -0.275607,-0.0689 -0.482313,-0.24116 -0.172255,-0.2067 -0.172255,-0.68902 0,-0.1378 0.826823,-0.2067 0.861274,-0.10336 1.963705,-0.10336 1.136881,-0.0344 2.239312,-0.0344 1.136881,0 1.653646,0 h 1.653645 q 1.033529,0 2.135955,0.0689 1.13689,0.0345 2.20487,0.2067 1.10243,0.17226 2.06705,0.51677 0.99908,0.3445 1.6881,0.93017 0.72347,0.62012 1.17133,1.34359 0.48232,0.72347 0.75792,1.44694 0.27561,0.72347 0.37896,1.34359 0.10336,0.62011 0.10336,1.03352 0,1.757 -0.65457,3.13504 -0.65457,1.34359 -1.72255,2.34267 -1.06798,0.96462 -2.44602,1.65364 -1.34358,0.65457 -2.72162,0.99908 -0.79237,0.20671 -1.72255,0.34451 -0.895725,0.10335 -1.688097,0.41341 0.999078,0.65457 2.101508,1.13688 1.102429,0.44786 2.239309,1.27469 1.20579,0.89572 2.27377,1.9637 1.06798,1.06798 2.0326,2.17041 0.41341,0.48232 1.13688,1.30914 0.75793,0.82682 1.6192,1.61919 0.86127,0.79238 1.72255,1.41249 0.86127,0.58567 1.55029,0.58567 0.10335,0 0.24116,0 0.1378,-0.0344 0.1378,-0.17226 0,-0.1378 -0.1378,-0.2756 -0.10336,-0.13781 -0.10336,-0.48232 0,-0.55121 0.37896,-0.96462 0.37896,-0.41341 0.96463,-0.41341 0.58567,0 0.99908,0.44786 0.44786,0.41341 0.44786,0.99908 0,0.24115 -0.17225,0.51676 -0.17226,0.24116 -0.41341,0.48231 -0.24116,0.24116 -0.51677,0.41341 -0.27561,0.17226 -0.48231,0.24116 -0.34451,0.10335 -0.68902,0.10335 -0.34451,0.0345 -0.68902,0.0345 -2.03261,0 -3.75516,-0.86128 -1.72254,-0.89572 -3.23838,-2.20486 -1.4814,-1.30914 -2.79053,-2.82498 -1.30914,-1.55029 -2.51492,-2.85943 -1.171335,-1.30913 -2.273765,-2.17041 -1.102431,-0.89572 -2.17041,-0.89572 z m 10.094125,-8.9228 q 0,-1.757 -0.62011,-2.99723 -0.62012,-1.24024 -1.6881,-2.03261 -1.06798,-0.82682 -2.48047,-1.17133 -1.412487,-0.37896 -2.997231,-0.37896 -0.585667,0 -1.309137,0.10335 -0.689019,0.10335 -1.240234,0.37896 -0.137804,0.0689 -0.206706,0.34451 -0.0689,0.27561 -0.137804,0.68902 -0.03445,0.41341 -0.0689,0.89572 0,0.44787 0,0.89573 0,0.48231 0,0.82682 0.03445,0.34451 0.03445,0.44786 v 2.68718 q 0,0.2067 -0.03445,0.86127 0,0.65457 0,1.51584 0,0.68902 0,1.41249 0.03445,0.72347 0.103352,1.34359 0.103353,0.58567 0.206706,0.99908 0.137804,0.41341 0.34451,0.48231 0.413411,0.10336 0.826823,0.10336 1.033528,0 2.17041,-0.24116 1.136881,-0.27561 2.239312,-0.75792 1.10243,-0.48232 2.03261,-1.13688 0.96462,-0.65457 1.61919,-1.4814 0.72347,-0.89572 0.96463,-1.75699 0.24115,-0.89573 0.24115,-2.03261 z" />
        <path
           id="path1020"
           style="font-style:normal;font-variant:normal;font-weight:normal;font-stretch:normal;font-size:35.27777863px;line-height:0.5;font-family:'JMH Grace';-inkscape-font-specification:'JMH Grace';text-align:center;letter-spacing:2.3812499px;text-anchor:middle;fill:#f9f9f9;stroke-width:0.26458332"
           d="m 118.23331,182.78237 q -0.27561,0 -0.58567,0.0689 -0.31006,0.0689 -0.62012,0.0689 -0.2756,0 -0.37896,-0.31006 -0.0689,-0.34451 -0.0689,-0.58567 0,-0.2067 0.62012,-0.27561 0.65457,-0.10335 1.41249,-0.10335 0.75792,-0.0344 1.37804,0 0.65456,0 0.68902,0 1.17133,0 1.55029,0.10335 0.37896,0.0689 0.37896,0.68902 0,2.85943 -0.1378,5.68441 -0.13781,2.82498 -0.13781,5.64996 0,1.27468 0,2.54937 0.0344,1.24023 0.17226,2.51492 0.0689,0.93017 0.1378,1.9637 0.0689,1.03353 0.24116,2.06706 0.17225,0.99908 0.51676,1.92925 0.37896,0.93018 1.06798,1.65365 0.68902,0.68902 1.757,1.10243 1.10243,0.41341 2.72163,0.41341 0.93017,0 1.75699,-0.27561 0.86128,-0.31005 1.6192,-0.79237 0.75792,-0.48231 1.41249,-1.10243 0.68902,-0.62012 1.24023,-1.30913 0.99908,-1.24024 1.48139,-2.54938 0.51677,-1.34358 0.72347,-2.75607 0.20671,-1.41249 0.20671,-2.89388 0,-1.48139 0,-2.99724 0,-1.48139 0,-2.79052 0.0345,-1.34359 0.0345,-2.92833 0,-0.99908 -0.0345,-1.8259 -0.0344,-0.86128 -0.24116,-1.4814 -0.17225,-0.62011 -0.58566,-0.96462 -0.37896,-0.37896 -1.13689,-0.41341 l -0.96462,-0.0344 v -1.24024 h 5.99446 q -0.0344,1.79145 -0.0344,3.54845 0,1.757 0,3.54845 0,2.85943 0,5.6155 0.0344,2.75608 0.0344,5.68441 0,0.93018 0,2.10151 0.0345,1.13688 0.0689,2.20486 0.0345,1.06798 0.10335,1.92925 0.0689,0.82683 0.2067,1.10243 0.13781,0.27561 0.51677,0.44787 0.17225,0.0689 0.48231,0.10335 0.31006,0.0344 0.62012,0.10335 0.31006,0.0689 0.51676,0.20671 0.24116,0.10335 0.24116,0.34451 0,0.17225 0,0.31006 0,0.10335 -0.0344,0.2756 -1.30914,0.0689 -2.61827,0.13781 -1.30914,0.10335 -2.58382,0.10335 -0.31006,0 -0.41342,-0.2067 -0.0689,-0.17226 -0.0689,-0.44787 0,-0.75792 0.0344,-1.30913 0.0345,-0.58567 0.0345,-1.6192 0,-0.34451 -0.0345,-0.72347 0,-0.37896 -0.0344,-0.68902 -0.0344,-0.31006 -0.10335,-0.51676 -0.0689,-0.20671 -0.17226,-0.20671 -0.1378,0 -0.72347,0.68902 -0.58566,0.65457 -1.41248,1.51584 -0.82683,0.86128 -1.757,1.72255 -0.93018,0.82682 -1.72255,1.17133 -0.82682,0.37896 -1.757,0.51677 -0.93018,0.1378 -1.8259,0.1378 -1.03353,0 -1.92925,-0.10335 -0.89573,-0.10335 -1.72255,-0.37896 -0.79237,-0.27561 -1.55029,-0.72347 -0.72348,-0.48231 -1.44695,-1.24024 -0.55121,-0.55121 -0.89572,-1.30913 -0.31006,-0.79237 -0.51676,-1.65365 -0.17226,-0.89572 -0.24116,-1.8259 -0.0344,-0.96463 -0.0344,-1.8948 v -1.86035 q 0,-1.99816 -0.0345,-3.96186 -0.0344,-1.96371 0,-3.96186 0,-0.17226 0,-0.99908 0.0345,-0.86127 0.0345,-1.8948 0,-1.48139 -0.0345,-2.41157 0,-0.96463 -0.13781,-1.48139 -0.1378,-0.55122 -0.44786,-0.72347 -0.27561,-0.20671 -0.82682,-0.20671 z" />
        <path
           id="path1022"
           style="font-style:normal;font-variant:normal;font-weight:normal;font-stretch:normal;font-size:35.27777863px;line-height:0.5;font-family:'JMH Grace';-inkscape-font-specification:'JMH Grace';text-align:center;letter-spacing:2.3812499px;text-anchor:middle;fill:#f9f9f9;stroke-width:0.26458332"
           d="m 149.69116,199.69779 v -8.95725 q 0,-1.51584 -0.0344,-2.89388 0,-1.37803 -0.0689,-2.44601 -0.0689,-1.06798 -0.24116,-1.72255 -0.17225,-0.68902 -0.51676,-0.79237 -0.82682,-0.24116 -1.65365,-0.20671 h -0.82682 v -1.24023 h 0.51676 q 0.13781,0 0.96463,0.0344 0.82682,0 1.757,0.0344 0.96463,0 1.72255,0.0344 0.79237,0.0345 0.86127,0.0689 0.0689,0.0689 0.10335,0.75792 0.0689,0.65457 0.0689,1.6881 0.0345,1.03353 0.0345,2.37711 0.0344,1.30914 0.0344,2.72163 0,1.41249 0,2.82498 0,1.37804 -0.0344,2.54937 0,1.17133 0,2.03261 0,0.86127 0,1.20578 0,0.17225 0,0.93017 0.0344,0.75793 0.0344,1.82591 0.0344,1.03352 0.0689,2.20486 0.0345,1.17133 0.0689,2.20486 0.0344,0.99908 0.0689,1.68809 0.0345,0.65457 0.0689,0.72347 0.31005,0.62012 0.72347,0.68902 0.44786,0.0689 0.82682,0.10336 0.37896,0 0.65457,0.24115 0.27561,0.20671 0.27561,1.10243 -1.30914,0.0345 -2.58383,0.0689 -1.27468,0.0689 -2.58382,0.0689 -0.24115,0 -0.34451,-0.58567 -0.0689,-0.58566 -0.0689,-1.30913 0,-1.13689 0,-2.13596 0.0345,-1.03353 0.0345,-1.99816 0.0344,-0.96463 0.0344,-1.8948 0.0344,-0.96463 0.0344,-1.99816 z" />
        <path
           id="path1024"
           style="font-style:normal;font-variant:normal;font-weight:normal;font-stretch:normal;font-size:35.27777863px;line-height:0.5;font-family:'JMH Grace';-inkscape-font-specification:'JMH Grace';text-align:center;letter-spacing:2.3812499px;text-anchor:middle;fill:#f9f9f9;stroke-width:0.26458332"
           d="m 184.21516,193.70333 q 0,-2.17041 -0.68902,-3.82406 -0.68902,-1.65365 -1.86036,-2.85943 -1.17133,-1.24023 -2.72162,-2.06706 -1.55029,-0.82682 -3.30729,-1.30913 -1.757,-0.51677 -3.61735,-0.72347 -1.8259,-0.20671 -3.5829,-0.20671 -0.44786,0 -0.96463,0.0344 -0.48231,0.0344 -0.96463,0.13781 -0.44786,0.10335 -0.82682,0.2756 -0.37896,0.13781 -0.58566,0.37896 -0.20671,0.24116 -0.31006,0.79238 -0.10336,0.51676 -0.13781,1.13688 -0.0344,0.62012 -0.0689,1.20578 0,0.55122 0,0.86128 -0.0689,2.75607 -0.10335,5.51215 0,2.72162 0,5.4777 v 7.82037 q 0.41341,0.62011 0.82682,0.99907 0.41341,0.34451 0.86127,0.55122 0.48232,0.17225 1.03353,0.20671 0.58567,0.0345 1.30914,0.0345 2.99723,0 5.82221,-1.06798 2.82498,-1.10243 5.02984,-2.99724 2.20486,-1.92925 3.514,-4.58197 1.34359,-2.65273 1.34359,-5.78776 z m -25.73487,15.43402 q 0,-0.2756 0.37896,-0.48231 0.37896,-0.2067 0.58567,-0.27561 0.65457,-0.24115 0.96463,-0.37896 0.3445,-0.1378 0.51676,-0.31006 0.20671,-0.17225 0.34451,-0.44786 0.17225,-0.31006 0.48231,-0.93017 0.0344,-3.16949 0.0689,-6.30453 0.0345,-3.13504 0.0345,-6.30452 0,-1.757 -0.10336,-3.514 -0.0689,-1.757 -0.0689,-3.514 0,-0.37896 -0.0345,-0.99908 0,-0.65456 -0.17226,-1.27468 -0.1378,-0.62012 -0.48231,-1.06798 -0.34451,-0.44786 -0.96463,-0.44786 -0.37896,0 -0.72347,0.1378 -0.3445,0.1378 -0.72347,0.17225 -0.0689,-0.0689 -0.10335,-0.17225 0,-0.1378 0,-0.24116 0,-0.2067 0.0344,-0.37896 0.0345,-0.2067 0.20671,-0.37896 0.0344,-0.0344 0.68902,-0.0689 0.65457,-0.0344 1.61919,-0.0689 0.96463,-0.0344 2.10151,-0.0689 1.17133,-0.0344 2.20486,-0.0344 1.06798,-0.0345 1.86035,-0.0345 0.79238,0 1.06798,0 1.6192,0 3.75516,0.0689 2.13596,0.0689 4.27192,0.37896 2.17041,0.31006 4.09966,0.96462 1.9637,0.65457 3.20394,1.8259 1.06798,1.03353 1.72255,1.99816 0.65456,0.96463 0.99907,2.03261 0.37896,1.03353 0.48232,2.23931 0.1378,1.20578 0.1378,2.68717 0,0.79238 -0.0689,1.51585 -0.0345,0.72347 -0.27561,1.51584 -0.75792,2.51492 -2.13596,4.44417 -1.37804,1.92925 -3.23839,3.37619 -1.8259,1.44694 -4.06521,2.41157 -2.20486,0.93018 -4.65088,1.48139 -2.13596,0.48232 -4.34082,0.55122 -2.20486,0.0689 -4.37527,0.10335 -1.17133,0.0344 -2.34267,0.10335 -1.17133,0.0689 -2.34266,0.0689 -0.17226,0 -0.41341,-0.10336 -0.20671,-0.10335 -0.20671,-0.27561 z" />
      </g>
      <g
         id="text48-3"
         style="font-style:normal;font-weight:normal;font-size:21.01107788px;line-height:1.25;font-family:sans-serif;letter-spacing:0px;word-spacing:0px;fill:#000000;fill-opacity:1;stroke:none;stroke-width:0.5252769"
         transform="scale(1.9852987,0.50370254)"
         aria-label=".">
        <path
           id="path1030"
           style="font-size:140.07385254px;fill:#f9f9f9;stroke-width:0.5252769"
           d="m 79.297006,423.96029 h 14.431437 v 17.37244 H 79.297006 Z" />
      </g>
      <g
         id="text48-3-7"
         style="font-style:normal;font-weight:normal;font-size:10.58333302px;line-height:1.25;font-family:sans-serif;letter-spacing:0px;word-spacing:0px;fill:#000000;fill-opacity:1;stroke:none;stroke-width:0.26458332"
         aria-label=".">
        <path
           id="path1033"
           style="font-size:70.55555725px;fill:#f9f9f9;stroke-width:0.26458332"
           d="m 23.659832,214.35168 h 7.269151 v 8.75054 h -7.269151 z" />
      </g>
    </g>
    <g
       id="flowRoot88"
       style="font-style:normal;font-weight:normal;font-size:40px;line-height:1.25;font-family:sans-serif;letter-spacing:0px;word-spacing:0px;fill:#000000;fill-opacity:1;stroke:none" />
    <g
       id="flowRoot96"
       style="font-style:normal;font-weight:normal;font-size:40px;line-height:1.25;font-family:sans-serif;letter-spacing:0px;word-spacing:0px;fill:#000000;fill-opacity:1;stroke:none" />
  </g>
</svg>
